<?xml version="1.0" encoding="utf-8"?>
<!-- Generator: Adobe Illustrator 19.0.0, SVG Export Plug-In . SVG Version: 6.00 Build 0)  -->
<svg version="1.1" id="Layer_1" xmlns="http://www.w3.org/2000/svg" xmlns:xlink="http://www.w3.org/1999/xlink" x="0px" y="0px"
	 viewBox="-49 169.5 512 327" style="enable-background:new -49 169.5 512 327;" xml:space="preserve">
<path d="M453.8,477.6H409v-98.4c0-13.8-10.8-25-24-25h-59.5c-13,0-23.8,11.3-23.8,25v98.4h-41.3V194.3c0-13.8-10.8-24.8-23.8-24.8
	h-59.5c-13.3,0-23.8,11-23.8,24.8v283.4h-41.3V317.5c0-13.6-10.8-24.8-24-24.8H29c-13.3,0-24,11.1-24,24.8v160.1h-45
	c-5,0-9,4.3-9,9.4c0,5.3,4,9.5,9,9.5h493.8c5.3,0,9.3-4.3,9.3-9.5C463,481.9,459,477.6,453.8,477.6z M94,477.6H23.3V311.8H94V477.6z
	 M242.3,477.6h-70.8V188.3h70.8V477.6z M390.8,477.6H320V373.3h70.8V477.6z"/>
</svg>
