<?xml version="1.0" encoding="utf-8"?>
<!-- Generator: Adobe Illustrator 19.0.0, SVG Export Plug-In . SVG Version: 6.00 Build 0)  -->
<svg version="1.1" id="Layer_1" xmlns="http://www.w3.org/2000/svg" xmlns:xlink="http://www.w3.org/1999/xlink" x="0px" y="0px"
	 viewBox="-255 356.9 100 64" style="enable-background:new -255 356.9 100 64;" xml:space="preserve">
<path d="M-254.8,374.2v40.4h92.4v-40.4H-254.8z M-200.3,376h22.8v16.8h-22.8V376z M-214.2,408.5H-249v-3.2h-1.5v-3h1.5v-14.5h-1.3
	v-3h1.3v-3.2h34.8V408.5z M-176.6,409.5h-24.8v-14.6h24.8L-176.6,409.5L-176.6,409.5z"/>
<path d="M-188.9,380c-0.8,0-1.5,0.7-1.5,1.5h2.9C-187.4,380.7-188.1,380-188.9,380z"/>
<path d="M-199.5,376.8v15.3h21.3v-15.3C-178.2,376.8-199.5,376.8-199.5,376.8z M-192.5,382.2h-4.7v-3.6h4.7V382.2z M-186.5,382.2
	h-4.7v-3.6h4.7V382.2z M-180.5,382.2h-4.7v-3.6h4.7V382.2z"/>
<path d="M-182.9,380c-0.8,0-1.5,0.7-1.5,1.5h2.9C-181.4,380.7-182.1,380-182.9,380z"/>
<path d="M-194.9,380c-0.8,0-1.5,0.7-1.5,1.5h2.9C-193.4,380.7-194,380-194.9,380z"/>
<path d="M-177.4,395.7h-23.3v13h23.3V395.7z M-186.2,398.6h-4.7v-1.7h4.7V398.6z"/>
<path d="M-247.3,383v24.3h31.9V383H-247.3z M-232.4,405.5h-12.3v-0.8h12.3V405.5z M-232.4,403.3h-12.3v-0.8h12.3V403.3z
	 M-232.4,401.2h-12.3v-0.8h12.3V401.2z M-232.4,399h-12.3v-0.8h12.3V399z M-232.4,396.9h-12.3v-0.8h12.3V396.9z M-232.4,394.7h-12.3
	v-0.8h12.3V394.7z M-216.4,396.6h-1.3v-3.3h1.3V396.6z"/>
<g>
	<path d="M-162.3,356.9c-7.4,0-13.4,6-13.4,13.4h13.4V356.9z"/>
</g>
<rect x="-175.7" y="371.2" width="13.5" height="2.2"/>
<polygon points="-155,356.9 -157.9,370.3 -161.1,370.3 -161.1,356.9 "/>
<path d="M-217.4,364.7v5.8h5.8C-211.6,367.3-214.2,364.7-217.4,364.7z"/>
<rect x="-217.4" y="370.9" width="5.9" height="2.8"/>
<rect x="-255" y="365.4" width="12.4" height="4"/>
<rect x="-253.7" y="415.7" width="90.2" height="5.3"/>
<polygon points="-242,364.1 -242,370.5 -239.2,370.5 -239.2,373.8 -237.8,373.8 -237.8,370.5 -223.3,370.5 -223.3,373.8 
	-221.8,373.8 -221.8,370.5 -218.2,370.5 -218.2,364.1 "/>
</svg>
