<?xml version="1.0" encoding="utf-8"?>
<!-- Generator: Adobe Illustrator 19.0.0, SVG Export Plug-In . SVG Version: 6.00 Build 0)  -->
<svg version="1.1" id="Layer_1" xmlns="http://www.w3.org/2000/svg" xmlns:xlink="http://www.w3.org/1999/xlink" x="0px" y="0px"
	 viewBox="-240.8 361.3 68.6 49.2" style="enable-background:new -240.8 361.3 68.6 49.2;" xml:space="preserve">
<title>Artboard 30</title>
<path d="M-173,390.4l-7.5-21.5c-2.1-6-8.6-9.1-14.6-7c-4.6,1.6-7.6,5.9-7.7,10.7v15.6h-7.6v-11.8h7.6v-3.8h-7.6
	c0-6.3-5.2-11.4-11.5-11.3c-4.8,0-9.1,3.1-10.7,7.7l-7.5,21.5c-2.7,7.9,1.5,16.5,9.4,19.2c1.6,0.6,3.3,0.8,5.1,0.8
	c5.6,0,10.8-3.1,13.5-8.1h11.1c4,7.4,13.2,10.2,20.6,6.3c4.9-2.6,8-7.8,8.1-13.4C-172.2,393.7-172.5,392-173,390.4z M-176,395.3
	c-0.2,6.3-5.5,11.3-11.8,11.1c-6-0.2-10.9-5-11.1-11.1c0-0.1,0-0.2,0-0.4c0-0.6,0.1-1.1,0.2-1.7l0,0c0-0.2,0.1-0.4,0.1-0.5l0,0
	c0-0.2,0.1-0.4,0.1-0.5l0,0c0-0.2,0.1-0.3,0.2-0.5l0,0l0.2-0.5l0,0c0.1-0.2,0.1-0.3,0.2-0.5l0,0l0.2-0.4l0,0l0.2-0.4l0,0
	c0.1-0.1,0.2-0.3,0.3-0.4v-0.1l0.3-0.4V389c0.1-0.1,0.2-0.2,0.3-0.4v-0.1l0.3-0.4l0.1-0.1c0.1-0.1,0.2-0.2,0.3-0.3l0.1-0.1l0.3-0.3
	l0.1-0.1l0.3-0.3l0.1-0.1l0.3-0.3l0.1-0.1l0.3-0.2l0.1-0.1l0.3-0.2l0.2-0.1l0.3-0.2l0.2-0.1l0.3-0.2l0.2-0.1l0.3-0.1l0.2-0.1
	l0.3-0.1c0.1,0,0.1-0.1,0.2-0.1l0.3-0.1l0.2-0.1l0.3-0.1l0.3-0.1l0.3-0.1l0.5-0.3l0.3-0.1h0.3l0.3,0h0.3h0.2h0.4h0.2h0.6h0.6h0.4
	h0.1l0.5,0.1l0,0l0.5,0.1C-180,385.3-176.1,389.9-176,395.3z M-191.3,364.6c3.5,0,6.5,2.2,7.7,5.5l4.6,13.3c-1.7-1.2-3.7-2-5.8-2.4
	c-0.2,0-0.4-0.1-0.6-0.1h-0.1l-0.6-0.1h-0.2h-0.5h-0.7c-0.3,0-0.5,0-0.8,0h-0.3h-0.4h-0.3h-0.1h-0.3h-0.3h-0.1l-0.3,0.1l-0.3,0.1
	h-0.1h-0.1l-0.3,0.1l-0.3,0.1h-0.1h-0.1l-0.3,0.1l-0.3,0.1h-0.1h-0.1l-0.2,0.1l-0.3,0.1l0,0l0,0l-0.2,0.1l-0.3,0.2h-0.1l0,0
	l-0.2,0.1l-0.4,0.2l0,0l0,0l-0.2,0.1l-0.4,0.2l0,0l0,0l-0.2,0.1l-0.4,0.2l0,0l-0.2,0.1l-0.4,0.3l0,0l-0.2,0.1l-0.4,0.3l0,0l-0.1,0.1
	l-0.4,0.3l0,0l-0.1,0.1l-0.4,0.3l0,0l-0.1,0.1l-0.4,0.4l0,0l-0.1,0.1l-0.4,0.4l0,0l-0.1,0.1l-0.4,0.4l-0.1,0.1l-0.2,0.3v-13.6
	C-199,368.3-195.6,364.8-191.3,364.6z M-225.5,406.7c-6.3,0.1-11.4-4.9-11.5-11.2c-0.1-5.6,3.9-10.4,9.4-11.3l0.5-0.1l0,0l0.5-0.1
	h0.1h0.4h0.6h0.6h0.2h0.4h0.2h0.3l0.3,0h0.3l0.3,0.1l0.3,0.1l0.3,0.1l0.3,0.1l0.3,0.1l0.2,0.1l0.3,0.1c0.1,0,0.1,0.1,0.2,0.1
	l0.3,0.1l0.2,0.1l0.3,0.1l0.2,0.1l0.3,0.2l0.2,0.1l0.3,0.2l0.2,0.1l0.3,0.2l0.1,0.1l0.3,0.2l0.1,0.1l0.3,0.3l0.1,0.1l0.3,0.3
	l0.1,0.1l0.3,0.3l0.1,0.1c0.1,0.1,0.2,0.2,0.3,0.3l0.1,0.1l0.3,0.4v0.1c0.1,0.1,0.2,0.2,0.3,0.4v0.1l0.3,0.4v0.1
	c0.1,0.1,0.2,0.3,0.3,0.4l0,0l0.2,0.4l0,0l0.2,0.5l0,0c0.1,0.2,0.1,0.3,0.2,0.5l0,0l0.2,0.5l0,0c0.1,0.2,0.1,0.3,0.2,0.5l0,0
	c0,0.2,0.1,0.4,0.1,0.5l0,0c0,0.2,0.1,0.4,0.1,0.5l0,0c0.1,0.6,0.2,1.1,0.2,1.7c0,0.1,0,0.3,0,0.4
	C-214.2,401.3-219.2,406.5-225.5,406.7C-225.5,406.7-225.5,406.7-225.5,406.7z M-229.4,370.1c1.5-4.2,6.1-6.5,10.3-5
	c3.2,1.1,5.4,4.2,5.4,7.6v14.1l-0.3-0.3l-0.1-0.1c-0.1-0.2-0.2-0.3-0.4-0.4l-0.1-0.1l0,0c-0.1-0.1-0.2-0.3-0.4-0.4
	c0,0-0.1-0.1-0.1-0.1l0,0l-0.4-0.4c0,0-0.1-0.1-0.1-0.1l0,0c-0.1-0.1-0.3-0.2-0.4-0.4l-0.1-0.1l0,0l-0.4-0.3l-0.1-0.1l0,0l-0.4-0.3
	l-0.1-0.1l0,0l-0.4-0.3l-0.3-0.2l0,0l-0.4-0.3l-0.2-0.1l0,0l0,0c-0.1-0.1-0.2-0.1-0.4-0.2l-0.2-0.1h-0.1l0,0l-0.4-0.3l-0.2-0.1h-0.1
	l0,0l-0.3-0.1l-0.2-0.1l0,0l0,0l-0.3-0.1l-0.3-0.1h-0.1h-0.1l-0.3-0.1l-0.3-0.1h-0.1h-0.1l-0.3-0.1l-0.4-0.2h-0.1h-0.1l-0.3-0.1
	l-0.3-0.1h-0.1h-0.3h-0.4h-0.2h-0.2h-0.4h-0.3c-0.2,0-0.5,0-0.7,0h-0.7h-0.5h-0.2l-0.6,0.1h0l-0.6,0.1c-2.1,0.3-4,1.1-5.8,2.2
	L-229.4,370.1z M-202.7,399.1h-7.6v-3.7l0,0v-3.8h7.6v3.8l0,0V399.1z"/>
<path d="M-225.5,385.5c-5.4,0-9.8,4.5-9.8,9.9c0,5.4,4.5,9.8,9.9,9.8c5.4,0,9.8-4.4,9.8-9.8C-215.6,389.9-220.1,385.5-225.5,385.5
	C-225.5,385.5-225.5,385.5-225.5,385.5z M-225.5,401.9c-3.6,0-6.5-3-6.5-6.6c0-3.6,3-6.5,6.6-6.5c3.6,0,6.5,2.9,6.5,6.5
	C-219,398.9-221.9,401.9-225.5,401.9z"/>
<path d="M-187.5,385.5c-5.4,0-9.8,4.5-9.8,9.9c0,5.4,4.5,9.8,9.9,9.8c5.4,0,9.8-4.4,9.8-9.8C-177.6,389.9-182,385.5-187.5,385.5z
	 M-187.5,401.9c-3.6,0-6.5-3-6.5-6.6c0-3.6,3-6.5,6.6-6.5c3.6,0,6.5,2.9,6.5,6.5C-180.9,398.9-183.8,401.9-187.5,401.9z"/>
</svg>
