<?xml version="1.0" encoding="utf-8"?>
<!-- Generator: Adobe Illustrator 19.0.0, SVG Export Plug-In . SVG Version: 6.00 Build 0)  -->
<svg fill= "white" version="1.1"
	 id="Layer_1" xmlns:rdf="http://www.w3.org/1999/02/22-rdf-syntax-ns#" xmlns:inkscape="http://www.inkscape.org/namespaces/inkscape" xmlns:dc="http://purl.org/dc/elements/1.1/" xmlns:cc="http://creativecommons.org/ns#" xmlns:sodipodi="http://sodipodi.sourceforge.net/DTD/sodipodi-0.dtd" xmlns:svg="http://www.w3.org/2000/svg"
	 xmlns="http://www.w3.org/2000/svg" xmlns:xlink="http://www.w3.org/1999/xlink" x="0px" y="0px" viewBox="-272 352 66 90"
	 style="enable-background:new -272 352 66 90;" xml:space="preserve">
<g style="color: yellow;fill: #d9d9d2;" transform="translate(0,-952.36218)">
	<g>
		<g>
			<path d="M-244.2,1392.9c-0.8,0-1.5-0.7-1.5-1.4c0-0.7,0.7-1.6,1.5-1.6l10.2,0c0.7,0,1.5,0.7,1.5,1.5c0,0.8-0.7,1.5-1.5,1.5h-10
				L-244.2,1392.9z M-247.2,1385.9c-0.8,0-1.5-0.7-1.5-1.4c0-0.7,0.7-1.6,1.5-1.6l16.2,0c0.7,0,1.5,0.7,1.5,1.5
				c0,0.8-0.7,1.5-1.5,1.5h-16L-247.2,1385.9z M-252,1378.8c-0.8,0-1.5-0.7-1.5-1.5v-13.1l-0.8-0.4c-10-5.5-16.2-16-16.2-27.4
				c0-17.1,13.8-30.5,31.5-30.5c17.7,0,31.5,13.4,31.5,30.5c0,11.3-6.2,21.8-16.2,27.4l-0.8,0.4v13.1c0,0.8-0.7,1.5-1.5,1.5H-252z
				 M-239,1328.9c4.1,0,7.5,3.4,7.5,7.5c0,3.2-2,6.1-5,7.1l-1,0.3v32.1h10v-12.5c0-0.5,0.4-1.1,0.9-1.4c9.8-4.7,16.1-14.7,16.1-25.6
				c0-15.7-12.3-27.5-28.5-27.5c-16.2,0-28.5,11.8-28.5,27.5c0,11,6.2,20.8,16.1,25.6c0.5,0.2,0.9,0.8,0.9,1.4v12.5h10v-32l-1-0.4
				c-3.1-1.1-5-3.9-5-7.1C-246.5,1332.3-243.1,1328.9-239,1328.9z M-239,1331.9c-2.5,0-4.5,2-4.5,4.5s2,4.5,4.5,4.5s4.5-2,4.5-4.5
				S-236.5,1331.9-239,1331.9z"/>
		</g>
	</g>
</g>
</svg>
