<?xml version="1.0" encoding="utf-8"?>
<!-- Generator: Adobe Illustrator 19.0.0, SVG Export Plug-In . SVG Version: 6.00 Build 0)  -->
<svg version="1.1" id="Layer_1" xmlns="http://www.w3.org/2000/svg" xmlns:xlink="http://www.w3.org/1999/xlink" x="0px" y="0px"
	 viewBox="-244.5 339 78.9 89.9" style="enable-background:new -244.5 339 78.9 89.9;" xml:space="preserve">
<style type="text/css">
	.st0{display:none;}
	.st1{display:inline;fill:none;stroke:#000000;stroke-width:2.2409;stroke-linecap:round;}
	.st2{display:inline;}
	.st3{fill:none;stroke:#000000;stroke-width:2.9879;stroke-linecap:round;}
	.st4{fill:none;stroke:#000000;stroke-width:2.9879;stroke-linecap:round;stroke-dasharray:0,2.8372;}
	.st5{display:inline;stroke:#000000;stroke-width:3;stroke-linecap:round;}
	.st6{display:inline;fill:none;stroke:#000000;stroke-width:3;stroke-linecap:round;}
	.st7{display:inline;stroke:#FFFFFF;stroke-width:3;stroke-linecap:round;}
	.st8{fill:none;stroke:#000000;stroke-width:4;stroke-linecap:round;}
	.st9{fill:none;stroke:#000000;stroke-width:4;stroke-linecap:round;stroke-dasharray:0,3.9378;}
	.st10{display:inline;fill:none;stroke:#FFFFFF;stroke-width:3;stroke-linecap:round;}
	.st11{display:inline;fill:none;stroke:#000000;stroke-width:3;stroke-linecap:round;stroke-linejoin:round;}
	.st12{fill:none;stroke:#000000;stroke-width:3;stroke-linecap:round;stroke-linejoin:round;}
	.st13{display:inline;stroke:#000000;stroke-width:3;stroke-linecap:round;stroke-linejoin:round;}
	.st14{display:inline;fill:none;stroke:#FFFFFF;stroke-width:3;stroke-linecap:round;stroke-linejoin:round;}
	.st15{display:inline;stroke:#1A171B;stroke-width:3;stroke-linecap:round;stroke-linejoin:round;}
</style>
<g class="st0">
	<path class="st1" d="M-205,414.2c3.8,0,10.7-2,10.7-5.5c0-9.4,11.5-14.5,11.5-28.5c0-12.7-8.8-22.8-22.2-22.8
		c-13.4,0-22.2,10.1-22.2,22.8c0,14.1,11.5,19.1,11.5,28.5C-215.7,412.3-208.8,414.2-205,414.2z"/>
	<path class="st1" d="M-195,415.1c-2.8,2-6.2,3.1-9.9,3.1c-3.7,0-7.1-1.1-10-3.1"/>
	<path class="st1" d="M-195,419.1c-2.8,2-6.2,2.8-9.9,2.8c-3.7,0-7.1-0.8-10-2.8"/>
	<path class="st1" d="M-195,423.1c-2.8,2-6.2,2.5-9.9,2.5c-3.7,0-7.1-0.5-10-2.5"/>
	<path class="st1" d="M-208.1,425.8c0,1.7,1.4,3.2,3.2,3.2c1.7,0,3.2-1.4,3.2-3.2"/>
	<path class="st1" d="M-208.6,362c-4.6,0.8-7.8,3.2-10.5,6.5"/>
	<g class="st2">
		<g>
			<line class="st3" x1="-205" y1="350.3" x2="-205" y2="350.3"/>
			<line class="st4" x1="-205" y1="347.5" x2="-205" y2="340.4"/>
			<line class="st3" x1="-205" y1="339" x2="-205" y2="339"/>
		</g>
	</g>
	<g class="st2">
		<g>
			<line class="st3" x1="-221.5" y1="355.4" x2="-221.5" y2="355.4"/>
			<line class="st4" x1="-223.1" y1="353" x2="-227" y2="347.1"/>
			<line class="st3" x1="-227.8" y1="345.9" x2="-227.8" y2="345.9"/>
		</g>
	</g>
	<g class="st2">
		<g>
			<line class="st3" x1="-232.4" y1="368.7" x2="-232.4" y2="368.7"/>
			<line class="st4" x1="-235.1" y1="367.6" x2="-241.6" y2="364.9"/>
			<line class="st3" x1="-242.9" y1="364.4" x2="-242.9" y2="364.4"/>
		</g>
	</g>
	<g class="st2">
		<g>
			<line class="st3" x1="-234.1" y1="385.9" x2="-234.1" y2="385.9"/>
			<line class="st4" x1="-236.9" y1="386.4" x2="-243.8" y2="387.8"/>
			<line class="st3" x1="-245.2" y1="388.1" x2="-245.2" y2="388.1"/>
		</g>
	</g>
	<g class="st2">
		<g>
			<line class="st3" x1="-226" y1="401" x2="-226" y2="401"/>
			<line class="st4" x1="-228" y1="403" x2="-233" y2="408.1"/>
			<line class="st3" x1="-234" y1="409.1" x2="-234" y2="409.1"/>
		</g>
	</g>
	<g class="st2">
		<g>
			<line class="st3" x1="-188.5" y1="355.4" x2="-188.5" y2="355.4"/>
			<line class="st4" x1="-186.9" y1="353" x2="-183" y2="347.1"/>
			<line class="st3" x1="-182.2" y1="345.9" x2="-182.2" y2="345.9"/>
		</g>
	</g>
	<g class="st2">
		<g>
			<line class="st3" x1="-177.6" y1="368.7" x2="-177.6" y2="368.7"/>
			<line class="st4" x1="-174.9" y1="367.6" x2="-168.4" y2="364.9"/>
			<line class="st3" x1="-167.1" y1="364.4" x2="-167.1" y2="364.4"/>
		</g>
	</g>
	<g class="st2">
		<g>
			<line class="st3" x1="-175.9" y1="385.9" x2="-175.9" y2="385.9"/>
			<line class="st4" x1="-173.1" y1="386.4" x2="-166.2" y2="387.8"/>
			<line class="st3" x1="-164.8" y1="388.1" x2="-164.8" y2="388.1"/>
		</g>
	</g>
	<g class="st2">
		<g>
			<line class="st3" x1="-184" y1="401" x2="-184" y2="401"/>
			<line class="st4" x1="-182" y1="403" x2="-177" y2="408.1"/>
			<line class="st3" x1="-176" y1="409.1" x2="-176" y2="409.1"/>
		</g>
	</g>
</g>
<g class="st0">
	<path class="st5" d="M-205,412.7c3.8,0,10.7-2,10.7-5.5c0-9.4,11.5-14.5,11.5-28.5c0-12.7-8.8-22.8-22.2-22.8
		c-13.4,0-22.2,10.1-22.2,22.7c0,14.1,11.5,19.1,11.5,28.5C-215.7,410.8-208.8,412.7-205,412.7z"/>
	<path class="st6" d="M-195,414.9c-2.8,2-6.2,2.8-9.9,2.8c-3.7,0-7.1-0.8-10-2.8"/>
	<path class="st6" d="M-195,420.2c-2.8,2-6.2,2.5-9.9,2.5c-3.7,0-7.1-0.5-10-2.5"/>
	<path class="st6" d="M-209.5,423c0,2.5,2,4.5,4.5,4.5s4.5-2,4.5-4.5"/>
	<path class="st7" d="M-207.6,361.5c-4.6,0.8-7.8,3.2-10.5,6.5"/>
</g>
<g class="st0">
	<path class="st5" d="M-205,412.7c3.8,0,10.7-2,10.7-5.5c0-9.4,11.5-14.5,11.5-28.5c0-12.7-8.8-22.8-22.2-22.8
		c-13.4,0-22.2,10.1-22.2,22.7c0,14.1,11.5,19.1,11.5,28.5C-215.7,410.8-208.8,412.7-205,412.7z"/>
	<path class="st6" d="M-195,414.9c-2.8,2-6.2,2.8-9.9,2.8c-3.7,0-7.1-0.8-10-2.8"/>
	<path class="st6" d="M-195,420.2c-2.8,2-6.2,2.5-9.9,2.5c-3.7,0-7.1-0.5-10-2.5"/>
	<path class="st6" d="M-209.5,423c0,2.5,2,4.5,4.5,4.5s4.5-2,4.5-4.5"/>
	<path class="st7" d="M-207.6,361.5c-4.6,0.8-7.8,3.2-10.5,6.5"/>
	<g class="st2">
		<path d="M-205,360.3c10.3,0,17.7,7.7,17.7,18.3c0,6.3-2.8,10.4-5.8,14.7c-2.7,3.9-5.5,7.9-5.7,13.2c-0.9,0.7-3.7,1.7-6.2,1.7
			s-5.3-1-6.2-1.7c-0.2-5.3-3-9.3-5.7-13.2c-3-4.3-5.8-8.4-5.8-14.7C-222.7,368-215.3,360.3-205,360.3 M-205,357.3
			c-12,0-20.7,9-20.7,21.3c0,7.3,3.2,11.9,6.4,16.4c2.7,3.8,5.2,7.4,5.2,12.1c0,2,5.3,4,9.2,4c3.9,0,9.2-2,9.2-4
			c0-4.7,2.5-8.3,5.2-12.1c3.1-4.5,6.4-9.1,6.4-16.4C-184.3,366.3-193,357.3-205,357.3L-205,357.3z"/>
	</g>
</g>
<g class="st0">
	<path class="st6" d="M-205,412.7c3.8,0,10.7-2,10.7-5.5c0-9.4,11.5-14.5,11.5-28.5c0-12.7-8.8-22.8-22.2-22.8
		c-13.4,0-22.2,10.1-22.2,22.7c0,14.1,11.5,19.1,11.5,28.5C-215.7,410.8-208.8,412.7-205,412.7z"/>
	<path class="st6" d="M-195,414.9c-2.8,2-6.2,2.8-9.9,2.8c-3.7,0-7.1-0.8-10-2.8"/>
	<path class="st6" d="M-195,420.2c-2.8,2-6.2,2.5-9.9,2.5c-3.7,0-7.1-0.5-10-2.5"/>
	<path class="st6" d="M-209.5,423c0,2.5,2,4.5,4.5,4.5s4.5-2,4.5-4.5"/>
	<path class="st6" d="M-207.6,361.5c-4.6,0.8-7.8,3.2-10.5,6.5"/>
</g>
<g class="st0">
	<g class="st2">
		<g>
			<line class="st8" x1="-205" y1="348.9" x2="-205" y2="348.9"/>
			<line class="st9" x1="-205" y1="344.9" x2="-205" y2="343"/>
			<line class="st8" x1="-205" y1="341" x2="-205" y2="341"/>
		</g>
	</g>
	<g class="st2">
		<g>
			<line class="st8" x1="-221.4" y1="353.7" x2="-221.4" y2="353.7"/>
			<line class="st9" x1="-223.5" y1="350.4" x2="-224.6" y2="348.8"/>
			<line class="st8" x1="-225.7" y1="347.1" x2="-225.7" y2="347.1"/>
		</g>
	</g>
	<g class="st2">
		<g>
			<line class="st8" x1="-232.4" y1="366.7" x2="-232.4" y2="366.7"/>
			<line class="st9" x1="-236" y1="365.1" x2="-237.8" y2="364.3"/>
			<line class="st8" x1="-239.6" y1="363.5" x2="-239.6" y2="363.5"/>
		</g>
	</g>
	<g class="st2">
		<g>
			<line class="st8" x1="-234.6" y1="383.6" x2="-234.6" y2="383.6"/>
			<line class="st9" x1="-238.5" y1="384.3" x2="-240.5" y2="384.6"/>
			<line class="st8" x1="-242.4" y1="384.9" x2="-242.4" y2="384.9"/>
		</g>
	</g>
	<g class="st2">
		<g>
			<line class="st8" x1="-227.3" y1="399" x2="-227.3" y2="399"/>
			<line class="st9" x1="-230.2" y1="401.7" x2="-231.7" y2="403"/>
			<line class="st8" x1="-233.1" y1="404.3" x2="-233.1" y2="404.3"/>
		</g>
	</g>
	<g class="st2">
		<g>
			<line class="st8" x1="-188.7" y1="353.7" x2="-188.7" y2="353.7"/>
			<line class="st9" x1="-186.5" y1="350.4" x2="-185.5" y2="348.7"/>
			<line class="st8" x1="-184.4" y1="347.1" x2="-184.4" y2="347.1"/>
		</g>
	</g>
	<g class="st2">
		<g>
			<line class="st8" x1="-177.6" y1="366.7" x2="-177.6" y2="366.7"/>
			<line class="st9" x1="-174" y1="365.1" x2="-172.2" y2="364.2"/>
			<line class="st8" x1="-170.4" y1="363.4" x2="-170.4" y2="363.4"/>
		</g>
	</g>
	<g class="st2">
		<g>
			<line class="st8" x1="-175.3" y1="383.6" x2="-175.3" y2="383.6"/>
			<line class="st9" x1="-171.4" y1="384.2" x2="-169.5" y2="384.5"/>
			<line class="st8" x1="-167.6" y1="384.8" x2="-167.6" y2="384.8"/>
		</g>
	</g>
	<g class="st2">
		<g>
			<line class="st8" x1="-182.7" y1="399" x2="-182.7" y2="399"/>
			<line class="st9" x1="-179.7" y1="401.6" x2="-178.3" y2="402.9"/>
			<line class="st8" x1="-176.8" y1="404.2" x2="-176.8" y2="404.2"/>
		</g>
	</g>
</g>
<g class="st0">
	<path class="st5" d="M-205,412.7c3.8,0,10.7-2,10.7-5.5c0-9.4,11.5-14.5,11.5-28.5c0-12.7-8.8-22.8-22.2-22.8
		c-13.4,0-22.2,10.1-22.2,22.7c0,14.1,11.5,19.1,11.5,28.5C-215.7,410.8-208.8,412.7-205,412.7z"/>
	<path class="st6" d="M-195,414.9c-2.8,2-6.2,2.8-9.9,2.8c-3.7,0-7.1-0.8-10-2.8"/>
	<path class="st6" d="M-195,420.2c-2.8,2-6.2,2.5-9.9,2.5c-3.7,0-7.1-0.5-10-2.5"/>
	<path class="st6" d="M-209.5,423c0,2.5,2,4.5,4.5,4.5s4.5-2,4.5-4.5"/>
	<path class="st7" d="M-207.6,361.5c-4.6,0.8-7.8,3.2-10.5,6.5"/>
</g>
<g class="st0">
	<path class="st2" d="M-205,419.2c-4.4,0-8-1-10.9-3.1c-0.7-0.5-0.8-1.4-0.3-2.1c0.5-0.7,1.4-0.8,2.1-0.3c2.4,1.7,5.3,2.5,9.1,2.5
		c3.7,0,6.7-0.8,9-2.5c0.7-0.5,1.6-0.3,2.1,0.3c0.5,0.7,0.3,1.6-0.3,2.1C-197,418.2-200.6,419.2-205,419.2z"/>
	<path class="st2" d="M-193.8,419.4c-0.5-0.7-1.4-0.8-2.1-0.3c-2.7,1.9-6.1,2.2-9,2.2c-4.2,0-6.9-0.7-9.1-2.3
		c-0.7-0.5-1.6-0.3-2.1,0.3c-0.5,0.7-0.3,1.6,0.3,2.1c1.6,1.1,3.2,1.8,4.9,2.2c0.3,3,2.9,5.4,6,5.4c3.1,0,5.7-2.4,6-5.4
		c1.7-0.4,3.3-1.1,4.8-2.2C-193.5,421-193.3,420-193.8,419.4z M-205,426c-1.3,0-2.3-0.8-2.8-1.9c0.9,0.1,1.9,0.1,2.8,0.1
		c0.9,0,1.8,0,2.8-0.1C-202.6,425.2-203.7,426-205,426z"/>
	<path class="st2" d="M-205,354.3c-13.8,0-23.7,10.2-23.7,24.3c0,8.2,3.7,13.5,6.9,18.1c2.5,3.6,4.6,6.7,4.6,10.4
		c0,4.9,8.1,7,12.2,7c4.1,0,12.2-2.1,12.2-7c0-3.8,2.2-6.9,4.6-10.4c3.2-4.6,6.9-9.9,6.9-18.1C-181.3,364.6-191.2,354.3-205,354.3z
		 M-207.4,363c-3.9,0.7-6.8,2.5-9.6,6c-0.3,0.4-0.7,0.6-1.2,0.6c-0.3,0-0.7-0.1-0.9-0.3c-0.6-0.5-0.8-1.5-0.2-2.1
		c3.2-4,6.8-6.3,11.4-7.1c0.8-0.1,1.6,0.4,1.7,1.2C-206,362.1-206.5,362.8-207.4,363z"/>
</g>
<g class="st0">
	<path class="st6" d="M-205,412.7c3.8,0,10.7-2,10.7-5.5c0-9.4,11.5-14.5,11.5-28.5c0-12.7-8.8-22.8-22.2-22.8
		c-13.4,0-22.2,10.1-22.2,22.7c0,14.1,11.5,19.1,11.5,28.5C-215.7,410.8-208.8,412.7-205,412.7z"/>
	<path class="st6" d="M-195,414.9c-2.8,2-6.2,2.8-9.9,2.8c-3.7,0-7.1-0.8-10-2.8"/>
	<path class="st6" d="M-195,420.2c-2.8,2-6.2,2.5-9.9,2.5c-3.7,0-7.1-0.5-10-2.5"/>
	<path class="st6" d="M-209.5,423c0,2.5,2,4.5,4.5,4.5s4.5-2,4.5-4.5"/>
	<path class="st6" d="M-207.6,361.5c-4.6,0.8-7.8,3.2-10.5,6.5"/>
</g>
<g class="st0">
	<g class="st2">
		<path d="M-205,354.3c-13.8,0-23.7,10.2-23.7,24.3c0,8.2,3.7,13.5,6.9,18.1c2.5,3.6,4.6,6.7,4.6,10.4c0,4.9,8.1,7,12.2,7
			c4.1,0,12.2-2.1,12.2-7c0-3.8,2.2-6.9,4.6-10.4c3.2-4.6,6.9-9.9,6.9-18.1C-181.3,364.6-191.2,354.3-205,354.3z M-190.6,395
			c-2.7,3.8-5.2,7.4-5.2,12.1c0,2-5.3,4-9.2,4c-3.9,0-9.2-2-9.2-4c0-4.7-2.5-8.3-5.2-12.1c-3.1-4.5-6.4-9.1-6.4-16.4
			c0-12.3,8.7-21.3,20.7-21.3c12,0,20.7,9,20.7,21.3C-184.3,385.9-187.5,390.5-190.6,395z"/>
		<path d="M-215.8,416.1c2.9,2.1,6.4,3.1,10.9,3.1c4.4,0,7.9-1,10.8-3.1c0.7-0.5,0.8-1.4,0.3-2.1c-0.5-0.7-1.4-0.8-2.1-0.3
			c-2.3,1.7-5.3,2.5-9,2.5c-3.8,0-6.7-0.8-9.1-2.5c-0.7-0.5-1.6-0.3-2.1,0.3C-216.7,414.7-216.5,415.6-215.8,416.1z"/>
		<path d="M-195.9,419c-2.7,1.9-6.1,2.2-9,2.2c-4.2,0-6.9-0.7-9.1-2.3c-0.7-0.5-1.6-0.3-2.1,0.3c-0.5,0.7-0.3,1.6,0.3,2.1
			c1.6,1.1,3.2,1.8,4.9,2.2c0.3,3,2.9,5.4,6,5.4c3.1,0,5.7-2.4,6-5.4c1.7-0.4,3.3-1.1,4.8-2.2c0.7-0.5,0.8-1.4,0.3-2.1
			C-194.3,418.5-195.3,418.5-195.9,419z M-205,426c-1.3,0-2.3-0.8-2.8-1.9c0.9,0.1,1.9,0.1,2.8,0.1c0.9,0,1.8,0,2.8-0.1
			C-202.6,425.2-203.7,426-205,426z"/>
		<path d="M-207.9,360c-4.6,0.8-8.2,3-11.4,7.1c-0.5,0.7-0.4,1.6,0.2,2.1c0.3,0.2,0.6,0.3,0.9,0.3c0.4,0,0.9-0.2,1.2-0.6
			c2.7-3.4,5.7-5.3,9.6-6c0.8-0.1,1.4-0.9,1.2-1.7C-206.3,360.4-207,359.9-207.9,360z"/>
	</g>
</g>
<g class="st0">
	<path class="st6" d="M-205,412.7c3.8,0,10.7-2,10.7-5.5c0-9.4,11.5-14.5,11.5-28.5c0-12.7-8.8-22.8-22.2-22.8
		c-13.4,0-22.2,10.1-22.2,22.7c0,14.1,11.5,19.1,11.5,28.5C-215.7,410.8-208.8,412.7-205,412.7z"/>
	<path class="st6" d="M-195,414.9c-2.8,2-6.2,2.8-9.9,2.8c-3.7,0-7.1-0.8-10-2.8"/>
	<path class="st6" d="M-195,420.2c-2.8,2-6.2,2.5-9.9,2.5c-3.7,0-7.1-0.5-10-2.5"/>
	<path class="st6" d="M-209.5,423c0,2.5,2,4.5,4.5,4.5s4.5-2,4.5-4.5"/>
	<path class="st6" d="M-207.6,361.5c-4.6,0.8-7.8,3.2-10.5,6.5"/>
	<g class="st2">
		<g>
			<line class="st8" x1="-205" y1="348.9" x2="-205" y2="348.9"/>
			<line class="st9" x1="-205" y1="344.9" x2="-205" y2="343"/>
			<line class="st8" x1="-205" y1="341" x2="-205" y2="341"/>
		</g>
	</g>
	<g class="st2">
		<g>
			<line class="st8" x1="-221.4" y1="353.7" x2="-221.4" y2="353.7"/>
			<line class="st9" x1="-223.5" y1="350.4" x2="-224.6" y2="348.8"/>
			<line class="st8" x1="-225.7" y1="347.1" x2="-225.7" y2="347.1"/>
		</g>
	</g>
	<g class="st2">
		<g>
			<line class="st8" x1="-232.4" y1="366.7" x2="-232.4" y2="366.7"/>
			<line class="st9" x1="-236" y1="365.1" x2="-237.8" y2="364.3"/>
			<line class="st8" x1="-239.6" y1="363.5" x2="-239.6" y2="363.5"/>
		</g>
	</g>
	<g class="st2">
		<g>
			<line class="st8" x1="-234.6" y1="383.6" x2="-234.6" y2="383.6"/>
			<line class="st9" x1="-238.5" y1="384.3" x2="-240.5" y2="384.6"/>
			<line class="st8" x1="-242.4" y1="384.9" x2="-242.4" y2="384.9"/>
		</g>
	</g>
	<g class="st2">
		<g>
			<line class="st8" x1="-227.3" y1="399" x2="-227.3" y2="399"/>
			<line class="st9" x1="-230.2" y1="401.7" x2="-231.7" y2="403"/>
			<line class="st8" x1="-233.1" y1="404.3" x2="-233.1" y2="404.3"/>
		</g>
	</g>
	<g class="st2">
		<g>
			<line class="st8" x1="-188.7" y1="353.7" x2="-188.7" y2="353.7"/>
			<line class="st9" x1="-186.5" y1="350.4" x2="-185.5" y2="348.7"/>
			<line class="st8" x1="-184.4" y1="347.1" x2="-184.4" y2="347.1"/>
		</g>
	</g>
	<g class="st2">
		<g>
			<line class="st8" x1="-177.6" y1="366.7" x2="-177.6" y2="366.7"/>
			<line class="st9" x1="-174" y1="365.1" x2="-172.2" y2="364.2"/>
			<line class="st8" x1="-170.4" y1="363.4" x2="-170.4" y2="363.4"/>
		</g>
	</g>
	<g class="st2">
		<g>
			<line class="st8" x1="-175.3" y1="383.6" x2="-175.3" y2="383.6"/>
			<line class="st9" x1="-171.4" y1="384.2" x2="-169.5" y2="384.5"/>
			<line class="st8" x1="-167.6" y1="384.8" x2="-167.6" y2="384.8"/>
		</g>
	</g>
	<g class="st2">
		<g>
			<line class="st8" x1="-182.7" y1="399" x2="-182.7" y2="399"/>
			<line class="st9" x1="-179.7" y1="401.6" x2="-178.3" y2="402.9"/>
			<line class="st8" x1="-176.8" y1="404.2" x2="-176.8" y2="404.2"/>
		</g>
	</g>
</g>
<g class="st0">
	<g class="st2">
		<path d="M-205,354.3c-13.8,0-23.7,10.2-23.7,24.3c0,8.2,3.7,13.5,6.9,18.1c2.5,3.6,4.6,6.7,4.6,10.4c0,4.9,8.1,7,12.2,7
			c4.1,0,12.2-2.1,12.2-7c0-3.8,2.2-6.9,4.6-10.4c3.2-4.6,6.9-9.9,6.9-18.1C-181.3,364.6-191.3,354.3-205,354.3z M-190.6,395
			c-2.7,3.8-5.2,7.4-5.2,12.1c0,2-5.3,4-9.2,4c-3.9,0-9.2-2-9.2-4c0-4.7-2.5-8.3-5.2-12.1c-3.1-4.5-6.4-9.1-6.4-16.4
			c0-12.3,8.7-21.3,20.7-21.3c12,0,20.7,9,20.7,21.3C-184.3,385.9-187.5,390.5-190.6,395z"/>
		<path d="M-215.8,416.1c2.9,2.1,6.4,3.1,10.9,3.1c4.4,0,7.9-1,10.8-3.1c0.7-0.5,0.8-1.4,0.3-2.1c-0.5-0.7-1.4-0.8-2.1-0.3
			c-2.3,1.7-5.3,2.5-9,2.5c-3.8,0-6.7-0.8-9.1-2.5c-0.7-0.5-1.6-0.3-2.1,0.3C-216.7,414.7-216.5,415.6-215.8,416.1z"/>
		<path d="M-195.9,419c-2.7,1.9-6.1,2.2-9,2.2c-4.2,0-6.9-0.7-9.1-2.3c-0.7-0.5-1.6-0.3-2.1,0.3c-0.5,0.7-0.3,1.6,0.3,2.1
			c1.6,1.1,3.2,1.8,4.9,2.2c0.3,3,2.9,5.4,6,5.4c3.1,0,5.7-2.4,6-5.4c1.7-0.4,3.3-1.1,4.8-2.2c0.7-0.5,0.8-1.4,0.3-2.1
			C-194.3,418.5-195.3,418.5-195.9,419z M-205,426c-1.3,0-2.3-0.8-2.8-1.9c0.9,0.1,1.9,0.1,2.8,0.1c0.9,0,1.8,0,2.8-0.1
			C-202.6,425.2-203.7,426-205,426z"/>
		<path d="M-207.9,360c-4.6,0.8-8.2,3-11.4,7.1c-0.5,0.7-0.4,1.6,0.2,2.1c0.3,0.2,0.6,0.3,0.9,0.3c0.4,0,0.9-0.2,1.2-0.6
			c2.7-3.4,5.7-5.3,9.6-6c0.8-0.1,1.4-0.9,1.2-1.7C-206.3,360.4-207.1,359.9-207.9,360z"/>
		<path d="M-207,348.9c0,0.5,0.2,1,0.6,1.4c0.4,0.4,0.9,0.6,1.4,0.6s1-0.2,1.4-0.6c0.4-0.4,0.6-0.9,0.6-1.4s-0.2-1.1-0.6-1.4
			c-0.3-0.3-0.8-0.5-1.2-0.5c1-0.1,1.8-0.9,1.8-2c0-1-0.7-1.8-1.7-2c0.4-0.1,0.8-0.3,1.1-0.6c0.3-0.4,0.6-0.9,0.6-1.4
			s-0.2-1-0.6-1.4c-0.7-0.8-2.1-0.8-2.8,0c-0.4,0.3-0.6,0.9-0.6,1.4s0.2,1,0.6,1.4c0.3,0.3,0.7,0.5,1.1,0.6c-1,0.1-1.7,1-1.7,2
			s0.8,1.9,1.8,2c-0.5,0-0.9,0.2-1.2,0.5C-206.8,347.8-207,348.3-207,348.9z"/>
		<path d="M-225.7,349.1c0.3,0,0.6-0.1,0.8-0.2c-0.7,0.6-0.9,1.7-0.3,2.6c0.4,0.6,1,0.9,1.7,0.9c0.3,0,0.6-0.1,0.9-0.2l-0.1,0.1
			c-0.4,0.4-0.6,0.9-0.6,1.4s0.2,1,0.6,1.4c0.4,0.4,0.9,0.6,1.4,0.6s1-0.2,1.4-0.6c0.4-0.4,0.6-0.9,0.6-1.4s-0.2-1-0.6-1.4
			c-0.6-0.6-1.5-0.7-2.3-0.4c0.7-0.6,0.9-1.7,0.4-2.6c-0.6-0.8-1.6-1.1-2.5-0.7c0,0,0.1,0,0.1-0.1c0.4-0.4,0.6-0.9,0.6-1.4
			s-0.2-1-0.6-1.4c-0.8-0.7-2.1-0.7-2.8,0c-0.4,0.4-0.6,0.9-0.6,1.4s0.2,1,0.6,1.4C-226.7,348.9-226.2,349.1-225.7,349.1z"/>
		<path d="M-239.6,365.5c0.5,0,1-0.2,1.4-0.6c0.1-0.1,0.2-0.2,0.3-0.3c-0.2,0.9,0.2,1.9,1.1,2.3c0.3,0.1,0.5,0.2,0.8,0.2
			c0.7,0,1.3-0.4,1.7-1c-0.1,0.2-0.1,0.4-0.1,0.6c0,0.5,0.2,1.1,0.6,1.4c0.4,0.4,0.9,0.6,1.4,0.6s1-0.2,1.4-0.6s0.6-0.9,0.6-1.4
			s-0.2-1-0.6-1.4c-0.8-0.8-2.1-0.8-2.8,0c-0.1,0.1-0.2,0.2-0.3,0.3c0.2-0.9-0.2-1.9-1.1-2.3c-0.9-0.4-2-0.1-2.5,0.7
			c0-0.2,0.1-0.3,0.1-0.5c0-0.5-0.2-1-0.6-1.4c-0.7-0.8-2.1-0.8-2.8,0c-0.4,0.4-0.6,0.9-0.6,1.4s0.2,1,0.6,1.4
			C-240.7,365.3-240.2,365.5-239.6,365.5z"/>
		<path d="M-234.7,385.6c0.5,0,1-0.2,1.4-0.6c0.4-0.4,0.6-0.9,0.6-1.4s-0.2-1-0.6-1.4c-0.8-0.7-2.1-0.7-2.8,0
			c-0.4,0.4-0.6,0.9-0.6,1.4c-0.3-0.9-1.2-1.5-2.2-1.3c-1,0.2-1.7,1-1.7,2c-0.1-0.3-0.3-0.6-0.5-0.8c-0.8-0.8-2.1-0.8-2.8,0
			c-0.4,0.4-0.6,0.9-0.6,1.4s0.2,1,0.6,1.4c0.4,0.4,0.9,0.6,1.4,0.6s1-0.2,1.4-0.6c0.4-0.4,0.6-0.8,0.6-1.4c0.3,0.8,1,1.3,1.9,1.3
			c0.1,0,0.2,0,0.3,0c1-0.2,1.7-1,1.7-2c0.1,0.3,0.3,0.6,0.5,0.8C-235.7,385.4-235.2,385.6-234.7,385.6z"/>
		<path d="M-228.7,397.6c-0.4,0.4-0.6,0.9-0.6,1.4c0,0.4,0.1,0.8,0.3,1.1c-0.8-0.6-1.8-0.6-2.6,0.1c-0.8,0.7-0.9,1.8-0.3,2.6
			c-0.8-0.6-2-0.6-2.7,0.1c-0.4,0.4-0.6,0.9-0.6,1.4s0.2,1,0.6,1.4c0.4,0.4,0.9,0.6,1.4,0.6s1-0.2,1.4-0.6c0.4-0.4,0.6-0.9,0.6-1.4
			c0-0.4-0.1-0.8-0.3-1.1c0.4,0.3,0.8,0.5,1.3,0.5s0.9-0.2,1.3-0.5c0.7-0.7,0.9-1.8,0.3-2.6c0.4,0.3,0.8,0.5,1.3,0.5s1-0.2,1.4-0.6
			c0.4-0.4,0.6-0.9,0.6-1.4s-0.2-1-0.6-1.4C-226.6,396.8-228,396.9-228.7,397.6z"/>
		<path d="M-188.7,355.7c0.5,0,1-0.2,1.4-0.6c0.4-0.4,0.6-0.9,0.6-1.4s-0.2-1-0.6-1.4l-0.1-0.1c0.3,0.1,0.6,0.2,0.9,0.2
			c0.7,0,1.3-0.3,1.7-0.9c0.5-0.8,0.4-1.9-0.4-2.6c0.3,0.1,0.5,0.2,0.8,0.2c0.5,0,1-0.2,1.4-0.6c0.4-0.4,0.6-0.9,0.6-1.4
			s-0.2-1-0.6-1.4c-0.7-0.8-2.1-0.8-2.8,0c-0.4,0.4-0.6,0.9-0.6,1.4s0.2,1,0.6,1.4c0,0,0.1,0,0.1,0.1c-0.9-0.4-1.9-0.1-2.5,0.7
			c-0.6,0.8-0.4,2,0.4,2.6c-0.7-0.3-1.7-0.2-2.3,0.4c-0.4,0.4-0.6,0.9-0.6,1.4s0.2,1,0.6,1.4C-189.7,355.5-189.2,355.7-188.7,355.7z
			"/>
		<path d="M-177.6,368.6c0.5,0,1-0.2,1.4-0.6c0.4-0.4,0.6-0.9,0.6-1.4c0-0.2,0-0.4-0.1-0.6c0.4,0.6,1,1,1.7,1c0.3,0,0.5,0,0.8-0.2
			c0.9-0.4,1.4-1.4,1.1-2.3c0.1,0.1,0.2,0.2,0.2,0.3c0.4,0.4,0.9,0.6,1.4,0.6s1-0.2,1.4-0.6c0.4-0.4,0.6-0.9,0.6-1.4s-0.2-1-0.6-1.4
			c-0.8-0.7-2.1-0.7-2.8,0c-0.4,0.4-0.6,0.9-0.6,1.4c0,0.2,0,0.4,0.1,0.5c-0.5-0.8-1.6-1.2-2.5-0.8c-0.9,0.4-1.4,1.4-1.1,2.3
			c-0.1-0.1-0.2-0.2-0.2-0.3c-0.8-0.8-2.1-0.8-2.8,0c-0.4,0.4-0.6,0.9-0.6,1.4s0.2,1,0.6,1.4C-178.6,368.4-178.1,368.6-177.6,368.6z
			"/>
		<path d="M-166.2,383.4c-0.7-0.8-2.1-0.8-2.8,0c-0.2,0.2-0.4,0.5-0.5,0.8c0-1-0.7-1.8-1.7-2c-1-0.2-1.9,0.4-2.2,1.4
			c0-0.5-0.2-1-0.6-1.4c-0.8-0.7-2.1-0.7-2.8,0c-0.4,0.4-0.6,0.9-0.6,1.4s0.2,1,0.6,1.4c0.4,0.4,0.9,0.6,1.4,0.6s1-0.2,1.4-0.6
			c0.2-0.2,0.4-0.5,0.5-0.8c0,1,0.7,1.8,1.7,2c0.1,0,0.2,0,0.3,0c0.9,0,1.6-0.5,1.9-1.3c0,0.5,0.2,1,0.6,1.4
			c0.4,0.4,0.9,0.6,1.4,0.6s1-0.2,1.4-0.6c0.4-0.4,0.6-0.9,0.6-1.4C-165.6,384.3-165.8,383.7-166.2,383.4z"/>
		<path d="M-178.1,402.7c0.6-0.8,0.5-1.9-0.3-2.6c-0.7-0.7-1.8-0.7-2.6-0.1c0.2-0.3,0.3-0.7,0.3-1.1c0-0.5-0.2-1-0.6-1.4
			c-0.7-0.7-2.1-0.7-2.8,0c-0.4,0.4-0.6,0.9-0.6,1.4s0.2,1,0.6,1.4c0.4,0.4,0.9,0.6,1.4,0.6s0.9-0.2,1.3-0.5
			c-0.5,0.8-0.4,1.9,0.3,2.6c0.4,0.3,0.9,0.5,1.3,0.5c0.4,0,0.9-0.2,1.3-0.5c-0.2,0.3-0.3,0.7-0.3,1.1c0,0.5,0.2,1,0.6,1.4
			c0.4,0.4,0.9,0.6,1.4,0.6s1-0.2,1.4-0.6c0.4-0.4,0.6-0.9,0.6-1.4s-0.2-1-0.6-1.4C-176.1,402.1-177.3,402.1-178.1,402.7z"/>
	</g>
</g>
<g class="st0">
	<line class="st6" x1="-205" y1="371" x2="-205" y2="405"/>
	<path class="st6" d="M-211.5,397.2c0.7,1,2.9,2.8,6.5,2.8c3.8,0,6.5-2.6,6.5-5.5c0-7.2-13-5.6-13-13c0-2.9,2.7-5.5,6.5-5.5
		c3.6,0,5.7,1.7,6.5,2.8"/>
</g>
<g class="st0">
	<line class="st6" x1="-202.5" y1="371" x2="-202.5" y2="405"/>
	<line class="st6" x1="-207.5" y1="371" x2="-207.5" y2="405"/>
	<path class="st6" d="M-211.5,397.2c0.7,1,2.9,2.8,6.5,2.8c3.8,0,6.5-2.6,6.5-5.5c0-7.2-13-5.6-13-13c0-2.9,2.7-5.5,6.5-5.5
		c3.6,0,5.7,1.7,6.5,2.8"/>
</g>
<g class="st0">
	<line class="st6" x1="-205" y1="371" x2="-205" y2="376"/>
	<line class="st6" x1="-205" y1="400" x2="-205" y2="405"/>
	<path class="st6" d="M-211.5,397.2c0.7,1,2.9,2.8,6.5,2.8c3.8,0,6.5-2.6,6.5-5.5c0-7.2-13-5.6-13-13c0-2.9,2.7-5.5,6.5-5.5
		c3.6,0,5.7,1.7,6.5,2.8"/>
</g>
<g class="st0">
	<path class="st6" d="M-198,398.9c-1,3.6-3.7,6.1-6.8,6.1l0,0c-4,0-7.2-4.2-7.2-9.3v-15.4c0-5.1,3.2-9.3,7.2-9.3l0,0
		c3.1,0,5.8,2.6,6.8,6.2"/>
	<line class="st6" x1="-215" y1="385.5" x2="-201" y2="385.5"/>
	<line class="st6" x1="-215" y1="390.5" x2="-201" y2="390.5"/>
</g>
<g class="st0">
	<path class="st7" d="M-198,398.9c-1,3.6-3.7,6.1-6.8,6.1l0,0c-4,0-7.2-4.2-7.2-9.3v-15.4c0-5.1,3.2-9.3,7.2-9.3l0,0
		c3.1,0,5.8,2.6,6.8,6.2"/>
	<line class="st10" x1="-215" y1="385.5" x2="-201" y2="385.5"/>
	<line class="st10" x1="-215" y1="390.5" x2="-201" y2="390.5"/>
</g>
<g class="st0">
	<path class="st6" d="M-198,398.9c-1,3.6-3.7,6.1-6.8,6.1l0,0c-4,0-7.2-4.2-7.2-9.3v-15.4c0-5.1,3.2-9.3,7.2-9.3l0,0
		c3.1,0,5.8,2.6,6.8,6.2"/>
	<line class="st6" x1="-212" y1="385.5" x2="-200" y2="385.5"/>
	<line class="st6" x1="-212" y1="390.5" x2="-200" y2="390.5"/>
</g>
<g class="st0">
	<path class="st6" d="M-198,393.5c0,3.6-3.1,6.5-7,6.5l0,0c-3.8,0-7-2.9-7-6.5v-11c0-3.6,3.1-6.5,7-6.5l0,0c3.8,0,7,2.9,7,6.5"/>
	<line class="st6" x1="-205" y1="371" x2="-205" y2="405"/>
</g>
<g class="st0">
	<path class="st6" d="M-198,393.5c0,3.6-3.1,6.5-7,6.5l0,0c-3.8,0-7-2.9-7-6.5v-11c0-3.6,3.1-6.5,7-6.5l0,0c3.8,0,7,2.9,7,6.5"/>
	<line class="st6" x1="-200.6" y1="371.6" x2="-209.4" y2="404.4"/>
</g>
<g class="st0">
	<path class="st6" d="M-198,393.5c0,3.6-3.1,6.5-7,6.5l0,0c-3.8,0-7-2.9-7-6.5v-11c0-3.6,3.1-6.5,7-6.5l0,0c3.8,0,7,2.9,7,6.5"/>
	<line class="st6" x1="-205" y1="371" x2="-205" y2="376"/>
	<line class="st6" x1="-205" y1="400" x2="-205" y2="405"/>
</g>
<g class="st0">
	<line class="st6" x1="-213.5" y1="388" x2="-201.5" y2="388"/>
	<path class="st11" d="M-198.9,402.2c0,2.2-0.9,2.8-2.1,2.8s-4.7-3.4-9.8,0c0,0,3.9-4.7,3.9-9.1c0-4.4-3.8-14.6-3.8-18.4
		c0-3.6,3-6.5,6.7-6.5c2.9,0,5.4,1.8,6.3,4.4"/>
</g>
<g class="st0">
	<line class="st6" x1="-213.5" y1="385.5" x2="-201.5" y2="385.5"/>
	<line class="st6" x1="-213.5" y1="390.5" x2="-201.5" y2="390.5"/>
	<path class="st11" d="M-198.9,402.2c0,2.2-0.9,2.8-2.1,2.8s-4.7-3.4-9.8,0c0,0,3.9-4.7,3.9-9.1c0-4.4-3.8-14.6-3.8-18.4
		c0-3.6,3-6.5,6.7-6.5c2.9,0,5.4,1.8,6.3,4.4"/>
</g>
<g class="st0">
	<path class="st6" d="M-197.5,399.9c-1,3-3.8,5.1-7.1,5.1c-4.1,0-7.5-3.4-7.5-7.5c0-4.4,3.1-6.5,7-9.5c3.9-3,7-5.1,7-9.5
		c0-4.1-3.3-7.5-7.5-7.5c-3.3,0-6.1,2.1-7.1,5.1"/>
	<line class="st6" x1="-214" y1="385.5" x2="-196" y2="385.5"/>
	<line class="st6" x1="-214" y1="390.5" x2="-196" y2="390.5"/>
</g>
<g class="st0">
	<line class="st6" x1="-215" y1="393" x2="-197" y2="393"/>
	<line class="st6" x1="-215" y1="388" x2="-210" y2="388"/>
	<path class="st11" d="M-210,405v-34h2.8c5.5,0,10.2,2.9,10.2,7.8c0,4.9-4.8,9.2-10.2,9.2h-2.8"/>
</g>
<g class="st0">
	<line class="st11" x1="-212" y1="376" x2="-212" y2="400"/>
	<path class="st11" d="M-210,388h5.1c5.9,0,8.9-2.2,8.9-6s-3-6-8.9-6h-7.1"/>
	<path class="st11" d="M-210,388h5.1c5.9,0,8.9,2.2,8.9,6s-3,6-8.9,6h-7.1"/>
	<line class="st6" x1="-205" y1="371" x2="-205" y2="376"/>
	<line class="st6" x1="-205" y1="400" x2="-205" y2="405"/>
</g>
<g class="st0">
	<line class="st11" x1="-210" y1="376" x2="-210" y2="400"/>
	<path class="st11" d="M-210,388h5.1c5.9,0,8.9-2.2,8.9-6s-3-6-8.9-6h-7.1"/>
	<path class="st11" d="M-210,388h5.1c5.9,0,8.9,2.2,8.9,6s-3,6-8.9,6h-7.1"/>
	<line class="st6" x1="-202.5" y1="371" x2="-202.5" y2="376"/>
	<line class="st6" x1="-202.5" y1="400" x2="-202.5" y2="405"/>
	<line class="st6" x1="-207.5" y1="371" x2="-207.5" y2="376"/>
	<line class="st6" x1="-207.5" y1="400" x2="-207.5" y2="405"/>
</g>
<g class="st0">
	<path class="st11" d="M-209,371v34c9.2,0,12-11.1,12-11.1"/>
	<line class="st6" x1="-213" y1="385" x2="-198" y2="380"/>
	<line class="st6" x1="-213" y1="390" x2="-198" y2="385"/>
</g>
<g class="st0">
	<line class="st6" x1="-212" y1="371" x2="-194" y2="371"/>
	<line class="st6" x1="-212" y1="376" x2="-194" y2="376"/>
	<path class="st11" d="M-212,371h2.8c5.5,0,10.2,3.6,10.2,8.5s-4.8,8.5-10.2,8.5h-2.8l12,17"/>
</g>
<g class="st0">
	<polyline class="st11" points="-197,371 -205,388 -213,371 	"/>
	<line class="st11" x1="-205" y1="388" x2="-205" y2="405"/>
	<line class="st6" x1="-212" y1="389.5" x2="-198" y2="389.5"/>
	<line class="st6" x1="-212" y1="394.5" x2="-198" y2="394.5"/>
</g>
<g class="st0">
	<polyline class="st11" points="-197,371 -205,388 -213,371 	"/>
	<line class="st11" x1="-205" y1="388" x2="-205" y2="405"/>
	<line class="st6" x1="-212" y1="389.5" x2="-198" y2="389.5"/>
</g>
<g class="st0">
	<line class="st11" x1="-212.5" y1="375" x2="-197.5" y2="375"/>
	<line class="st11" x1="-214" y1="381" x2="-196" y2="381"/>
	<path class="st11" d="M-208,381c0,0,0,8.9-6,12"/>
	<polyline class="st11" points="-202,381 -202,393 -197.5,393 -196,389 	"/>
</g>
<g class="st0">
	<line class="st11" x1="-214" y1="383" x2="-196" y2="383"/>
	<polyline class="st11" points="-214,393 -214,375 -196,375 -196,393 -200,393 	"/>
	<line class="st11" x1="-205" y1="375" x2="-205" y2="383"/>
</g>
<g class="st0">
	<path class="st11" d="M-214,393v-18h7c0,0,5,0,5,8v4"/>
	<path class="st11" d="M-196,375v11c0,0,0,7.2-6,7h-6v-12"/>
</g>
<g class="st0">
	<polyline class="st11" points="-214,371 -209.5,405 -205,374.5 -200.5,405 -196,371 	"/>
	<line class="st6" x1="-215" y1="385.5" x2="-195" y2="385.5"/>
	<line class="st6" x1="-215" y1="390.5" x2="-195" y2="390.5"/>
</g>
<g class="st0">
	<polyline class="st11" points="-188.5,363.5 -189.8,370.1 -195.2,367.6 -195.6,375.1 -201,375.5 -204.8,383.5 	"/>
</g>
<g class="st0">
	<path class="st6" d="M-205,398c0-8.3,8-13.9,8-18.8c0-4.6-3.7-8.2-8.2-8.2c-3.6,0-6.7,2.3-7.8,5.6"/>
	<circle class="st2" cx="-205" cy="404.5" r="2"/>
</g>
<g class="st0">
	<path class="st6" d="M-205,398c0-8.3,8-13.9,8-18.8c0-4.6-3.7-8.2-8.2-8.2c-3.6,0-6.7,2.3-7.8,5.6"/>
	<circle class="st2" cx="-205" cy="404.5" r="2"/>
</g>
<g class="st0">
	<g class="st2">
		<path d="M-205.2,369.5c-4.2,0-7.9,2.6-9.2,6.6c-0.3,0.8,0.2,1.6,0.9,1.9c0.8,0.3,1.6-0.2,1.9-0.9c0.9-2.7,3.5-4.5,6.4-4.5
			c3.7,0,6.7,3,6.7,6.7c0,1.6-1.4,3.7-2.9,6c-2.3,3.4-5.1,7.6-5.1,12.8c0,0.8,0.7,1.5,1.5,1.5c0.8,0,1.5-0.7,1.5-1.5
			c0-4.3,2.4-7.9,4.6-11.1c1.8-2.8,3.4-5.1,3.4-7.7C-195.5,373.9-199.9,369.5-205.2,369.5z"/>
		<circle cx="-205" cy="404.5" r="2"/>
		<path d="M-205,354.3c-13.8,0-23.7,10.2-23.7,24.3c0,8.2,3.7,13.5,6.9,18.1c2.5,3.6,4.6,6.7,4.6,10.4c0,4.9,8.1,7,12.2,7
			c4.1,0,12.2-2.1,12.2-7c0-3.8,2.2-6.9,4.6-10.4c3.2-4.6,6.9-9.9,6.9-18.1C-181.3,364.6-191.2,354.3-205,354.3z M-190.6,395
			c-2.7,3.8-5.2,7.4-5.2,12.1c0,2-5.3,4-9.2,4c-3.9,0-9.2-2-9.2-4c0-4.7-2.5-8.3-5.2-12.1c-3.1-4.5-6.4-9.1-6.4-16.4
			c0-12.3,8.7-21.3,20.7-21.3c12,0,20.7,9,20.7,21.3C-184.3,385.9-187.5,390.5-190.6,395z"/>
		<path d="M-215.8,416.1c2.9,2.1,6.4,3.1,10.9,3.1c4.4,0,7.9-1,10.8-3.1c0.7-0.5,0.8-1.4,0.3-2.1c-0.5-0.7-1.4-0.8-2.1-0.3
			c-2.3,1.7-5.3,2.5-9,2.5c-3.8,0-6.7-0.8-9.1-2.5c-0.7-0.5-1.6-0.3-2.1,0.3C-216.7,414.7-216.5,415.6-215.8,416.1z"/>
		<path d="M-195.9,419c-2.7,1.9-6.1,2.2-9,2.2c-4.2,0-6.9-0.7-9.1-2.3c-0.7-0.5-1.6-0.3-2.1,0.3c-0.5,0.7-0.3,1.6,0.3,2.1
			c1.6,1.1,3.2,1.8,4.9,2.2c0.3,3,2.9,5.4,6,5.4c3.1,0,5.7-2.4,6-5.4c1.7-0.4,3.3-1.1,4.8-2.2c0.7-0.5,0.8-1.4,0.3-2.1
			C-194.3,418.5-195.3,418.5-195.9,419z M-205,426c-1.3,0-2.3-0.8-2.8-1.9c0.9,0.1,1.9,0.1,2.8,0.1c0.9,0,1.8,0,2.8-0.1
			C-202.6,425.2-203.7,426-205,426z"/>
		<path d="M-206.1,361.3c-0.1-0.8-0.9-1.4-1.7-1.2c-4.6,0.8-8.2,3-11.4,7.1c-0.5,0.7-0.4,1.6,0.2,2.1c0.3,0.2,0.6,0.3,0.9,0.3
			c0.4,0,0.9-0.2,1.2-0.6c2.7-3.4,5.7-5.3,9.6-6C-206.5,362.8-206,362.1-206.1,361.3z"/>
	</g>
</g>
<g>
	<g>
		<path d="M-205.2,369.5c-4.2,0-7.9,2.6-9.2,6.6c-0.3,0.8,0.2,1.6,0.9,1.9c0.8,0.3,1.6-0.2,1.9-0.9c0.9-2.7,3.5-4.5,6.4-4.5
			c3.7,0,6.7,3,6.7,6.7c0,1.6-1.4,3.7-2.9,6c-2.3,3.4-5.1,7.6-5.1,12.8c0,0.8,0.7,1.5,1.5,1.5c0.8,0,1.5-0.7,1.5-1.5
			c0-4.3,2.4-7.9,4.6-11.1c1.8-2.8,3.4-5.1,3.4-7.7C-195.5,373.9-199.9,369.5-205.2,369.5z"/>
		<circle cx="-205" cy="404.5" r="2"/>
		<path d="M-205,354.3c-13.8,0-23.7,10.2-23.7,24.3c0,8.2,3.7,13.5,6.9,18.1c2.5,3.6,4.6,6.7,4.6,10.4c0,4.9,8.1,7,12.2,7
			c4.1,0,12.2-2.1,12.2-7c0-3.8,2.2-6.9,4.6-10.4c3.2-4.6,6.9-9.9,6.9-18.1C-181.3,364.6-191.2,354.3-205,354.3z M-190.6,395
			c-2.7,3.8-5.2,7.4-5.2,12.1c0,2-5.3,4-9.2,4c-3.9,0-9.2-2-9.2-4c0-4.7-2.5-8.3-5.2-12.1c-3.1-4.5-6.4-9.1-6.4-16.4
			c0-12.3,8.7-21.3,20.7-21.3c12,0,20.7,9,20.7,21.3C-184.3,385.9-187.5,390.5-190.6,395z"/>
		<path d="M-215.8,416.1c2.9,2.1,6.4,3.1,10.9,3.1c4.4,0,7.9-1,10.8-3.1c0.7-0.5,0.8-1.4,0.3-2.1c-0.5-0.7-1.4-0.8-2.1-0.3
			c-2.3,1.7-5.3,2.5-9,2.5c-3.8,0-6.7-0.8-9.1-2.5c-0.7-0.5-1.6-0.3-2.1,0.3C-216.7,414.7-216.5,415.6-215.8,416.1z"/>
		<path d="M-195.9,419c-2.7,1.9-6.1,2.2-9,2.2c-4.2,0-6.9-0.7-9.1-2.3c-0.7-0.5-1.6-0.3-2.1,0.3c-0.5,0.7-0.3,1.6,0.3,2.1
			c1.6,1.1,3.2,1.8,4.9,2.2c0.3,3,2.9,5.4,6,5.4c3.1,0,5.7-2.4,6-5.4c1.7-0.4,3.3-1.1,4.8-2.2c0.7-0.5,0.8-1.4,0.3-2.1
			C-194.3,418.5-195.3,418.5-195.9,419z M-205,426c-1.3,0-2.3-0.8-2.8-1.9c0.9,0.1,1.9,0.1,2.8,0.1c0.9,0,1.8,0,2.8-0.1
			C-202.6,425.2-203.7,426-205,426z"/>
		<path d="M-206.1,361.3c-0.1-0.8-0.9-1.4-1.7-1.2c-4.6,0.8-8.2,3-11.4,7.1c-0.5,0.7-0.4,1.6,0.2,2.1c0.3,0.2,0.6,0.3,0.9,0.3
			c0.4,0,0.9-0.2,1.2-0.6c2.7-3.4,5.7-5.3,9.6-6C-206.5,362.8-206,362.1-206.1,361.3z"/>
		<path d="M-207,348.9c0,0.5,0.2,1,0.6,1.4c0.4,0.4,0.9,0.6,1.4,0.6s1-0.2,1.4-0.6c0.4-0.4,0.6-0.9,0.6-1.4s-0.2-1.1-0.6-1.4
			c-0.3-0.3-0.8-0.5-1.2-0.5c1-0.1,1.8-0.9,1.8-2c0-1-0.7-1.8-1.7-2c0.4-0.1,0.8-0.3,1.1-0.6c0.4-0.4,0.6-0.9,0.6-1.4
			s-0.2-1-0.6-1.4c-0.7-0.8-2.1-0.8-2.8,0c-0.4,0.4-0.6,0.9-0.6,1.4s0.2,1,0.6,1.4c0.3,0.3,0.7,0.5,1.1,0.6c-1,0.1-1.7,1-1.7,2
			s0.8,1.9,1.8,2c-0.5,0-0.9,0.2-1.2,0.5C-206.8,347.8-207,348.3-207,348.9z"/>
		<path d="M-225.7,349.1c0.3,0,0.6-0.1,0.8-0.2c-0.7,0.6-0.9,1.7-0.3,2.6c0.4,0.6,1,0.9,1.7,0.9c0.3,0,0.6-0.1,0.9-0.2l-0.1,0.1
			c-0.4,0.4-0.6,0.9-0.6,1.4s0.2,1,0.6,1.4c0.4,0.4,0.9,0.6,1.4,0.6s1-0.2,1.4-0.6c0.4-0.4,0.6-0.9,0.6-1.4s-0.2-1-0.6-1.4
			c-0.6-0.6-1.5-0.7-2.3-0.4c0.7-0.6,0.9-1.7,0.4-2.6c-0.6-0.8-1.6-1.1-2.5-0.7c0,0,0.1,0,0.1-0.1c0.4-0.4,0.6-0.9,0.6-1.4
			s-0.2-1-0.6-1.4c-0.8-0.7-2.1-0.7-2.8,0c-0.4,0.4-0.6,0.9-0.6,1.4s0.2,1,0.6,1.4C-226.7,348.9-226.2,349.1-225.7,349.1z"/>
		<path d="M-239.6,365.5c0.5,0,1-0.2,1.4-0.6c0.1-0.1,0.2-0.2,0.3-0.3c-0.2,0.9,0.2,1.9,1.1,2.3c0.3,0.1,0.5,0.2,0.8,0.2
			c0.7,0,1.3-0.4,1.7-1c-0.1,0.2-0.1,0.4-0.1,0.6c0,0.5,0.2,1.1,0.6,1.4c0.4,0.4,0.9,0.6,1.4,0.6s1-0.2,1.4-0.6s0.6-0.9,0.6-1.4
			s-0.2-1-0.6-1.4c-0.8-0.8-2.1-0.8-2.8,0c-0.1,0.1-0.2,0.2-0.3,0.3c0.2-0.9-0.2-1.9-1.1-2.3c-0.9-0.4-2-0.1-2.5,0.7
			c0-0.2,0.1-0.3,0.1-0.5c0-0.5-0.2-1-0.6-1.4c-0.7-0.8-2.1-0.8-2.8,0c-0.4,0.4-0.6,0.9-0.6,1.4s0.2,1,0.6,1.4
			C-240.7,365.3-240.2,365.5-239.6,365.5z"/>
		<path d="M-234.7,385.6c0.5,0,1-0.2,1.4-0.6c0.4-0.4,0.6-0.9,0.6-1.4s-0.2-1-0.6-1.4c-0.8-0.7-2.1-0.7-2.8,0
			c-0.4,0.4-0.6,0.9-0.6,1.4c-0.3-0.9-1.2-1.5-2.2-1.3c-1,0.2-1.7,1-1.7,2c-0.1-0.3-0.3-0.6-0.5-0.8c-0.8-0.8-2.1-0.8-2.8,0
			c-0.4,0.4-0.6,0.9-0.6,1.4s0.2,1,0.6,1.4c0.4,0.4,0.9,0.6,1.4,0.6s1-0.2,1.4-0.6c0.4-0.4,0.6-0.8,0.6-1.4c0.3,0.8,1,1.3,1.9,1.3
			c0.1,0,0.2,0,0.3,0c1-0.2,1.7-1,1.7-2c0.1,0.3,0.3,0.6,0.5,0.8C-235.7,385.4-235.2,385.6-234.7,385.6z"/>
		<path d="M-228.7,397.6c-0.4,0.4-0.6,0.9-0.6,1.4c0,0.4,0.1,0.8,0.3,1.1c-0.8-0.6-1.8-0.6-2.6,0.1c-0.8,0.7-0.9,1.8-0.3,2.6
			c-0.8-0.6-2-0.6-2.7,0.1c-0.4,0.4-0.6,0.9-0.6,1.4s0.2,1,0.6,1.4c0.4,0.4,0.9,0.6,1.4,0.6s1-0.2,1.4-0.6c0.4-0.4,0.6-0.9,0.6-1.4
			c0-0.4-0.1-0.8-0.3-1.1c0.4,0.3,0.8,0.5,1.3,0.5s0.9-0.2,1.3-0.5c0.7-0.7,0.9-1.8,0.3-2.6c0.4,0.3,0.8,0.5,1.3,0.5s1-0.2,1.4-0.6
			c0.4-0.4,0.6-0.9,0.6-1.4s-0.2-1-0.6-1.4C-226.6,396.9-228,396.9-228.7,397.6z"/>
		<path d="M-188.7,355.7c0.5,0,1-0.2,1.4-0.6c0.4-0.4,0.6-0.9,0.6-1.4s-0.2-1-0.6-1.4l-0.1-0.1c0.3,0.1,0.6,0.2,0.9,0.2
			c0.7,0,1.3-0.3,1.7-0.9c0.5-0.8,0.4-1.9-0.4-2.6c0.3,0.1,0.5,0.2,0.8,0.2c0.5,0,1-0.2,1.4-0.6c0.4-0.4,0.6-0.9,0.6-1.4
			s-0.2-1-0.6-1.4c-0.7-0.8-2.1-0.8-2.8,0c-0.4,0.4-0.6,0.9-0.6,1.4s0.2,1,0.6,1.4c0,0,0.1,0,0.1,0.1c-0.9-0.4-1.9-0.1-2.5,0.7
			c-0.6,0.8-0.4,2,0.4,2.6c-0.7-0.3-1.7-0.2-2.3,0.4c-0.4,0.4-0.6,0.9-0.6,1.4s0.2,1,0.6,1.4C-189.7,355.5-189.2,355.7-188.7,355.7z
			"/>
		<path d="M-177.6,368.6c0.5,0,1-0.2,1.4-0.6c0.4-0.4,0.6-0.9,0.6-1.4c0-0.2,0-0.4-0.1-0.6c0.4,0.6,1,1,1.7,1c0.3,0,0.5,0,0.8-0.2
			c0.9-0.4,1.4-1.4,1.1-2.3c0.1,0.1,0.2,0.2,0.2,0.3c0.4,0.4,0.9,0.6,1.4,0.6s1-0.2,1.4-0.6c0.4-0.4,0.6-0.9,0.6-1.4s-0.2-1-0.6-1.4
			c-0.8-0.7-2.1-0.7-2.8,0c-0.4,0.4-0.6,0.9-0.6,1.4c0,0.2,0,0.4,0.1,0.5c-0.5-0.8-1.6-1.2-2.5-0.8c-0.9,0.4-1.4,1.4-1.1,2.3
			c-0.1-0.1-0.2-0.2-0.2-0.3c-0.8-0.8-2.1-0.8-2.8,0c-0.4,0.4-0.6,0.9-0.6,1.4s0.2,1,0.6,1.4C-178.6,368.4-178.1,368.6-177.6,368.6z
			"/>
		<path d="M-166.2,383.4c-0.7-0.8-2.1-0.8-2.8,0c-0.2,0.2-0.4,0.5-0.5,0.8c0-1-0.7-1.8-1.7-2c-1-0.2-1.9,0.4-2.2,1.4
			c0-0.5-0.2-1-0.6-1.4c-0.8-0.7-2.1-0.7-2.8,0c-0.4,0.4-0.6,0.9-0.6,1.4s0.2,1,0.6,1.4c0.4,0.4,0.9,0.6,1.4,0.6s1-0.2,1.4-0.6
			c0.2-0.2,0.4-0.5,0.5-0.8c0,1,0.7,1.8,1.7,2c0.1,0,0.2,0,0.3,0c0.9,0,1.6-0.5,1.9-1.3c0,0.5,0.2,1,0.6,1.4
			c0.4,0.4,0.9,0.6,1.4,0.6s1-0.2,1.4-0.6c0.4-0.4,0.6-0.9,0.6-1.4C-165.6,384.3-165.8,383.8-166.2,383.4z"/>
		<path d="M-178.1,402.7c0.6-0.8,0.5-1.9-0.3-2.6c-0.7-0.7-1.8-0.7-2.6-0.1c0.2-0.3,0.3-0.7,0.3-1.1c0-0.5-0.2-1-0.6-1.4
			c-0.7-0.7-2.1-0.7-2.8,0c-0.4,0.4-0.6,0.9-0.6,1.4s0.2,1,0.6,1.4c0.4,0.4,0.9,0.6,1.4,0.6s0.9-0.2,1.3-0.5
			c-0.5,0.8-0.4,1.9,0.3,2.6c0.4,0.3,0.9,0.5,1.3,0.5c0.4,0,0.9-0.2,1.3-0.5c-0.2,0.3-0.3,0.7-0.3,1.1c0,0.5,0.2,1,0.6,1.4
			c0.4,0.4,0.9,0.6,1.4,0.6s1-0.2,1.4-0.6c0.4-0.4,0.6-0.9,0.6-1.4s-0.2-1-0.6-1.4C-176.1,402.1-177.3,402.1-178.1,402.7z"/>
	</g>
</g>
<g class="st0">
	<circle class="st2" cx="-205" cy="404.5" r="2"/>
	<line class="st6" x1="-205" y1="398" x2="-205" y2="371"/>
</g>
<g class="st0">
	<g class="st2">
		<path d="M-215.8,416.1c2.9,2.1,6.4,3.1,10.9,3.1c4.4,0,7.9-1,10.8-3.1c0.7-0.5,0.8-1.4,0.3-2.1c-0.5-0.7-1.4-0.8-2.1-0.3
			c-2.3,1.7-5.3,2.5-9,2.5c-3.8,0-6.7-0.8-9.1-2.5c-0.7-0.5-1.6-0.3-2.1,0.3C-216.7,414.7-216.5,415.6-215.8,416.1z"/>
		<path d="M-193.8,419.4c-0.5-0.7-1.4-0.8-2.1-0.3c-2.7,1.9-6.1,2.2-9,2.2c-4.2,0-6.9-0.7-9.1-2.3c-0.7-0.5-1.6-0.3-2.1,0.3
			c-0.5,0.7-0.3,1.6,0.3,2.1c1.6,1.1,3.2,1.8,4.9,2.2c0.3,3,2.9,5.4,6,5.4c3.1,0,5.7-2.4,6-5.4c1.7-0.4,3.3-1.1,4.8-2.2
			C-193.5,421-193.3,420-193.8,419.4z M-205,426c-1.3,0-2.3-0.8-2.8-1.9c0.9,0.1,1.9,0.1,2.8,0.1c0.9,0,1.8,0,2.8-0.1
			C-202.6,425.2-203.7,426-205,426z"/>
	</g>
	<path class="st2" d="M-205,354.3c-13.8,0-23.7,10.2-23.7,24.3c0,8.2,3.7,13.5,6.9,18.1c2.5,3.6,4.6,6.7,4.6,10.4
		c0,4.9,8.1,7,12.2,7c4.1,0,12.2-2.1,12.2-7c0-3.8,2.2-6.9,4.6-10.4c3.2-4.6,6.9-9.9,6.9-18.1C-181.3,364.6-191.2,354.3-205,354.3z
		 M-205,369.5c0.8,0,1.5,0.7,1.5,1.5v27c0,0.8-0.7,1.5-1.5,1.5s-1.5-0.7-1.5-1.5v-27C-206.5,370.2-205.8,369.5-205,369.5z
		 M-216.9,368.9c-0.3,0.4-0.7,0.6-1.2,0.6c-0.3,0-0.7-0.1-0.9-0.3c-0.6-0.5-0.8-1.5-0.2-2.1c3.2-4,6.8-6.3,11.4-7.1
		c0.8-0.1,1.6,0.4,1.7,1.2c0.1,0.8-0.4,1.6-1.2,1.7C-211.3,363.7-214.2,365.5-216.9,368.9z M-205,406.5c-1.1,0-2-0.9-2-2s0.9-2,2-2
		c1.1,0,2,0.9,2,2S-203.9,406.5-205,406.5z"/>
</g>
<g class="st0">
	<g class="st2">
		<circle cx="-205" cy="404.5" r="2"/>
		<path d="M-206.5,398c0,0.8,0.7,1.5,1.5,1.5s1.5-0.7,1.5-1.5v-27c0-0.8-0.7-1.5-1.5-1.5s-1.5,0.7-1.5,1.5V398z"/>
		<path d="M-205,354.3c-13.8,0-23.7,10.2-23.7,24.3c0,8.2,3.7,13.5,6.9,18.1c2.5,3.6,4.6,6.7,4.6,10.4c0,4.9,8.1,7,12.2,7
			c4.1,0,12.2-2.1,12.2-7c0-3.8,2.2-6.9,4.6-10.4c3.2-4.6,6.9-9.9,6.9-18.1C-181.3,364.6-191.2,354.3-205,354.3z M-190.6,395
			c-2.7,3.8-5.2,7.4-5.2,12.1c0,2-5.3,4-9.2,4c-3.9,0-9.2-2-9.2-4c0-4.7-2.5-8.3-5.2-12.1c-3.1-4.5-6.4-9.1-6.4-16.4
			c0-12.3,8.7-21.3,20.7-21.3c12,0,20.7,9,20.7,21.3C-184.3,385.9-187.5,390.5-190.6,395z"/>
		<path d="M-215.8,416.1c2.9,2.1,6.4,3.1,10.9,3.1c4.4,0,7.9-1,10.8-3.1c0.7-0.5,0.8-1.4,0.3-2.1c-0.5-0.7-1.4-0.8-2.1-0.3
			c-2.3,1.7-5.3,2.5-9,2.5c-3.8,0-6.7-0.8-9.1-2.5c-0.7-0.5-1.6-0.3-2.1,0.3C-216.7,414.7-216.5,415.6-215.8,416.1z"/>
		<path d="M-195.9,419c-2.7,1.9-6.1,2.2-9,2.2c-4.2,0-6.9-0.7-9.1-2.3c-0.7-0.5-1.6-0.3-2.1,0.3c-0.5,0.7-0.3,1.6,0.3,2.1
			c1.6,1.1,3.2,1.8,4.9,2.2c0.3,3,2.9,5.4,6,5.4c3.1,0,5.7-2.4,6-5.4c1.7-0.4,3.3-1.1,4.8-2.2c0.7-0.5,0.8-1.4,0.3-2.1
			C-194.3,418.5-195.3,418.5-195.9,419z M-205,426c-1.3,0-2.3-0.8-2.8-1.9c0.9,0.1,1.9,0.1,2.8,0.1c0.9,0,1.8,0,2.8-0.1
			C-202.6,425.2-203.7,426-205,426z"/>
		<path d="M-206.1,361.3c-0.1-0.8-0.9-1.4-1.7-1.2c-4.6,0.8-8.2,3-11.4,7.1c-0.5,0.7-0.4,1.6,0.2,2.1c0.3,0.2,0.6,0.3,0.9,0.3
			c0.4,0,0.9-0.2,1.2-0.6c2.7-3.4,5.7-5.3,9.6-6C-206.5,362.8-206,362.1-206.1,361.3z"/>
	</g>
</g>
<g class="st0">
	<g class="st2">
		<circle cx="-205" cy="404.5" r="2"/>
		<path d="M-206.5,398c0,0.8,0.7,1.5,1.5,1.5s1.5-0.7,1.5-1.5v-27c0-0.8-0.7-1.5-1.5-1.5s-1.5,0.7-1.5,1.5V398z"/>
		<path d="M-205,354.3c-13.8,0-23.7,10.2-23.7,24.3c0,8.2,3.7,13.5,6.9,18.1c2.5,3.6,4.6,6.7,4.6,10.4c0,4.9,8.1,7,12.2,7
			c4.1,0,12.2-2.1,12.2-7c0-3.8,2.2-6.9,4.6-10.4c3.2-4.6,6.9-9.9,6.9-18.1C-181.3,364.6-191.2,354.3-205,354.3z M-190.6,395
			c-2.7,3.8-5.2,7.4-5.2,12.1c0,2-5.3,4-9.2,4c-3.9,0-9.2-2-9.2-4c0-4.7-2.5-8.3-5.2-12.1c-3.1-4.5-6.4-9.1-6.4-16.4
			c0-12.3,8.7-21.3,20.7-21.3c12,0,20.7,9,20.7,21.3C-184.3,385.9-187.5,390.5-190.6,395z"/>
		<path d="M-215.8,416.1c2.9,2.1,6.4,3.1,10.9,3.1c4.4,0,7.9-1,10.8-3.1c0.7-0.5,0.8-1.4,0.3-2.1c-0.5-0.7-1.4-0.8-2.1-0.3
			c-2.3,1.7-5.3,2.5-9,2.5c-3.8,0-6.7-0.8-9.1-2.5c-0.7-0.5-1.6-0.3-2.1,0.3C-216.7,414.7-216.5,415.6-215.8,416.1z"/>
		<path d="M-195.9,419c-2.7,1.9-6.1,2.2-9,2.2c-4.2,0-6.9-0.7-9.1-2.3c-0.7-0.5-1.6-0.3-2.1,0.3c-0.5,0.7-0.3,1.6,0.3,2.1
			c1.6,1.1,3.2,1.8,4.9,2.2c0.3,3,2.9,5.4,6,5.4c3.1,0,5.7-2.4,6-5.4c1.7-0.4,3.3-1.1,4.8-2.2c0.7-0.5,0.8-1.4,0.3-2.1
			C-194.3,418.5-195.3,418.5-195.9,419z M-205,426c-1.3,0-2.3-0.8-2.8-1.9c0.9,0.1,1.9,0.1,2.8,0.1c0.9,0,1.8,0,2.8-0.1
			C-202.6,425.2-203.7,426-205,426z"/>
		<path d="M-206.1,361.3c-0.1-0.8-0.9-1.4-1.7-1.2c-4.6,0.8-8.2,3-11.4,7.1c-0.5,0.7-0.4,1.6,0.2,2.1c0.3,0.2,0.6,0.3,0.9,0.3
			c0.4,0,0.9-0.2,1.2-0.6c2.7-3.4,5.7-5.3,9.6-6C-206.5,362.8-206,362.1-206.1,361.3z"/>
		<path d="M-207,348.9c0,0.5,0.2,1,0.6,1.4c0.4,0.4,0.9,0.6,1.4,0.6s1-0.2,1.4-0.6c0.4-0.4,0.6-0.9,0.6-1.4s-0.2-1.1-0.6-1.4
			c-0.3-0.3-0.8-0.5-1.2-0.5c1-0.1,1.8-0.9,1.8-2c0-1-0.7-1.8-1.7-2c0.4-0.1,0.8-0.3,1.1-0.6c0.4-0.4,0.6-0.9,0.6-1.4
			s-0.2-1-0.6-1.4c-0.7-0.8-2.1-0.8-2.8,0c-0.4,0.4-0.6,0.9-0.6,1.4s0.2,1,0.6,1.4c0.3,0.3,0.7,0.5,1.1,0.6c-1,0.1-1.7,1-1.7,2
			s0.8,1.9,1.8,2c-0.5,0-0.9,0.2-1.2,0.5C-206.8,347.8-207,348.3-207,348.9z"/>
		<path d="M-225.7,349.1c0.3,0,0.6-0.1,0.8-0.2c-0.7,0.6-0.9,1.7-0.3,2.6c0.4,0.6,1,0.9,1.7,0.9c0.3,0,0.6-0.1,0.9-0.2l-0.1,0.1
			c-0.4,0.4-0.6,0.9-0.6,1.4s0.2,1,0.6,1.4c0.4,0.4,0.9,0.6,1.4,0.6s1-0.2,1.4-0.6c0.4-0.4,0.6-0.9,0.6-1.4s-0.2-1-0.6-1.4
			c-0.6-0.6-1.5-0.7-2.3-0.4c0.7-0.6,0.9-1.7,0.4-2.6c-0.6-0.8-1.6-1.1-2.5-0.7c0,0,0.1,0,0.1-0.1c0.4-0.4,0.6-0.9,0.6-1.4
			s-0.2-1-0.6-1.4c-0.8-0.7-2.1-0.7-2.8,0c-0.4,0.4-0.6,0.9-0.6,1.4s0.2,1,0.6,1.4C-226.7,348.9-226.2,349.1-225.7,349.1z"/>
		<path d="M-239.6,365.5c0.5,0,1-0.2,1.4-0.6c0.1-0.1,0.2-0.2,0.3-0.3c-0.2,0.9,0.2,1.9,1.1,2.3c0.3,0.1,0.5,0.2,0.8,0.2
			c0.7,0,1.3-0.4,1.7-1c-0.1,0.2-0.1,0.4-0.1,0.6c0,0.5,0.2,1.1,0.6,1.4c0.4,0.4,0.9,0.6,1.4,0.6s1-0.2,1.4-0.6s0.6-0.9,0.6-1.4
			s-0.2-1-0.6-1.4c-0.8-0.8-2.1-0.8-2.8,0c-0.1,0.1-0.2,0.2-0.3,0.3c0.2-0.9-0.2-1.9-1.1-2.3c-0.9-0.4-2-0.1-2.5,0.7
			c0-0.2,0.1-0.3,0.1-0.5c0-0.5-0.2-1-0.6-1.4c-0.7-0.8-2.1-0.8-2.8,0c-0.4,0.4-0.6,0.9-0.6,1.4s0.2,1,0.6,1.4
			C-240.7,365.3-240.2,365.5-239.6,365.5z"/>
		<path d="M-234.7,385.6c0.5,0,1-0.2,1.4-0.6c0.4-0.4,0.6-0.9,0.6-1.4s-0.2-1-0.6-1.4c-0.8-0.7-2.1-0.7-2.8,0
			c-0.4,0.4-0.6,0.9-0.6,1.4c-0.3-0.9-1.2-1.5-2.2-1.3c-1,0.2-1.7,1-1.7,2c-0.1-0.3-0.3-0.6-0.5-0.8c-0.8-0.8-2.1-0.8-2.8,0
			c-0.4,0.4-0.6,0.9-0.6,1.4s0.2,1,0.6,1.4c0.4,0.4,0.9,0.6,1.4,0.6s1-0.2,1.4-0.6c0.4-0.4,0.6-0.8,0.6-1.4c0.3,0.8,1,1.3,1.9,1.3
			c0.1,0,0.2,0,0.3,0c1-0.2,1.7-1,1.7-2c0.1,0.3,0.3,0.6,0.5,0.8C-235.7,385.4-235.2,385.6-234.7,385.6z"/>
		<path d="M-228.7,397.6c-0.4,0.4-0.6,0.9-0.6,1.4c0,0.4,0.1,0.8,0.3,1.1c-0.8-0.6-1.8-0.6-2.6,0.1c-0.8,0.7-0.9,1.8-0.3,2.6
			c-0.8-0.6-2-0.6-2.7,0.1c-0.4,0.4-0.6,0.9-0.6,1.4s0.2,1,0.6,1.4c0.4,0.4,0.9,0.6,1.4,0.6s1-0.2,1.4-0.6c0.4-0.4,0.6-0.9,0.6-1.4
			c0-0.4-0.1-0.8-0.3-1.1c0.4,0.3,0.8,0.5,1.3,0.5s0.9-0.2,1.3-0.5c0.7-0.7,0.9-1.8,0.3-2.6c0.4,0.3,0.8,0.5,1.3,0.5s1-0.2,1.4-0.6
			c0.4-0.4,0.6-0.9,0.6-1.4s-0.2-1-0.6-1.4C-226.6,396.9-228,396.9-228.7,397.6z"/>
		<path d="M-188.7,355.7c0.5,0,1-0.2,1.4-0.6c0.4-0.4,0.6-0.9,0.6-1.4s-0.2-1-0.6-1.4l-0.1-0.1c0.3,0.1,0.6,0.2,0.9,0.2
			c0.7,0,1.3-0.3,1.7-0.9c0.5-0.8,0.4-1.9-0.4-2.6c0.3,0.1,0.5,0.2,0.8,0.2c0.5,0,1-0.2,1.4-0.6c0.4-0.4,0.6-0.9,0.6-1.4
			s-0.2-1-0.6-1.4c-0.7-0.8-2.1-0.8-2.8,0c-0.4,0.4-0.6,0.9-0.6,1.4s0.2,1,0.6,1.4c0,0,0.1,0,0.1,0.1c-0.9-0.4-1.9-0.1-2.5,0.7
			c-0.6,0.8-0.4,2,0.4,2.6c-0.7-0.3-1.7-0.2-2.3,0.4c-0.4,0.4-0.6,0.9-0.6,1.4s0.2,1,0.6,1.4C-189.7,355.5-189.2,355.7-188.7,355.7z
			"/>
		<path d="M-177.6,368.6c0.5,0,1-0.2,1.4-0.6c0.4-0.4,0.6-0.9,0.6-1.4c0-0.2,0-0.4-0.1-0.6c0.4,0.6,1,1,1.7,1c0.3,0,0.5,0,0.8-0.2
			c0.9-0.4,1.4-1.4,1.1-2.3c0.1,0.1,0.2,0.2,0.2,0.3c0.4,0.4,0.9,0.6,1.4,0.6s1-0.2,1.4-0.6c0.4-0.4,0.6-0.9,0.6-1.4s-0.2-1-0.6-1.4
			c-0.8-0.7-2.1-0.7-2.8,0c-0.4,0.4-0.6,0.9-0.6,1.4c0,0.2,0,0.4,0.1,0.5c-0.5-0.8-1.6-1.2-2.5-0.8c-0.9,0.4-1.4,1.4-1.1,2.3
			c-0.1-0.1-0.2-0.2-0.2-0.3c-0.8-0.8-2.1-0.8-2.8,0c-0.4,0.4-0.6,0.9-0.6,1.4s0.2,1,0.6,1.4C-178.6,368.4-178.1,368.6-177.6,368.6z
			"/>
		<path d="M-166.2,383.4c-0.7-0.8-2.1-0.8-2.8,0c-0.2,0.2-0.4,0.5-0.5,0.8c0-1-0.7-1.8-1.7-2c-1-0.2-1.9,0.4-2.2,1.4
			c0-0.5-0.2-1-0.6-1.4c-0.8-0.7-2.1-0.7-2.8,0c-0.4,0.4-0.6,0.9-0.6,1.4s0.2,1,0.6,1.4c0.4,0.4,0.9,0.6,1.4,0.6s1-0.2,1.4-0.6
			c0.2-0.2,0.4-0.5,0.5-0.8c0,1,0.7,1.8,1.7,2c0.1,0,0.2,0,0.3,0c0.9,0,1.6-0.5,1.9-1.3c0,0.5,0.2,1,0.6,1.4
			c0.4,0.4,0.9,0.6,1.4,0.6s1-0.2,1.4-0.6c0.4-0.4,0.6-0.9,0.6-1.4C-165.6,384.3-165.8,383.8-166.2,383.4z"/>
		<path d="M-178.1,402.7c0.6-0.8,0.5-1.9-0.3-2.6c-0.7-0.7-1.8-0.7-2.6-0.1c0.2-0.3,0.3-0.7,0.3-1.1c0-0.5-0.2-1-0.6-1.4
			c-0.7-0.7-2.1-0.7-2.8,0c-0.4,0.4-0.6,0.9-0.6,1.4s0.2,1,0.6,1.4c0.4,0.4,0.9,0.6,1.4,0.6s0.9-0.2,1.3-0.5
			c-0.5,0.8-0.4,1.9,0.3,2.6c0.4,0.3,0.9,0.5,1.3,0.5c0.4,0,0.9-0.2,1.3-0.5c-0.2,0.3-0.3,0.7-0.3,1.1c0,0.5,0.2,1,0.6,1.4
			c0.4,0.4,0.9,0.6,1.4,0.6s1-0.2,1.4-0.6c0.4-0.4,0.6-0.9,0.6-1.4s-0.2-1-0.6-1.4C-176.1,402.1-177.3,402.1-178.1,402.7z"/>
	</g>
</g>
<g class="st0">
	<path class="st11" d="M-215,398"/>
	<polyline class="st11" points="-195.6,376 -205.6,400 -212.4,393.2 	"/>
</g>
<g class="st0">
	<path class="st11" d="M-215,398"/>
	<line class="st11" x1="-211.9" y1="376" x2="-200.4" y2="396"/>
	<line class="st11" x1="-195.2" y1="371" x2="-211.9" y2="400"/>
</g>
<g class="st0">
	<g class="st2">
		<polyline class="st12" points="-203.4,373.9 -205,369.5 -206.6,373.9 		"/>
		<polyline class="st12" points="-211.1,375.7 -215.3,373.7 -213.3,377.9 		"/>
		<polyline class="st12" points="-196.8,378 -194.7,373.7 -199,375.7 		"/>
		<polyline class="st12" points="-194.9,385.6 -190.5,384 -194.9,382.4 		"/>
		<polyline class="st12" points="-199,392.3 -194.7,394.3 -196.8,390 		"/>
		<polyline class="st12" points="-206.6,394.1 -205,398.5 -203.4,394.1 		"/>
		<polyline class="st12" points="-213.3,390.1 -215.3,394.3 -211.1,392.3 		"/>
		<polyline class="st12" points="-215.2,382.5 -219.5,384 -215.2,385.5 		"/>
	</g>
	<circle class="st11" cx="-205" cy="384" r="6"/>
</g>
<g class="st0">
	<path class="st11" d="M-204.9,411.3c0,0-3.4-18.6,6.8-32"/>
	<path class="st11" d="M-205.4,405.5c0,0-7.7-13.1-2.1-24c5.7-11,15.6-12,15.6-12s2.9,10.7-2,20.5
		C-197.5,397.1-205.4,405.5-205.4,405.5z"/>
	<path class="st11" d="M-207.5,381.5c0,0-3.8-5.1-11.4-3.4c-1.5,10.9,8.8,21.5,12.2,24.7"/>
	<path class="st11" d="M-213.6,383.5c0,0,2.1,1.5,4,7.6"/>
</g>
<g class="st0">
	<line class="st6" x1="-207" y1="383.3" x2="-207" y2="412.3"/>
	<line class="st6" x1="-203" y1="412.3" x2="-203" y2="383.3"/>
	
		<ellipse transform="matrix(-0.342 0.9397 -0.9397 -0.342 78.8356 688.4716)" class="st6" cx="-201.6" cy="371.8" rx="10" ry="2.4"/>
	
		<ellipse transform="matrix(-0.6428 -0.766 0.766 -0.6428 -623.9689 486.2107)" class="st5" cx="-198.6" cy="388.6" rx="10" ry="2.4"/>
	
		<ellipse transform="matrix(0.9848 -0.1736 0.1736 0.9848 -69.7229 -31.4611)" class="st6" cx="-214.7" cy="382.8" rx="10" ry="2.4"/>
	<circle class="st5" cx="-205" cy="381.1" r="4"/>
	<circle class="st5" cx="-205" cy="381.1" r="4"/>
</g>
<g class="st0">
	<ellipse class="st11" cx="-205" cy="386" rx="6.3" ry="16"/>
	<g class="st2">
		<circle cx="-205" cy="401.9" r="3"/>
		<path d="M-205,399.9c1.1,0,2,0.9,2,2c0,1.1-0.9,2-2,2c-1.1,0-2-0.9-2-2C-207,400.8-206.1,399.9-205,399.9 M-205,397.9
			c-2.2,0-4,1.8-4,4c0,2.2,1.8,4,4,4s4-1.8,4-4C-201,399.7-202.8,397.9-205,397.9L-205,397.9z"/>
	</g>
	<circle class="st2" cx="-205" cy="386" r="2.8"/>
	<ellipse transform="matrix(-0.866 -0.5 0.5 -0.866 -575.449 617.7574)" class="st11" cx="-205" cy="386" rx="16" ry="6.3"/>
	<g class="st2">
		<path d="M-218.8,381c-0.5,0-1-0.1-1.5-0.4c-1.4-0.8-1.9-2.7-1.1-4.1c0.5-0.9,1.5-1.5,2.6-1.5c0.5,0,1,0.1,1.5,0.4
			c0.7,0.4,1.2,1,1.4,1.8c0.2,0.8,0.1,1.6-0.3,2.3C-216.8,380.4-217.7,381-218.8,381L-218.8,381z"/>
		<path d="M-218.8,376c0.3,0,0.7,0.1,1,0.3c1,0.6,1.3,1.8,0.7,2.7c-0.4,0.6-1,1-1.7,1c-0.3,0-0.7-0.1-1-0.3c-1-0.6-1.3-1.8-0.7-2.7
			C-220.2,376.3-219.5,376-218.8,376 M-218.8,374c-1.4,0-2.8,0.8-3.5,2c-0.5,0.9-0.7,2-0.4,3s0.9,1.9,1.9,2.4c0.6,0.4,1.3,0.5,2,0.5
			c1.4,0,2.8-0.8,3.5-2c0.5-0.9,0.7-2,0.4-3s-0.9-1.9-1.9-2.4C-217.4,374.2-218.1,374-218.8,374L-218.8,374z"/>
	</g>
	<circle class="st2" cx="-205" cy="386" r="2.8"/>
	<ellipse transform="matrix(0.866 -0.5 0.5 0.866 -220.4629 -50.81)" class="st11" cx="-205" cy="386" rx="16" ry="6.3"/>
	<g class="st2">
		<path d="M-191.2,381c-1.1,0-2.1-0.6-2.6-1.5c-0.8-1.4-0.3-3.3,1.1-4.1c0.5-0.3,1-0.4,1.5-0.4c1.1,0,2.1,0.6,2.6,1.5
			c0.8,1.4,0.3,3.3-1.1,4.1C-190.1,380.8-190.7,381-191.2,381L-191.2,381z"/>
		<path d="M-191.2,376c0.7,0,1.4,0.4,1.7,1c0.6,1,0.2,2.2-0.7,2.7c-0.3,0.2-0.7,0.3-1,0.3c-0.7,0-1.4-0.4-1.7-1
			c-0.6-1-0.2-2.2,0.7-2.7C-191.9,376.1-191.5,376-191.2,376 M-191.2,374c-0.7,0-1.4,0.2-2,0.5c-0.9,0.5-1.6,1.4-1.9,2.4
			c-0.3,1-0.1,2.1,0.4,3c0.7,1.2,2,2,3.5,2c0.7,0,1.4-0.2,2-0.5c0.9-0.5,1.6-1.4,1.9-2.4s0.1-2.1-0.4-3
			C-188.4,374.7-189.8,374-191.2,374L-191.2,374z"/>
	</g>
	<circle class="st2" cx="-205" cy="386" r="2"/>
</g>
<g class="st0">
	<polygon class="st11" points="-207.6,369.5 -196,392.3 -205.1,389.9 -201.5,405.5 -214,382.8 -206.1,383.3 	"/>
</g>
<g class="st0">
	<polyline class="st11" points="-201,397.1 -203.5,403.5 -209,399.2 	"/>
	<polyline class="st11" points="-203.5,403.5 -209,383 -202,388.6 -207.1,369.5 	"/>
</g>
<g class="st0">
	<path class="st11" d="M-193.7,384.4c3.1,5.4,0.6,9.8-5.7,9.8h-5.6"/>
	<path class="st11" d="M-210.7,374.5c3.1-5.4,8.2-5.4,11.3,0l2.7,4.7"/>
	<path class="st11" d="M-210.7,394.2c-6.2,0-8.8-4.4-5.7-9.8l3-5.1"/>
	<polyline class="st11" points="-201.6,390.8 -204.9,394.2 -201.6,397.5 	"/>
	<polyline class="st11" points="-201.1,377.8 -196.6,379.2 -195.2,374.7 	"/>
	<polyline class="st11" points="-217.9,380.7 -213.4,379.2 -212,383.7 	"/>
</g>
<g class="st0">
	<path class="st6" d="M-212,378c0-1.8-1.5-3.3-3.3-3.3c-1.8,0-3.3,1.5-3.3,3.3v10.2c0,1.8,1.5,3.3,3.3,3.3c1.8,0,3.3-1.5,3.3-3.3
		V378z"/>
	<path class="st6" d="M-205.4,381v-5.5c0-1.8-1.5-3.3-3.3-3.3s-3.3,1.5-3.3,3.3v10.2c0,1.8,1.5,3.3,3.3,3.3c1.7,0,3.1-1.3,3.2-2.9"
		/>
	<path class="st6" d="M-198.9,381v-7.9c0-1.8-1.5-3.3-3.3-3.3s-3.3,1.5-3.3,3.3v7.9"/>
	<path class="st6" d="M-192.4,385.6v-10.2c0-1.8-1.5-3.3-3.3-3.3s-3.3,1.5-3.3,3.3v5.6"/>
	<path class="st11" d="M-217.8,400.2c-0.7-2.4-0.7-6.1-0.7-11.2v-0.8"/>
	<path class="st11" d="M-205.9,398.6c0,0,2-6.9,6.7-6.9v-3.9c-5.1,0-7.9-1.2-7.9-6.8h9.8c1.1,0,2,0.6,2.6,1.4c0,0,3.1,3.7,3.1,6.6
		c0,5.2-0.1,8.8-0.8,11.2"/>
</g>
<g class="st0">
	<circle class="st2" cx="-205" cy="380.8" r="5"/>
	<path class="st11" d="M-191,382c-2.9,5.2-8.1,8.8-14,8.8c-5.9,0-11.1-3.5-14-8.7c2.9-5.3,8.1-8.8,14-8.8
		C-199.1,373.2-193.9,376.7-191,382L-191,382z"/>
</g>
<g class="st0">
	<path class="st11" d="M-205,402c-7-6.2-14-12.7-14-20c0-5.9,3.3-8,6.9-8c3.6,0,7.1,4.8,7.1,4.8s3.5-4.8,7.1-4.8
		c3.5,0,6.9,2.2,6.9,8C-191,389.3-198,395.8-205,402z"/>
</g>
<g class="st0">
	<circle class="st6" cx="-205" cy="384" r="13.5"/>
	<line class="st6" x1="-205" y1="397" x2="-205" y2="370.5"/>
	<line class="st6" x1="-205" y1="383" x2="-195" y2="393.1"/>
	<line class="st6" x1="-205" y1="383" x2="-215" y2="393.1"/>
</g>
<g class="st0">
	<path class="st11" d="M-210.2,382.8c-0.4-0.6-0.6-1.1-0.8-1.6c-0.6-1.8,0-5.1,0.4-7c0.6,2.1,3.4,3.8,3.4,3.8s-0.6-8.4,4.6-11.2
		c-1.5,8.3,3.4,9.9,3.4,13.2c0,0.4,0,0.8-0.1,1.1c-0.1,0.6-0.3,1.2-0.6,1.7"/>
	<polygon class="st11" points="-199.6,391.8 -210.4,391.8 -212,386.8 -198,386.8 	"/>
	<polyline class="st11" points="-201.7,391.9 -205,405.2 -208.3,391.9 	"/>
</g>
<g class="st0">
	<line class="st11" x1="-202.8" y1="374.3" x2="-198" y2="376.3"/>
	
		<rect x="-205.3" y="369.7" transform="matrix(0.9239 0.3827 -0.3827 0.9239 130.3352 106.5765)" class="st11" width="5.2" height="22.5"/>
	<polygon class="st13" points="-204.6,392.3 -210,398.5 -209.4,390.3 	"/>
</g>
<g class="st0">
	<g class="st2">
		<path d="M-209,372c0-2.2,1.8-4,4-4s4,1.8,4,4H-209z"/>
		<path d="M-209,372c0-2.2,1.8-4,4-4s4,1.8,4,4H-209z"/>
	</g>
	<g class="st2">
		<path d="M-209,396c0,2.2,1.8,4,4,4s4-1.8,4-4H-209z"/>
		<path d="M-209,396c0,2.2,1.8,4,4,4s4-1.8,4-4H-209z"/>
	</g>
	<rect x="-212" y="372" class="st13" width="14" height="24"/>
	<line class="st14" x1="-209" y1="389" x2="-201" y2="389"/>
	<line class="st14" x1="-209" y1="379" x2="-201" y2="379"/>
</g>
<g class="st0">
	<circle class="st11" cx="-205" cy="381.5" r="6"/>
	<path class="st11" d="M-217,381.5c0-6.6,5.4-12,12-12c6.6,0,12,5.4,12,12s-12,24-12,24S-217,388.1-217,381.5z"/>
</g>
<g class="st0">
	<circle class="st11" cx="-205" cy="384" r="14"/>
	<line class="st11" x1="-205" y1="384" x2="-205" y2="378"/>
	<line class="st11" x1="-205" y1="384" x2="-210" y2="376.7"/>
	<line class="st11" x1="-205" y1="370" x2="-205" y2="373.3"/>
	<line class="st11" x1="-205" y1="398" x2="-205" y2="394.7"/>
	<line class="st11" x1="-219" y1="384" x2="-215.7" y2="384"/>
	<line class="st11" x1="-191" y1="384" x2="-194.3" y2="384"/>
</g>
<g class="st0">
	<circle class="st11" cx="-205" cy="384" r="14"/>
	<line class="st11" x1="-205" y1="384" x2="-210" y2="377.7"/>
	<line class="st11" x1="-205" y1="370" x2="-205" y2="373.3"/>
	<line class="st11" x1="-205" y1="398" x2="-205" y2="394.7"/>
	<line class="st11" x1="-219" y1="384" x2="-215.7" y2="384"/>
	<line class="st11" x1="-191" y1="384" x2="-194.3" y2="384"/>
	<line class="st11" x1="-205" y1="384" x2="-198.4" y2="382.1"/>
</g>
<g class="st0">
	<path class="st15" d="M-205.2,401c0,0-6.6,0.2-7.8-7.7c-0.5-3.4,0-7.6,0.6-10.3c0.8,3.1,3.2,4.1,3.2,4.1s0.5-16,7.4-20.1
		c-1.6,14.4,4.5,19.7,4.5,24.6C-197.2,396.4-200.4,400.9-205.2,401z"/>
</g>
<g class="st0">
	<path class="st15" d="M-208,411.2c-0.9-6-0.6-16.3-2.5-25c-0.5-2.1-1.2-5.2-3-5.6c-1.5-0.4-3.7,1.2-4,3c-0.3,1.9,0.5,3.4,1.5,4.2
		c6.8,5.7,21,4.9,23-0.7c1.1-3.2-3.6-6.3-5.2-6c-1.3,0.3-1.2,4-1.5,7.3c-0.5,6,0.1,11.8-3.3,23.2"/>
</g>
<g class="st0">
	<path class="st11" d="M-212.7,407c-4-6-2.9-16.9-2.9-16.9l-4.3-10.5c-0.4-1.1,0.2-2.3,1.2-2.6s2.3,0.2,2.6,1.2l3.3,8.5l1.4-0.4
		l-2.6-14.2c-0.2-1.1,0.6-2.2,1.7-2.4c1.1-0.2,2.2,0.6,2.4,1.7l2.6,14.6h1.4v-17.2c0-1.1,0.9-2.1,2.1-2.1c1.1,0,2.1,0.9,2.1,2.1V386
		l1.4,0.1l2.7-15c0.2-1.1,1.3-1.9,2.4-1.7c1.1,0.2,1.9,1.3,1.7,2.4l-3.7,19.9"/>
	<path class="st11" d="M-200.3,393.9c0,0,2.2-2.4,4.4-1.9l1.7-4.1c1.4-3.9,3.6-4.9,6.2-4l-1.9,5.8l-2.1,5.3c-2.9,7.9-6.5,12-6.5,12"
		/>
</g>
</svg>
