<?xml version="1.0" encoding="utf-8"?>
<!-- Generator: Adobe Illustrator 19.0.0, SVG Export Plug-In . SVG Version: 6.00 Build 0)  -->
<svg version="1.1"
	 id="Layer_1" xmlns:dc="http://purl.org/dc/elements/1.1/" xmlns:cc="http://creativecommons.org/ns#" xmlns:rdf="http://www.w3.org/1999/02/22-rdf-syntax-ns#" xmlns:svg="http://www.w3.org/2000/svg" xmlns:sodipodi="http://sodipodi.sourceforge.net/DTD/sodipodi-0.dtd" xmlns:inkscape="http://www.inkscape.org/namespaces/inkscape"
	 xmlns="http://www.w3.org/2000/svg" xmlns:xlink="http://www.w3.org/1999/xlink" x="0px" y="0px" viewBox="-206 284.7 198.4 180.3"
	 style="enable-background:new -206 284.7 198.4 180.3;" xml:space="preserve">
<g transform="translate(198.11007,5.7312609)">
	<path d="M-359.1,323.9l45-45l4.5,4.5l4.5,4.5l-40.7,40.6l-40.7,40.6l40.6,40.6l40.6,40.6l-4.4,4.4l-4.4,4.4l-45-45
		c-24.7-24.7-45-45.1-45-45.2C-404.1,369-383.9,348.7-359.1,323.9z M-259.6,323.9l45-45l4.5,4.5l4.5,4.5l-40.7,40.6l-40.7,40.6
		l40.6,40.6l40.6,40.6l-4.4,4.4l-4.4,4.4l-45-45c-24.7-24.7-45-45.1-45-45.2C-304.6,369-284.4,348.7-259.6,323.9L-259.6,323.9z"/>
</g>
</svg>
