<?xml version="1.0" encoding="utf-8"?>
<!-- Generator: Adobe Illustrator 19.0.0, SVG Export Plug-In . SVG Version: 6.00 Build 0)  -->
<svg version="1.1"
	 id="Layer_1" xmlns:dc="http://purl.org/dc/elements/1.1/" xmlns:cc="http://creativecommons.org/ns#" xmlns:rdf="http://www.w3.org/1999/02/22-rdf-syntax-ns#" xmlns:svg="http://www.w3.org/2000/svg" xmlns:sodipodi="http://sodipodi.sourceforge.net/DTD/sodipodi-0.dtd" xmlns:inkscape="http://www.inkscape.org/namespaces/inkscape"
	 xmlns="http://www.w3.org/2000/svg" xmlns:xlink="http://www.w3.org/1999/xlink" x="0px" y="0px" viewBox="-202 284.2 206.9 180.6"
	 style="enable-background:new -202 284.2 206.9 180.6;" xml:space="preserve">
<g transform="translate(110.96103,-26.847537)">
	<path d="M-267.9,356.1l45.1-45.1l6.5,6.5l6.5,6.5l-38.7,38.7l-38.7,38.7l38.6,38.6l38.6,38.6l-6.4,6.4l-6.4,6.4l-45.1-45.1
		c-24.8-24.8-45.1-45.1-45.1-45.2C-313,401.3-292.7,380.9-267.9,356.1z M-164.2,356.1l45.1-45.1l6.5,6.5l6.5,6.5l-38.7,38.7
		l-38.7,38.7l38.6,38.6l38.6,38.6l-6.4,6.4l-6.4,6.4l-45.1-45.1c-24.8-24.8-45.1-45.1-45.1-45.2C-209.2,401.3-189,380.9-164.2,356.1
		z"/>
</g>
</svg>
