<?xml version="1.0" encoding="utf-8"?>
<!-- Generator: Adobe Illustrator 19.0.0, SVG Export Plug-In . SVG Version: 6.00 Build 0)  -->
<svg version="1.1"
	 id="Layer_1" xmlns:dc="http://purl.org/dc/elements/1.1/" xmlns:cc="http://creativecommons.org/ns#" xmlns:rdf="http://www.w3.org/1999/02/22-rdf-syntax-ns#" xmlns:svg="http://www.w3.org/2000/svg" xmlns:sodipodi="http://sodipodi.sourceforge.net/DTD/sodipodi-0.dtd" xmlns:inkscape="http://www.inkscape.org/namespaces/inkscape"
	 xmlns="http://www.w3.org/2000/svg" xmlns:xlink="http://www.w3.org/1999/xlink" x="0px" y="0px" viewBox="-259 355.5 72 62"
	 style="enable-background:new -259 355.5 72 62;" xml:space="preserve">
<g transform="translate(0,-970.3622)">
	<path d="M-259,1356.9c6.8,10.8,13.9,21.7,19.6,31h20.4c-6.5-10.3-13.1-20.7-19.6-31c6.5-10.3,13.1-20.7,19.6-31h-20.4
		C-246.2,1336.7-253.1,1347.5-259,1356.9z M-256.6,1356.9l18.4-29h15.6c-6.1,9.7-12.2,19.4-18.4,29c6.1,9.7,12.3,19.3,18.4,29h-15.6
		L-256.6,1356.9z M-227,1356.9c6.8,10.8,13.9,21.7,19.6,31h20.4c-6.5-10.3-13.1-20.7-19.6-31c6.5-10.3,13.1-20.7,19.6-31h-20.4
		C-214.2,1336.7-221.1,1347.5-227,1356.9z M-224.6,1356.9l18.4-29h15.6c-6.1,9.7-12.2,19.4-18.4,29c6.1,9.7,12.3,19.3,18.4,29h-15.6
		L-224.6,1356.9z"/>
</g>
</svg>
