<?xml version="1.0" encoding="utf-8"?>
<!-- Generator: Adobe Illustrator 19.0.0, SVG Export Plug-In . SVG Version: 6.00 Build 0)  -->
<svg version="1.1" id="Layer_1" xmlns="http://www.w3.org/2000/svg" xmlns:xlink="http://www.w3.org/1999/xlink" x="0px" y="0px"
	 viewBox="-288 380.5 26 26" style="enable-background:new -288 380.5 26 26;" xml:space="preserve">
<g id="clock">
	<path  d="M-275,380.5c-7.2,0-13,5.8-13,13s5.8,13,13,13s13-5.8,13-13S-267.8,380.5-275,380.5z M-275,404.5c-6.1,0-11-4.9-11-11
		s4.9-11,11-11s11,4.9,11,11S-268.9,404.5-275,404.5z"/>
	<path d="M-274,393.1v-6.6c0-0.6-0.4-1-1-1s-1,0.4-1,1v7c0,0.1,0,0.3,0.1,0.4s0.1,0.2,0.2,0.3l4.9,4.9c0.2,0.2,0.5,0.3,0.7,0.3
		c0.2,0,0.5-0.1,0.7-0.3c0.4-0.4,0.4-1,0-1.4L-274,393.1z"/>
</g>
</svg>
