<?xml version="1.0" encoding="utf-8"?>
<!-- Generator: Adobe Illustrator 19.0.0, SVG Export Plug-In . SVG Version: 6.00 Build 0)  -->
<svg version="1.1" id="Layer_1" xmlns="http://www.w3.org/2000/svg" xmlns:xlink="http://www.w3.org/1999/xlink" x="0px" y="0px"
	 viewBox="-244.6 353.3 79.2 61.3" style="enable-background:new -244.6 353.3 79.2 61.3;" xml:space="preserve">
<g transform="matrix( 1, 0, 0, 1, 0,0) ">
	<g>
		<g id="a">
			<path d="M-166.9,372.4c-1-3.6-2.4-6.9-4.4-9.9c-3.9-6.1-8.7-9.2-14.3-9.1c-5.6,0-10.4,3-14.3,9.1c-2.5,3.9-4.2,8.2-5.1,13.1
				c-0.9-4.8-2.6-9.2-5.1-13.1c-3.9-6.1-8.7-9.2-14.3-9.1c-5.6,0-10.4,3-14.3,9.1c-3.9,5.9-5.8,13.1-5.8,21.6
				c0,8.4,1.9,15.5,5.8,21.4c3.9,6.1,8.7,9.2,14.3,9.1c5.6,0,10.4-3,14.3-9.1c2.5-3.9,4.2-8.2,5.1-13c0.9,4.8,2.6,9.1,5.1,13
				c3.9,6.1,8.7,9.2,14.3,9.1c5.6,0,10.4-3,14.3-9.1c2-3,3.4-6.2,4.4-9.8c1-3.6,1.5-7.4,1.5-11.6
				C-165.4,379.8-165.9,375.9-166.9,372.4 M-172.6,363.3c1.9,2.8,3.3,6,4.2,9.4c1,3.4,1.4,7.2,1.4,11.3c0,4.1-0.5,7.8-1.4,11.3
				c-0.9,3.4-2.3,6.6-4.2,9.4c-3.6,5.6-8,8.4-13.1,8.4c-5.1,0-9.4-2.8-13.1-8.4c-3.6-5.6-5.5-12.3-5.6-20.1v-1.2
				c0.1-7.8,2-14.5,5.6-20.1c3.6-5.6,8-8.4,13.1-8.5C-180.5,354.9-176.2,357.7-172.6,363.3 M-211.4,363.3c3.6,5.6,5.5,12.3,5.6,20.1
				v1.2c-0.1,7.7-2,14.4-5.6,20.1c-3.6,5.6-7.9,8.4-13.1,8.4c-5.1,0-9.5-2.8-13.1-8.4c-3.7-5.7-5.6-12.6-5.6-20.6
				c0-8.1,1.8-15,5.6-20.8c3.6-5.6,8-8.4,13.1-8.5C-219.3,354.9-214.9,357.7-211.4,363.3 M-229.4,373.3c-2,0-3.7,1-5.2,3.3
				c-1.4,2.1-2.1,4.6-2.1,7.5c0,2.9,0.7,5.3,2.1,7.3v0c1.5,2.3,3.2,3.4,5.2,3.4c2,0,3.8-1.1,5.2-3.4v0c1.4-2,2-4.5,2-7.3
				c0-2.9-0.7-5.4-2-7.5C-225.6,374.4-227.4,373.3-229.4,373.3 M-184.1,376.6c-1.4-2.2-3.1-3.3-5.1-3.3c-2,0-3.7,1-5.2,3.3
				c-1.3,2.1-2,4.6-2,7.5c0,2.9,0.7,5.3,2,7.3c1.5,2.3,3.2,3.4,5.2,3.4c2.1,0,3.8-1.1,5.1-3.3c1.4-2,2.1-4.5,2.1-7.3
				C-182,381.1-182.7,378.6-184.1,376.6z"/>
		</g>
	</g>
</g>
</svg>
