<?xml version="1.0" encoding="utf-8"?>
<!-- Generator: Adobe Illustrator 19.0.0, SVG Export Plug-In . SVG Version: 6.00 Build 0)  -->
<svg version="1.1" id="Layer_1" xmlns="http://www.w3.org/2000/svg" xmlns:xlink="http://www.w3.org/1999/xlink" x="0px" y="0px"
	 viewBox="-252 342.1 86.3 85.7" style="enable-background:new -252 342.1 86.3 85.7;" xml:space="preserve">
<path d="M-188.4,397.6c-2,0-3.8,1-4.9,2.6c-0.3,0.5-0.6,1-0.7,1.5c-0.1,0.3-0.2,0.7-0.2,1.1c0,0.2-0.1,0.5-0.1,0.8s0,0.5,0.1,0.8
	c0.4,2.9,2.9,5.2,5.9,5.2c3.3,0,5.9-2.7,5.9-5.9C-182.5,400.2-185.2,397.6-188.4,397.6z M-188.4,407.9c-2.2,0-4-1.6-4.3-3.7
	c0-0.2-0.1-0.5-0.1-0.8c0-1.1,0.4-2,1-2.8c0.8-1,2-1.6,3.4-1.6c2.4,0,4.4,2,4.4,4.4S-186,407.9-188.4,407.9z"/>
<path d="M-226.4,425.5c0-1.3-1.1-2.4-2.4-2.4c-1.3,0-2.4,1.1-2.4,2.4s1.1,2.4,2.4,2.4C-227.5,427.9-226.4,426.8-226.4,425.5z
	 M-230.4,425.5c0-0.9,0.7-1.6,1.6-1.6c0.9,0,1.6,0.7,1.6,1.6s-0.7,1.6-1.6,1.6C-229.7,427.1-230.4,426.4-230.4,425.5z"/>
<path d="M-250.6,371.1l2.1-1.1l2.1,1.1l-0.4-2.4l1.7-1.7l-2.4-0.4l-1.1-2.2l-1.1,2.2l-2.4,0.4l1.7,1.7L-250.6,371.1z M-250.3,367.6
	l1.3-0.2l0.6-1.2l0.6,1.2l1.3,0.2l-0.9,0.9l0.2,1.3l-1.2-0.6l-1.2,0.6l0.2-1.3L-250.3,367.6z"/>
<path d="M-230.2,348.3l1.5-0.8l1.5,0.8l-0.3-1.7l1.2-1.2l-1.7-0.3l-0.8-1.6l-0.8,1.6l-1.7,0.3l1.2,1.2L-230.2,348.3z M-229,345.8
	l0.3-0.5l0.3,0.5l0.6,0.1l-0.4,0.4l0.1,0.6l-0.5-0.3l-0.5,0.3l0.1-0.6l-0.4-0.4L-229,345.8z"/>
<path d="M-172.4,405l1.2,1.2l-0.3,1.7l1.5-0.8l1.5,0.8l-0.3-1.7l1.2-1.2l-1.7-0.2l-0.8-1.6l-0.8,1.6L-172.4,405z M-169.9,404.9
	l0.3,0.5l0.6,0.1l-0.4,0.4l0.1,0.6l-0.5-0.3l-0.5,0.3l0.1-0.6l-0.4-0.4l0.6-0.1L-169.9,404.9z"/>
<path d="M-169.9,350.7l-1,3.1h-3.2l2.6,1.9l-1,3.1l2.6-1.9l2.6,1.9l-1-3.1l2.6-1.9h-3.2L-169.9,350.7z M-169.2,355.4l0.4,1.4
	l-1.2-0.9l-1.2,0.9l0.4-1.4l-1.2-0.9h1.4l0.4-1.4l0.4,1.4h1.4L-169.2,355.4z"/>
<path d="M-177.9,346.9c1.3,0,2.4-1.1,2.4-2.4s-1.1-2.4-2.4-2.4c-1.3,0-2.4,1.1-2.4,2.4S-179.2,346.9-177.9,346.9z M-177.9,342.9
	c0.9,0,1.6,0.7,1.6,1.6s-0.7,1.6-1.6,1.6c-0.9,0-1.6-0.7-1.6-1.6S-178.8,342.9-177.9,342.9z"/>
<path d="M-170.3,386c0,1.1,0.9,1.9,1.9,1.9c1.1,0,1.9-0.9,1.9-1.9c0-1.1-0.9-1.9-1.9-1.9C-169.4,384.1-170.3,384.9-170.3,386z
	 M-168.4,384.8c0.6,0,1.2,0.5,1.2,1.2c0,0.6-0.5,1.2-1.2,1.2c-0.6,0-1.2-0.5-1.2-1.2C-169.5,385.3-169,384.8-168.4,384.8z"/>
<path d="M-242.2,356.6v47.6h6.1v11.9h4.1v-11.9h31c0.4,6.6,5.9,11.9,12.6,11.9c7,0,12.7-5.7,12.7-12.7c0-2.7-0.9-5.3-2.4-7.3v-42.3
	h-4.1v6.6c-1.4-1.5-3.5-2.4-6-2.4h-17.2v-2.7h-9.6v2.7h-17.2c-2.5,0-4.6,0.9-6,2.4v-6.6h-1.4c-0.2-1.2-1.2-2.2-2.5-2.2
	c-1.4,0-2.5,1.1-2.5,2.5C-244.5,355.5-243.5,356.5-242.2,356.6z M-233.6,414.7h-1.1v-10.4h1.1V414.7z M-180.7,390v-21.5V364v-8.6
	h1.1v39.1c-0.3-0.3-0.7-0.6-1.1-0.9V390z M-180.7,395.4c0.4,0.4,0.8,0.8,1.1,1.2c0.6,0.7,1.1,1.5,1.4,2.4c0.6,1.4,0.9,2.9,0.9,4.4
	c0,6.2-5,11.2-11.2,11.2c-5.9,0-10.7-4.6-11.1-10.4c0-0.2,0-0.5,0-0.8s0-0.5,0-0.8c0-0.4,0.1-0.7,0.1-1.1c0.1-0.5,0.2-1,0.3-1.5
	c1.4-4.5,5.7-7.8,10.7-7.8c2.3,0,4.4,0.7,6.2,1.9C-181.7,394.6-181.2,395-180.7,395.4z M-213.5,356.8h6.6v1.2h-6.6V356.8z
	 M-238.2,364c0-2.5,2.7-4.5,6-4.5h17.2h9.6h17.2c3.3,0,6,2,6,4.5v4.5h-56V364z M-238.2,369.9h56v3.1h-56V369.9z M-238.2,374.6h56
	v13.9h-29.9h-13.5h-12.6L-238.2,374.6L-238.2,374.6z M-206.9,392.6c0,1.2-2.2,2.6-5.3,2.6h-13.5c-3.1,0-5.3-1.4-5.3-2.6
	s2.2-2.6,5.3-2.6h13.5C-209,390-206.9,391.3-206.9,392.6z M-238.2,390h7.3c-0.9,0.7-1.5,1.6-1.5,2.6c0,2.3,3,4.1,6.8,4.1h13.5
	c3.8,0,6.8-1.8,6.8-4.1c0-1-0.6-1.9-1.5-2.6h24.7v2.5c-1.8-1-4-1.6-6.2-1.6c-5.8,0-10.7,4-12.2,9.3h-37.5V390z M-239.9,355.3h0.2
	v8.6v4.5V390v11.7h38.7c-0.1,0.4-0.1,0.7-0.1,1.1h-31h-4.1h-4.6v-46.5C-240.4,356-240.1,355.7-239.9,355.3z M-242,352.4
	c0.8,0,1.6,0.6,1.7,1.4h-1.9v2c-0.9-0.1-1.5-0.8-1.5-1.7C-243.8,353.2-243,352.4-242,352.4z"/>
<path d="M-234,425.9l0.1-0.7c-0.3-0.1-0.6-0.1-1-0.2l-0.2,0.7C-234.7,425.7-234.4,425.8-234,425.9z"/>
<path d="M-249.1,410.6c-0.2-0.6-0.3-1.3-0.4-1.9l-0.7,0.1c0.1,0.7,0.2,1.3,0.4,2L-249.1,410.6z"/>
<path d="M-250.5,405.8c0,0.3,0,0.7,0,1l0.8,0c0-0.3,0-0.6,0-0.9c0-0.3,0-0.6,0-1l-0.8,0C-250.5,405.2-250.5,405.5-250.5,405.8z"/>
<path d="M-247.6,416.3c0.3,0.6,0.7,1.1,1.1,1.7l0.6-0.4c-0.4-0.5-0.7-1.1-1.1-1.6L-247.6,416.3z"/>
<path d="M-240.2,422.7c-0.6-0.3-1.1-0.7-1.6-1.1l-0.4,0.6c0.5,0.4,1.1,0.8,1.7,1.1L-240.2,422.7z"/>
<path d="M-243.8,420.9l0.5-0.6c-0.5-0.4-0.9-0.9-1.4-1.4l-0.6,0.5C-244.8,420-244.3,420.5-243.8,420.9z"/>
<path d="M-237,425.1l0.3-0.7c-0.6-0.2-1.2-0.5-1.8-0.7l-0.3,0.7C-238.2,424.6-237.6,424.8-237,425.1z"/>
<path d="M-247.8,414.2c-0.3-0.6-0.5-1.2-0.7-1.8l-0.7,0.3c0.2,0.6,0.5,1.2,0.8,1.8L-247.8,414.2z"/>
<path d="M-249.3,402l-0.7-0.1c-0.1,0.3-0.1,0.7-0.2,1l0.7,0.1C-249.5,402.6-249.4,402.3-249.3,402z"/>
<path d="M-167.1,413l-0.8,0c0,0.3,0,0.7-0.1,1l0.7,0.1C-167.2,413.7-167.1,413.4-167.1,413z"/>
<path d="M-174.5,424.3l0.4,0.6c0.6-0.4,1.3-0.8,1.8-1.3l-0.5-0.6C-173.4,423.6-173.9,424-174.5,424.3z"/>
<path d="M-176.5,425.3c-0.7,0.3-1.3,0.5-2,0.6l0.2,0.7c0.7-0.2,1.5-0.4,2.2-0.6L-176.5,425.3z"/>
<path d="M-169,418.1l0.7,0.3c0.3-0.7,0.5-1.4,0.7-2.1l-0.7-0.2C-168.5,416.7-168.7,417.4-169,418.1z"/>
<path d="M-171.3,421.6l0.6,0.5c0.5-0.6,1-1.2,1.4-1.8l-0.6-0.4C-170.4,420.5-170.8,421.1-171.3,421.6z"/>
<path d="M-181.6,426.9c0.1,0,0.2,0,0.3,0c0.2,0,0.5,0,0.7,0l0-0.7c-0.3,0-0.6,0-1,0L-181.6,426.9z"/>
<rect x="-168.7" y="365.4" width="0.8" height="2"/>
<rect x="-168.7" y="369.4" width="0.8" height="2"/>
<rect x="-168.7" y="373.4" width="0.8" height="2"/>
<rect x="-168.7" y="377.4" width="0.8" height="2"/>
</svg>
