<?xml version="1.0" encoding="utf-8"?>
<!-- Generator: Adobe Illustrator 19.0.0, SVG Export Plug-In . SVG Version: 6.00 Build 0)  -->
<svg version="1.1" id="Layer_1" xmlns="http://www.w3.org/2000/svg" xmlns:xlink="http://www.w3.org/1999/xlink" x="0px" y="0px"
	 viewBox="-253 343.7 88 82.6" style="enable-background:new -253 343.7 88 82.6;" xml:space="preserve">
<path d="M-235.9,426.3c8.9,0,16.2-6.9,17-15.6h39.6v15.6h6.4v-15.6h7.9v-67h-6.4v7.9c-1.9-1.5-4.5-2.5-7.3-2.5h-22v-3.5h-13.6v3.5
	h-22c-2.9,0-5.5,0.9-7.3,2.5v-7.9h-6.4v55.7c-1.9,2.8-3.1,6.1-3.1,9.8C-253,418.6-245.3,426.3-235.9,426.3z M-175.9,423.3h-0.4
	v-12.6h0.4V423.3z M-168.4,407.3V392v-29.2v-5.3v-10.8h0.4v61h-4.9h-6.4h-39.6c0-0.1,0-0.3,0-0.4H-168.4z M-211.3,348.6h7.6v0.5
	h-7.6V348.6z M-243.5,357.5c0-2.9,3.4-5.3,7.3-5.3h22h13.6h22c4,0,7.3,2.4,7.3,5.3v5.3h-72.1V357.5z M-243.5,365.8h72.1V389h-14.1
	h-21.3h-36.8V365.8z M-180.9,394.9c0,1.6-2.1,2.9-4.5,2.9h-21.3c-2.4,0-4.5-1.4-4.5-2.9c0-1.6,2.1-2.9,4.5-2.9h21.3
	C-183,392-180.9,393.4-180.9,394.9z M-243.5,392h30.3c-0.6,0.9-1,1.9-1,2.9c0,3.3,3.4,5.9,7.5,5.9h21.3c4.1,0,7.5-2.7,7.5-5.9
	c0-1.1-0.4-2.1-1-2.9h7.5v12.3h-48.2c-2.1-7.1-8.6-12.2-16.4-12.2c-2.7,0-5.3,0.7-7.6,1.8C-243.5,393.9-243.5,392-243.5,392z
	 M-246.9,346.7h0.4v10.8v5.3V392v3.8c-0.1,0.1-0.3,0.2-0.4,0.3V346.7z M-249,403.9c0.5-1.3,1.2-2.5,2.1-3.5c0.1-0.2,0.3-0.3,0.4-0.5
	c0.9-1,1.9-1.9,3-2.6c2.2-1.4,4.8-2.3,7.6-2.3c6.1,0,11.2,3.8,13.2,9.2c0.4,1,0.6,2,0.8,3c0,0.1,0,0.3,0.1,0.4
	c0.1,0.5,0.1,1,0.1,1.5c0,0.5,0,1-0.1,1.5c-0.8,7.1-6.7,12.6-14,12.6c-7.8,0-14.1-6.3-14.1-14.1C-250,407.3-249.6,405.6-249,403.9z"
	/>
<path d="M-235.9,417.5c4,0,7.4-2.9,8.1-6.8c0.1-0.5,0.1-1,0.1-1.5s-0.1-1-0.1-1.5c0-0.1-0.1-0.3-0.1-0.4c-0.3-1.1-0.7-2.1-1.4-3
	c-1.5-2-3.9-3.4-6.7-3.4c-4.6,0-8.3,3.7-8.3,8.3C-244.2,413.7-240.5,417.5-235.9,417.5z M-235.9,403.9c1.6,0,3,0.7,3.9,1.8
	c0.8,0.9,1.3,2.1,1.3,3.5c0,0.5-0.1,1-0.2,1.5c-0.7,2.2-2.6,3.8-5,3.8c-2.9,0-5.3-2.4-5.3-5.3C-241.2,406.3-238.8,403.9-235.9,403.9
	z"/>
</svg>
