<?xml version="1.0" encoding="utf-8"?>
<!-- Generator: Adobe Illustrator 19.0.0, SVG Export Plug-In . SVG Version: 6.00 Build 0)  -->
<svg version="1.1" id="Layer_1" xmlns="http://www.w3.org/2000/svg" xmlns:xlink="http://www.w3.org/1999/xlink" x="0px" y="0px"
	 viewBox="-250.2 336.5 90.4 95" style="enable-background:new -250.2 336.5 90.4 95;" xml:space="preserve">
<g>
	<path d="M5018.1,2734.1v-2c0-2.8-5-4-9.7-4s-9.7,1.3-9.7,4v2c0,1.8,0.7,3.6,2,4.9l5,4.9c0.3,0.3,0.4,0.6,0.4,1v6.4
		c0,0.4,0.2,0.7,0.6,0.8l2.9,0.9c0.5,0.1,1-0.2,1-0.8v-7.2c0-0.4,0.2-0.7,0.4-1l5.1-5C5017.4,2737.7,5018.1,2735.9,5018.1,2734.1z
		 M5008.4,2734c-4.8,0-7.4-1.3-7.5-1.8l0,0c0.1-0.5,2.7-1.8,7.5-1.8s7.3,1.3,7.5,1.8C5015.7,2732.7,5013.2,2734,5008.4,2734z"/>
	<path d="M5013.4,2744.3c-0.6,0-1,0.4-1,1s0.4,1,1,1h4.3c0.6,0,1-0.4,1-1s-0.4-1-1-1H5013.4z"/>
	<path d="M5017.7,2747.7h-4.3c-0.6,0-1,0.4-1,1s0.4,1,1,1h4.3c0.6,0,1-0.4,1-1C5018.7,2748.1,5018.3,2747.7,5017.7,2747.7z"/>
	<path d="M5017.7,2751h-4.3c-0.6,0-1,0.4-1,1s0.4,1,1,1h4.3c0.6,0,1-0.4,1-1C5018.7,2751.5,5018.3,2751,5017.7,2751z"/>
</g>
<g>
	<path d="M-205,341.2h-1.8v-2.9c0-1.4-1.5-2.2-2.7-1.5l-9.3,5.5c-1.2,0.7-1.2,2.4,0,3.1l9.3,5.5c1.2,0.7,2.7-0.1,2.7-1.5v-2.9h1.8
		c22,0,39.8,17.9,39.8,39.8s-17.8,39.8-39.8,39.8s-39.8-17.8-39.8-39.8c0-13.9,7.1-26.6,19-33.9c1.3-0.8,1.7-2.4,0.9-3.7
		c-0.8-1.3-2.4-1.7-3.7-0.9c-13.5,8.3-21.6,22.7-21.6,38.5c0,24.9,20.3,45.2,45.2,45.2s45.2-20.3,45.2-45.2S-180.1,341.2-205,341.2z
		"/>
	<path d="M-236,386.3c0,17.1,13.9,31,31,31s31-13.9,31-31s-13.9-31-31-31C-222.1,355.4-236,369.3-236,386.3z M-223.2,371.9
		c0.5,0.5,1.2,0.8,1.9,0.8c0.7,0,1.4-0.3,1.9-0.8c1-1,1-2.7,0-3.8l-1.7-1.7c3.7-3,8.4-5.1,13.4-5.6v2.4c0,1.5,1.2,2.7,2.7,2.7
		s2.7-1.2,2.7-2.7v-2.4c5.1,0.5,9.7,2.5,13.4,5.6l-1.7,1.7c-1,1-1,2.7,0,3.8c0.5,0.5,1.2,0.8,1.9,0.8c0.7,0,1.4-0.3,1.9-0.8l1.7-1.7
		c3,3.7,5.1,8.4,5.6,13.4h-2.4c-1.5,0-2.7,1.2-2.7,2.7s1.2,2.7,2.7,2.7h2.4c-0.5,5.1-2.5,9.7-5.6,13.4l-1.7-1.7c-1-1-2.7-1-3.8,0
		c-1,1-1,2.7,0,3.8l1.7,1.7c-3.7,3-8.4,5.1-13.4,5.6v-2.4c0-1.5-1.2-2.7-2.7-2.7s-2.7,1.2-2.7,2.7v2.4c-5.1-0.5-9.7-2.5-13.4-5.6
		l1.7-1.7c1-1,1-2.7,0-3.8c-1-1-2.7-1-3.8,0l-1.7,1.7c-3-3.7-5.1-8.4-5.6-13.4h2.4c1.5,0,2.7-1.2,2.7-2.7s-1.2-2.7-2.7-2.7h-2.4
		c0.5-5.1,2.5-9.7,5.6-13.4L-223.2,371.9z"/>
	<path d="M-207.5,387.4c0.4,1,1.4,1.6,2.5,1.6h10.2c1.5,0,2.7-1.2,2.7-2.7s-1.2-2.7-2.7-2.7h-8.4l-6.2-14.5c-0.6-1.4-2.2-2-3.5-1.4
		c-1.4,0.6-2,2.2-1.4,3.5L-207.5,387.4z"/>
</g>
</svg>
