<?xml version="1.0" encoding="utf-8"?>
<!-- Generator: Adobe Illustrator 19.0.0, SVG Export Plug-In . SVG Version: 6.00 Build 0)  -->
<svg version="1.1"
	 id="Layer_1" xmlns:dc="http://purl.org/dc/elements/1.1/" xmlns:cc="http://creativecommons.org/ns#" xmlns:rdf="http://www.w3.org/1999/02/22-rdf-syntax-ns#" xmlns:svg="http://www.w3.org/2000/svg" xmlns:sodipodi="http://sodipodi.sourceforge.net/DTD/sodipodi-0.dtd" xmlns:inkscape="http://www.inkscape.org/namespaces/inkscape"
	 xmlns="http://www.w3.org/2000/svg" xmlns:xlink="http://www.w3.org/1999/xlink" x="0px" y="0px" viewBox="-250 339 90 90"
	 style="enable-background:new -250 339 90 90;" xml:space="preserve">
<g transform="translate(0,-952.36218)">
	<path d="M-205.3,1291.4c-0.6,0.1-1.2,0.3-1.7,0.7l-42,36c-1,1-1.5,3.2-0.6,4.4c1,1.4,3.3,1.3,4.5,0.1l40.1-34.3l40.1,34.3
		c1.1,1.2,3.1,1.2,4.2-0.1c1.1-1.3,1-3.4-0.3-4.4l-42-36C-203.7,1291.6-204.5,1291.3-205.3,1291.4z M-235,1329.3c-1.6,0-3,1.5-3,3.1
		v46c0,1.6,1.4,3,3,3h60c1.6,0,3-1.4,3-3v-46c0-1.6-1.4-3-3-3c-1.6,0-3,1.5-3,3v43h-54v-43C-232,1330.8-233.4,1329.3-235,1329.3z"/>
</g>
</svg>
