<?xml version="1.0" encoding="UTF-8"?>
<!DOCTYPE svg PUBLIC "-//W3C//DTD SVG 1.1//EN" "http://www.w3.org/Graphics/SVG/1.1/DTD/svg11.dtd">
<!-- Creator: CorelDRAW X7 -->
<svg xmlns="http://www.w3.org/2000/svg" xml:space="preserve" width="530px" height="565.65px" version="1.1" style="shape-rendering:geometricPrecision; text-rendering:geometricPrecision; image-rendering:optimizeQuality; fill-rule:evenodd; clip-rule:evenodd"
viewBox="0 0 27695 29557"
 xmlns:xlink="http://www.w3.org/1999/xlink">
 <defs>
  <style type="text/css">
   <![CDATA[
    .fil10 {fill:transparent}
    .fil0 {fill:#1b2429}
    .fil1 {fill:#FFAF00}
    .fil4 {fill:#FFAF00}
    .fil3 {fill:#FFAF00}
    .fil2 {fill:#FFAF00}
    .fil6 {fill:#FFAF00}
    .fil5 {fill:#FFAF00}
    .fil9 {fill:#FFAF00}
    .fil7 {fill:#FFAF00}
    .fil8 {fill:#FFAF00}
   ]]>
  </style>
 </defs>
 <g id="Layer_x0020_1">
  <metadata id="CorelCorpID_0Corel-Layer"/>
  <path class="fil0" d="M711 12568l6 6c0,-1 -8,-4 -6,-6zm19840 8855l-21 -21 21 21zm-170 -1061l216 270c62,78 258,373 318,406 311,170 405,-218 338,-283 -2,-133 -62,-214 -110,-307 -48,-94 -89,-187 -166,-270l-95 -108c-134,-139 -368,-146 -374,97 -251,-168 -396,-36 -406,129 -6,114 24,105 44,190 -115,-60 -265,-195 -389,-26 -89,121 48,310 119,404 88,116 158,234 254,341 84,92 240,222 251,346 -42,-22 -53,-25 -100,-43l-69 -107c-77,-118 -307,-374 -359,-472 -58,-108 14,-53 -80,-133 -138,-118 -119,-71 -116,-309 0,-61 3,-134 0,-193 -7,-150 -216,-1061 -263,-1205 -141,-429 -285,-806 -513,-1147 -207,-309 -496,-679 -800,-883 8,-92 41,-135 43,-234 176,-4 303,-125 370,-269 32,-67 39,-105 56,-178 218,-18 336,-263 384,-446 37,-139 9,-112 -1,-235 117,-31 77,-74 262,-149l230 -104c308,-140 742,-279 1062,-279 10,119 122,236 224,393l143 237c10,43 -22,97 -58,147 -49,71 -73,63 -50,196 23,136 111,236 273,240 0,382 159,725 508,854 241,89 731,419 857,422 338,9 62,-572 -11,-756l-155 -335c-30,-51 -9,-15 -34,-52l-17 -25c-2,-4 -5,-9 -8,-13 -82,-138 -217,-261 -361,-342 -82,-47 -148,-72 -268,-72 9,-107 30,-108 -38,-196 -121,-157 -334,-273 -558,-124 -28,-105 -142,-197 -170,-319 254,0 515,-6 768,0l2106 21c38,167 156,243 304,270 206,38 54,-7 203,181 190,243 602,433 974,265 178,-81 310,-217 405,-383 94,-166 123,-452 51,-652 -34,-97 -74,-172 -134,-250 -31,-41 -50,-66 -90,-101 -186,-162 -516,-271 -756,-160 -197,91 -325,173 -425,362 -131,-63 -245,-27 -359,46 -105,67 -182,162 -195,316 -504,0 -1007,0 -1511,0 -548,0 -899,-21 -1448,-21 -140,-210 -98,-168 188,-239l265 -72c207,-48 423,-140 603,-251 124,-76 232,-188 311,-307l185 -411c80,-233 61,-535 -24,-759 -71,-182 -219,-487 -357,-580 -82,-71 -153,-171 -225,-265l-187 -196c-29,-22 -17,-12 -36,-28 -3,-2 -8,-6 -11,-9l-213 -192c-37,-27 -37,-33 -68,-60 -69,-59 -75,-38 -144,-111 -80,-83 -499,-330 -610,-391 -159,-87 -363,-161 -532,-213 -106,-33 -118,-6 -120,-112l2 -86c-2,-63 -2,23 -3,-47 -1,-26 -5,-21 1,-52 14,-68 55,-86 120,-114 335,-146 653,-359 969,-544 469,-275 894,-624 1376,-879 77,114 274,181 423,169 259,-21 551,-300 681,-513 133,-216 -86,-227 -167,-337 52,-71 140,-94 224,-117 35,-10 58,-21 92,-36 91,-37 317,-58 365,-124 -57,-78 -91,-41 -184,-15l-426 129c-82,34 -88,75 -156,120l-68 -82 340 -306c26,-24 29,-26 57,-49 27,-23 43,-37 67,-61 4,-4 17,-17 21,-21l170 -215c152,-184 135,81 158,181 62,29 105,52 170,21 -87,-130 -106,6 -106,-213 193,0 209,-27 170,-192 -177,-41 -155,49 -255,85 37,-162 316,-323 174,-514 -170,-230 -518,61 -421,377 25,80 45,118 119,137 -92,138 -390,454 -512,532 -69,43 -131,128 -212,150 -49,-94 -164,-276 -185,-368l-59 -219c-86,-397 74,-759 326,-1035 113,-124 667,-296 850,-268 424,66 637,129 943,419 133,126 244,389 294,558l27 209c7,264 43,278 -83,581 -67,160 -129,329 -255,449l-292 154c-161,91 -575,136 -742,59 -5,-3 -10,-5 -14,-8 -5,-2 -10,-5 -14,-8l-93 -76c-48,25 -64,35 -107,64l-78 -111c-40,-45 -55,-48 -64,26l10 41c31,75 63,98 129,132l139 74c86,29 382,72 485,53l154 -15c73,-18 75,-45 141,-73 100,-41 197,-48 282,-122l236 -189c39,-35 76,-66 109,-104 110,-124 154,-268 224,-415 122,0 145,16 256,21 229,10 132,60 261,186l71 78c56,77 210,119 308,36 64,-54 20,-40 66,-83 26,-24 -4,-4 39,-24 219,-105 115,-48 230,-303 44,-95 31,-135 110,-188 0,117 -63,194 -43,277 -85,54 -144,185 -194,295 -43,95 -121,251 -52,377 123,224 331,81 435,-164l46 -82c0,134 -102,313 -6,431 36,45 106,73 192,55 76,-16 79,-56 176,-84 -25,125 4,105 63,194 219,0 233,-30 306,-184 40,-86 112,-267 120,-368l51 -173c16,-90 64,-286 -37,-438 -73,-111 -296,-93 -401,52l-81 132c3,-36 107,-302 -75,-374 -129,-52 -213,44 -266,118l-64 82c13,-135 71,-96 6,-235 -92,-195 -311,-122 -383,10l-73 182c-5,15 -12,-4 -18,68 -267,-179 -546,-143 -596,42 -45,-22 -347,-42 -426,-42 0,-194 60,-110 -9,-461 -56,-281 -57,-316 -179,-543l-250 -325c-137,-138 -442,-304 -630,-349 -479,-117 -335,100 -434,-609 -18,-126 9,-212 -30,-225 -48,-52 -41,-106 -41,-106 0,-1 -5,-91 -6,-97l-17 -152c-27,15 -22,-35 -22,57 -37,98 5,365 19,492 11,108 0,193 18,280 24,114 27,135 27,271 -327,87 -423,35 -772,271 -57,38 -7,-1 -57,49l-31 33c-3,3 -7,8 -10,11 -3,3 -7,8 -10,11 -123,135 -239,297 -265,478l-5 26c-27,99 -26,34 -38,166 0,3 -1,9 -1,13 0,3 -2,9 -2,12 0,2 -2,8 -2,11 -27,183 13,718 172,856 -322,0 -722,491 -618,937 -113,60 -181,110 -291,176l-2072 1271c8,-86 28,-78 19,-189l-17 -640c26,-150 -2,-375 5,-546 5,-144 -18,-196 -12,-250 18,-192 35,-330 26,-547l-4 -359c-1,-80 -14,-67 -17,-172 164,-39 358,-197 418,-349 93,-236 72,-385 72,-694 123,-3 235,-70 277,-150 39,-73 57,-269 -43,-308 -43,-85 -106,-117 -234,-117l0 -43c520,-11 546,-582 128,-617 51,-33 228,-47 254,-237 33,-239 -118,-282 -190,-317 46,-70 81,-128 39,-229 -27,-65 -122,-127 -190,-152 -220,-83 -1069,-19 -1355,27 -307,50 -245,62 -356,153 -62,52 -99,109 -110,209 -28,264 291,403 621,323 225,-54 352,-43 586,-75 158,-21 418,0 637,0l-29 14c-48,19 20,-3 -30,12 -364,109 -1446,-58 -1702,297 -68,95 -4,317 117,362 129,48 202,17 345,17l0 43c-358,-120 -520,677 55,588 167,-26 244,-35 435,-35 -123,107 -137,76 -213,235 -191,4 -295,-9 -299,211 -5,227 16,268 93,420 97,195 312,433 589,433 46,196 33,555 6,751 -30,220 -4,817 -27,1145l21 382c0,287 -21,498 -21,787 -68,-15 -114,-47 -182,-67 -545,-92 -1050,-185 -1570,103 -192,106 -311,213 -399,432 -140,349 -30,562 1,937 -74,-49 -149,-59 -212,-107 -4,-2 -9,-7 -12,-9l-308 -203c4,-215 58,-385 -207,-496 -108,-46 -156,-72 -249,-134 -80,-53 -150,-112 -268,-115 0,-188 44,-239 -18,-450 -262,-896 -1663,-1147 -2147,-182 -321,641 -27,1407 650,1657 356,132 961,39 1174,-280 72,17 184,58 247,94 103,59 125,71 250,112 192,62 451,77 504,-121 113,27 172,115 268,179 127,85 340,123 361,281l244 1349c6,169 38,235 -25,381 -46,107 -156,166 -167,301 -143,33 -78,-43 -187,67 -182,185 -287,359 -217,657 -71,1 -49,5 -93,15 -123,30 103,-19 -30,9 -4,1 -10,2 -14,3 -4,1 -10,1 -14,2 -83,12 -72,-10 -123,80 -60,106 -88,193 -88,359 -121,-58 -162,-65 -234,42 -108,-28 -38,-66 -102,-16 -23,19 -54,94 -69,123 -222,-107 -1179,-229 -1438,-265 -274,-37 -519,-56 -798,-54 -220,2 -174,-5 -288,-179 -91,-139 -155,-303 -252,-429l-85 -128c-42,-76 -62,-123 -114,-184 -72,-84 -55,-100 -107,-192l-148 -256c-3,-6 -13,-22 -16,-27 -21,-37 -36,-60 -56,-93l-186 -323c-9,-21 -12,-33 -17,-45 -10,-20 4,1 -18,-30 -31,-44 -12,-13 -37,-45 -44,-54 -30,-34 -56,-95 -52,-124 -73,-93 -114,-172l-96 -171c-77,-84 -90,-162 -155,-250l-71 -120c-42,-81 -77,-114 -120,-178 20,-84 60,-115 100,-198 248,-520 -287,-995 -376,-1144 -83,-138 -95,-169 -256,-84 0,-144 -80,-172 -157,-333 -70,-146 -46,-258 -83,-428 -54,-248 -16,-211 -24,-436l16 -694c-1,-45 -3,-126 10,-198 63,-363 52,-181 115,-397 74,-255 49,-119 69,-388 6,-84 -64,-263 -31,-340l-64 0c62,-94 39,-70 66,-168 39,-141 75,-139 62,-365 -7,-109 -59,-572 -114,-654l-221 -290c-83,-123 -6,-76 -38,-257 -20,-115 -42,-175 -117,-225 -66,60 -61,81 -19,166 58,115 25,100 45,233 36,235 223,283 287,566 28,125 -19,108 56,455 7,33 18,71 10,129l-39 112c0,-235 0,-118 -29,-273 -37,-210 0,-152 -92,-415 -102,-287 -332,-773 -536,-997 -3,-3 -8,-7 -11,-10l-284 -291c-389,-393 -944,-607 -1483,-688 -185,-29 -574,5 -757,77 -421,164 -447,186 -706,487 -92,107 -140,164 -210,321 -164,368 -211,657 -213,1065 -1,181 25,230 45,381 58,438 253,903 538,1250 276,336 632,622 1036,795 121,52 613,337 717,411l281 187c3,3 8,7 11,10 4,3 9,7 12,9l473 421c118,117 221,256 312,391 34,50 76,73 112,122 20,26 24,39 41,66 21,33 28,38 51,76l82 152c60,109 107,199 163,306 -63,33 -128,51 -191,85l213 383c204,288 646,839 1064,638 10,15 19,33 32,54l24 39c76,113 -59,-81 18,25 45,62 44,61 82,131 34,61 46,67 75,117l265 437c31,47 12,16 40,67l677 1174c-187,-16 -486,-91 -740,-114 -43,-4 -56,-3 -111,-13 -44,-8 -43,-9 -70,-16l-518 -93c-3,-1 -9,-2 -13,-3l-509 -98c-52,-5 -90,-1 -141,-10l-1654 -267c-150,-48 -321,-59 -443,-84 -71,-14 -47,-20 -106,-30 -182,-31 -494,-113 -675,-101 -62,4 -16,-20 -109,-40l-246 -33c-5,-1 -11,-3 -16,-5l-63 -23c-116,-26 -137,-1 -255,-44 -1,0 -65,-18 -66,-18l-811 -148c-188,-60 -260,44 -341,-189 -33,-97 -258,-639 -244,-693 56,-84 116,-82 107,-232 -6,-108 -56,-177 -64,-279 47,-25 71,-38 118,-73l136 -98c5,-4 17,-17 21,-22 53,-64 56,-163 77,-243 22,-84 6,-99 -3,-170 -17,-135 33,-188 -31,-331 -42,-91 -95,-186 -166,-258 -3,-3 -8,-8 -11,-11 -115,-118 -325,-231 -494,-255l-28 -3c-327,-47 -335,-3 -533,82 -168,72 -215,158 -327,290 -157,185 -192,354 -187,625 4,183 113,340 259,444l138 86c3,1 8,3 11,5l165 63c113,40 194,60 344,60 2,97 13,94 54,160 36,59 37,77 88,124 64,58 62,38 144,69 103,40 57,21 105,129 87,196 198,433 247,647l-316 -67c-101,-25 -249,-57 -350,-76 -189,-36 -323,-37 -512,-84l-480 -93c-95,-20 -128,-48 -221,-53 -6,0 -21,0 -27,-1 -33,-3 -16,-2 -39,-7l-257 -50c-149,-23 -297,-59 -459,-59 0,-194 -23,-234 -105,-341 -84,-109 -156,-115 -257,-190 -192,-145 -13,-79 -302,-146 -88,-21 -275,-38 -357,-4 2,-124 172,-370 -26,-528 -53,-42 -171,-83 -260,-57 -72,20 -93,53 -144,113 -3,3 -7,8 -10,11l-29 35c0,-125 5,-191 -50,-269 -42,-61 -116,-108 -206,-115 -166,-14 -286,95 -353,222l-29 56c0,-102 7,-234 -18,-302 -10,-30 -44,-86 -62,-108 -45,-53 -35,-41 -101,-70 -104,-45 -178,-53 -262,16 -76,63 -95,116 -116,140l-42 36c-4,3 -10,8 -17,11 63,-162 -36,-274 -158,-333 -32,-16 13,0 -29,-14 -39,-12 -7,-14 -59,-6 -150,24 -301,160 -363,297 -88,198 -322,796 -327,987 -19,246 -70,-2 28,318 32,103 83,171 186,240 57,38 141,72 231,66 125,-9 355,-158 424,-303 38,-79 50,-221 131,-315 0,117 -25,148 -57,240 -25,69 -10,32 -24,89 -13,58 -22,67 -36,130 -76,361 424,551 576,106 36,-103 140,-398 129,-480 51,-54 62,-107 72,-170l148 -470c32,-77 24,-103 129,-105l-389 1122c-57,221 -48,141 6,176 -47,67 -36,109 -17,186 16,69 49,104 113,144 133,81 248,60 341,-41 119,-130 108,-156 156,-334 34,-127 98,-249 109,-381 4,4 8,6 9,13 2,6 8,9 9,12 21,31 9,12 24,40 51,90 85,145 214,148 0,154 -43,180 -43,320 222,148 1082,255 1171,-128 242,0 322,59 555,83l1714 330c336,86 714,151 1064,213 115,20 171,50 273,68 111,20 191,17 302,39 110,22 158,45 279,59 101,12 161,38 283,38 -15,58 -26,53 -65,84l-1574 1108c-178,135 -387,257 -560,399 -154,127 -199,-15 -434,161 -56,42 -34,27 -95,54 -95,42 -42,6 -100,70 -48,52 -98,140 -152,168 -5,3 -12,0 -15,6l-185 49c-381,110 -387,498 -495,825 -63,191 -67,245 35,397 233,0 693,-250 831,-446 221,-314 145,-449 237,-551 134,-147 300,-264 333,-476 16,-106 46,-124 136,-183l1486 -1069c127,-84 244,-173 374,-264l277 -191c16,-11 95,-70 98,-71 80,-44 677,99 790,116 95,14 191,19 278,40 173,43 339,99 526,113l802 114c108,20 129,37 282,37 -137,205 -384,431 -570,601l-45 40c-3,3 -8,7 -11,10 -137,138 -287,273 -396,434 -132,-31 -202,9 -310,73 -169,100 -56,155 -174,252 -364,298 -431,-61 -903,204 -126,70 -167,231 -131,375 15,62 21,52 41,107 23,63 15,61 23,93 21,85 46,117 93,172l459 393c96,41 380,104 471,73 56,-20 -5,1 46,-19 58,-24 91,-27 140,-73 253,-238 -8,-609 39,-896 5,-28 27,-99 35,-116 81,-184 284,-63 254,-467 -12,-171 61,-168 200,-335 251,-299 631,-558 846,-879 483,0 1153,245 1661,276 200,13 416,54 602,100 127,32 73,11 143,113 18,26 30,38 44,62l317 556c-1133,0 -1942,202 -2728,828 -119,94 -202,183 -319,276 -228,181 -636,719 -818,970 -467,642 -989,1772 -989,2588 -100,-53 -170,-124 -319,-128 0,-194 36,-421 -18,-599 -120,-406 -315,-874 -698,-1090l-495 -208c-95,-21 -187,-53 -319,-38 -154,19 -560,102 -692,203 -137,104 -280,206 -384,340 -135,173 -264,326 -375,518 -102,176 -148,332 -179,546 -50,342 -30,736 156,1013l284 311c171,108 371,197 554,277 175,75 391,3 582,57 200,57 121,95 390,-54l277 -86c144,-24 120,-64 236,-125 154,82 124,89 310,100 76,5 127,16 193,36 96,29 134,68 197,143 3,3 7,8 10,11l119 179c69,98 170,136 320,148 7,285 456,1249 618,1490 -47,21 -17,-28 -85,0 43,90 83,233 147,300 179,187 100,104 242,311 53,76 2,8 50,57 258,265 369,697 726,850l134 79c51,37 76,68 127,107 39,30 95,65 133,101 84,81 24,87 144,90 -40,37 -44,34 -5,86 3,3 7,8 10,11 76,87 173,68 369,231 3,3 8,7 11,10 23,17 23,17 54,31 105,46 206,76 299,148 86,67 133,167 250,198 95,26 323,4 367,-18 69,-35 -20,-34 113,-37 -8,104 -14,30 -41,131 -33,128 -17,120 -67,228 -43,95 -87,120 -138,204 -87,144 -121,199 -137,394 -41,496 75,388 283,718 46,73 132,147 207,156 -32,136 -230,284 -301,529 -103,349 38,674 313,864 118,81 484,198 635,216 123,14 38,-27 161,8 91,25 79,17 192,23l340 21c398,13 944,-55 1226,-36 240,16 439,2 606,-135l200 -204c4,-3 8,-7 11,-10 80,-79 94,-317 87,-340 -29,-39 -1,1 -31,-33 -4,-4 -4,-29 -112,-143 -94,-100 -84,-67 -198,-122 40,-54 24,-22 54,-52 33,-33 30,-32 60,-68l226 -285c98,-166 148,-567 46,-725 -43,-66 -66,-76 -88,-168 56,-5 107,-9 74,-70 -32,-60 -75,-37 -159,-37 -24,-91 -40,-36 -50,-111 -14,-106 201,-513 230,-646 39,-175 -23,-176 -52,-286 324,-172 595,-259 961,-529l417 -327c261,-242 511,-502 732,-780 494,-620 975,-1324 1134,-2123 54,-271 -4,-153 187,-303 158,-124 105,-192 17,-323 76,-113 101,-221 10,-350 -100,-142 -159,-125 -159,-310l167 218c56,62 20,36 68,38 13,76 19,78 60,132 28,38 52,67 82,108 100,136 322,330 471,181 88,-89 27,-195 4,-294 63,43 116,122 170,150 74,39 142,26 206,-29 3,-3 8,-8 11,-11 3,-3 7,-7 10,-10 3,-4 8,-8 10,-12 281,-344 -633,-848 -641,-1216 29,21 38,24 70,42l-6 25zm679 508c-2,-1 -48,-10 -62,-22l-390 -607c72,-5 429,552 452,629zm-530 532l-25 -42 25 42zm-86 -128l7 6c-1,0 -9,-4 -7,-6zm-63 -64l6 7c-1,-1 -9,-5 -6,-7zm-43 -64l0 0zm-21 -42l21 42 -21 -42zm0 0l-22 -21 22 21zm42 -319c86,57 109,157 238,273l93 98c13,15 22,25 30,34 52,61 84,80 86,191 -103,-28 -421,-487 -447,-596zm0 0l0 0zm-64 298c-73,-49 -351,-379 -361,-511 138,37 351,470 361,511zm-8110 -2683c-20,124 -53,82 -25,193 5,19 22,65 32,78 57,75 39,38 78,31 35,78 -19,12 47,32 151,45 483,-263 724,-350 52,-19 84,-25 144,-26l-223 159c-157,80 -668,264 -582,580 53,192 331,93 358,91 -35,67 -92,86 -85,170 44,163 146,119 298,107 4,171 192,273 345,294 199,27 119,58 206,220l191 447c48,102 74,199 127,299l136 289c42,68 250,560 251,622 -99,26 -123,99 -226,136 -106,39 -141,77 -285,77 -4,-178 -174,-471 -262,-632 -47,-86 -74,-94 -136,-162 -50,-57 -10,-28 -73,-76 -222,-164 -614,-70 -614,253l-277 0 -73 -119c-60,-86 -131,-63 -210,-48 -287,54 -425,-355 -760,-346 -431,10 -614,755 -147,957 284,123 532,-232 828,-232 19,72 2,59 85,67 121,13 266,-48 277,-173l277 0c76,328 313,519 614,641 114,46 198,62 365,62 48,99 67,212 106,319 38,105 39,238 90,337 49,97 55,19 48,139 -8,118 24,265 87,362 28,44 17,53 13,105l63 353c61,227 104,972 104,1173l-418 -349c-3,-3 -7,-7 -10,-10l-329 -289c-52,-40 -77,-67 -131,-103 -44,-31 -24,-16 -66,-40l-491 -340c-46,-32 -93,-58 -145,-89 -168,-99 -274,-214 -427,-318 -25,-16 -11,-5 -37,-27 -33,-27 -19,-18 -33,-31l-296 -230c-2,-1 -8,-5 -10,-6l-171 -117c-25,-16 -16,-8 -39,-25l-162 -136c-53,-55 -138,-92 -204,-136l-391 -312c-24,-16 -11,-6 -37,-27l-23 -20c-89,-81 -748,-585 -838,-609 0,-134 168,-597 -149,-681 12,111 -10,17 63,107 89,107 73,267 24,384 -13,30 -12,24 -23,41 0,-283 -101,-402 -237,-551l-31 -33c-3,-3 -8,-7 -11,-10l-402 -300c3,-122 45,-381 73,-502 160,-711 476,-1445 912,-2026l443 -557c3,-3 7,-8 10,-12 3,-3 7,-8 9,-11l30 -35c291,-341 636,-602 1005,-847 647,-428 1499,-566 2393,-566 40,151 395,699 493,890 26,50 58,82 94,141 35,57 53,90 87,147 62,103 100,192 157,290 55,97 122,180 184,284 62,105 108,192 169,299l178 290c74,135 103,132 84,362 -26,326 -166,627 -226,944l-101 453c-79,210 -158,708 -214,955 -12,53 -29,159 -32,203 -50,-33 -66,-42 -107,-85l134 -419c9,-34 16,-41 26,-81 11,-46 28,-165 31,-204 12,-145 -44,-268 -107,-338 -165,-186 -427,-83 -525,111 -106,211 -69,493 43,712l48 80c3,3 7,8 9,12l27 37c41,59 68,83 101,133 -19,73 -53,76 -100,155 -41,69 -52,121 -134,143 -19,-81 -60,-150 -85,-235 -58,-201 -184,-348 -245,-542 -15,-47 -34,-84 -50,-121l-205 -434c-50,-120 -12,-112 -89,-229 -49,-74 -75,-154 -114,-228 162,-242 116,-272 1,-533 -40,-91 -25,-93 -107,-148l43 -85c75,-18 31,0 91,-59l20 -23c55,-61 70,-103 22,-199 -134,-272 -825,310 -985,324 199,-298 826,-385 808,-681 -5,-82 -80,-134 -144,-154 -53,-16 -166,2 -239,25 -74,24 -127,66 -212,86l42 -59c43,-15 59,-19 90,-43 114,-90 237,-633 -442,-251l-189 110c-49,32 -42,28 -82,67 -33,32 -111,109 -126,150 -12,30 -16,61 11,103 50,79 48,47 100,29zm532 -21l-174 81c-65,40 -119,82 -209,89 53,-78 334,-229 447,-255l-64 85zm45 -404c104,0 39,-6 61,21l-64 84c-21,15 -5,9 -42,22 -16,-67 -20,-60 0,-127 90,43 42,14 45,0zm-2 1192c16,-28 -18,-38 42,0l-42 0zm358 -234l25 9c-27,15 -20,20 -25,-9zm-4252 -9434l-367 -207c-343,-255 -144,-78 -428,-359 -70,-69 -123,-121 -181,-203l-302 -485c-24,-48 -32,-80 -52,-140 -89,-266 -148,-477 -181,-755 -13,-110 34,-629 67,-716 38,-100 61,-196 98,-286 44,-109 77,-170 139,-264 32,-48 43,-77 72,-120 36,-53 48,-60 91,-100 4,-3 8,-8 11,-11 97,-90 100,-104 213,-171 543,-324 1338,-227 1860,75 176,101 304,197 463,325 299,241 567,672 728,1017 25,55 46,79 61,131 50,175 135,474 133,654 -2,169 13,233 21,358 -64,71 -11,329 -27,446l-92 653c-62,384 -80,507 -58,888 23,386 -17,220 80,669 55,259 155,456 322,636 35,37 5,-2 31,33l-320 170c-139,-208 -254,-516 -529,-854l-119 -137c-3,-3 -7,-8 -10,-11 -120,-142 -132,-170 -270,-284 -285,-235 -186,-202 -617,-489l-524 -306c-104,-57 -204,-115 -313,-157zm2553 -763c55,-23 38,24 60,-216 5,-46 2,-81 2,-126l16 -112c1,-3 4,-10 7,-14l35 261c13,58 -18,211 -37,269 -2,5 -4,10 -6,15 -7,21 -8,31 -14,50 -20,60 -1,38 -42,86 0,-221 44,-121 -21,-213zm4193 20691c5,-3 12,-11 15,-7 3,6 17,-8 29,-13 2,0 47,-15 48,-16 49,-15 56,-17 100,-28l0 43c-81,19 -85,21 -192,21zm3874 -15582l0 0zm277 128c38,-57 96,-87 154,-144 88,-88 472,-389 570,-389 130,0 21,162 -16,198 -34,34 -55,41 -96,73 -22,17 -20,18 -47,39l-159 97c-147,81 -215,126 -406,126zm-1107 -873l7 6c-1,0 -9,-4 -7,-6zm788 85c0,-115 160,-500 232,-620 224,-376 449,-221 449,-40 0,119 -97,259 -166,324 -3,3 -8,7 -11,10 -4,2 -8,7 -12,10 -251,228 -252,189 -492,316zm-554 43c-220,-19 -255,-328 -255,-511 0,-86 32,-171 48,-272 66,-418 335,-134 335,-48 0,223 -23,267 -76,477 -34,135 -80,232 -52,354zm-383 1038c104,-100 360,-810 383,-911 87,7 114,31 232,20 150,-15 144,-47 194,-84 -19,227 -72,541 234,703l-340 361c-84,57 -270,296 -338,387 -56,75 -103,128 -156,205l-145 239c-74,-17 -143,-72 -209,-111 -72,-43 -147,-86 -217,-123 15,-56 58,-118 90,-166 41,-63 57,-91 95,-160 58,-103 152,-242 177,-360zm995 -65c247,-239 116,-101 405,-148 34,-6 172,-46 212,-66l342 -211c129,-120 175,-142 175,-378 -187,-125 -293,-23 -545,158l-456 374c-65,-17 -99,-52 -149,-85 -57,-109 -187,-470 -49,-560 36,-23 18,-8 61,-25 250,-99 582,-312 676,-573l12 -34c0,-3 3,-9 3,-12 1,-2 4,-8 5,-11 1,-4 3,-10 4,-13 33,-116 8,-214 -77,-301 -86,-88 -222,-100 -329,-18 -94,73 -131,128 -189,237 -336,635 -175,762 -544,760 -185,-1 -130,-49 10,-591 32,-123 59,-242 12,-369 -13,-35 -56,-109 -83,-131 -30,-25 -118,-62 -172,-62 -230,-2 -251,382 -273,578 -42,370 203,540 252,614 -35,152 -116,327 -167,471 -31,86 -59,138 -97,223 -35,77 -79,143 -98,218l-362 642c-117,-56 -210,-103 -361,-107 107,-202 198,-316 163,-547 -13,-91 -1,-58 0,-151 3,-209 -112,-635 -156,-884 -23,-130 -28,-57 -53,-158 -31,-282 -66,-559 -127,-835 -6,-28 -5,-173 -5,-175 -25,-178 -41,-254 79,-434 53,-80 53,-111 150,-170l298 -171c207,-95 527,-138 754,-111 358,41 449,106 745,171l87 14c160,93 544,205 690,316 4,3 8,7 12,10 63,50 15,25 92,52l190 134c8,7 448,283 477,292 61,19 414,462 480,517 346,289 389,557 476,928 52,220 4,476 -116,670 -91,145 -202,347 -369,419 -31,12 -63,23 -93,38 -3,1 -9,4 -12,6 -175,77 -227,108 -418,157 -65,18 -198,54 -249,71l-443 95c-244,27 -478,88 -676,169 -139,58 -229,69 -408,155 -2,1 -8,4 -10,5l-104 62c-60,37 -90,30 -147,67 -65,42 -54,54 -137,97 -31,-133 -190,-243 -255,-340l167 -238c34,-42 55,-58 89,-102l271 -346c103,-117 229,-255 340,-363zm7265 -5465l11 -46 -11 46zm-24545 3427c-4,56 -7,59 -22,105 -10,29 -4,14 -19,46 -20,43 -7,19 -22,41 1,-55 6,-79 16,-111 17,-50 22,-51 47,-81zm-63 192l-150 681c-89,66 -26,9 -90,208 -28,87 -38,150 -101,196 0,-226 193,-709 273,-961 26,-79 12,-84 68,-124zm24523 -4024c37,60 27,26 0,43l0 -43zm0 43c0,141 -47,165 -92,271 -44,103 -58,184 -143,240l0 -85c36,-28 32,-47 54,-95 5,-12 27,-57 28,-58l153 -273zm809 42l-212 788c-39,-51 -4,-337 105,-830 37,-55 22,-57 107,-64l0 106zm-405 107c-11,133 -69,395 -170,511 0,-109 33,-203 61,-280 19,-52 27,-71 48,-122l61 -109zm0 0l12 -46 -12 46zm-298 149l135 -397c31,-87 7,-66 78,-114l-141 391c-27,61 -25,86 -72,120zm-7685 -2512l7 6c-1,0 -9,-4 -7,-6zm-340 -234l76 -31c144,-37 304,-64 455,-55 75,4 159,1 235,1l0 21c-76,0 -140,10 -188,13l-578 51zm511 255c50,-63 -11,-14 65,-40 12,-4 86,-15 92,-15 13,-2 96,-7 98,-8 79,-16 46,16 85,-43 81,31 510,-21 724,-21 -22,82 -1,66 -235,63l-829 64zm-320 0l0 0zm1363 -404l0 0zm-1448 -617c2337,-72 1350,-1 21,127 -107,0 -110,-2 -191,-21 17,-64 2,-52 66,-71 66,-19 2,33 104,-35zm346 1383c-72,-30 -183,0 -303,0l0 -64 258 -38c244,-26 212,-7 311,-11 192,-10 484,-36 687,-36l0 22c-87,0 -55,-8 -124,21 -98,0 -158,9 -207,17 -91,15 -77,17 -195,31 -81,9 -360,21 -427,58zm-3220 22756c-31,46 -3,29 -64,43l0 -43 64 0zm0 0c32,-45 3,-28 64,-42 -32,46 -3,28 -64,42zm64 -42l0 0zm168 -299l0 0zm-274 -148l0 0zm0 0l0 -85c-63,-26 -78,15 -107,-64 95,-45 145,0 234,21l-127 128zm85 -1533c148,-12 125,-88 219,35 196,256 138,192 128,353 -3,60 48,173 -28,293 0,-254 -44,-385 -194,-550l-125 -131zm-3513 -106c0,-55 34,-4 13,0 0,0 -13,59 -13,0zm43 -171c0,-210 136,-414 277,-447 -8,90 -8,59 -72,121l-83 87c-67,77 -75,131 -115,225 -2,3 -4,10 -7,14zm3598 -830c287,-69 152,157 149,320l-43 0c-2,-92 -64,-225 -106,-320zm-3193 -170l0 0zm0 0l0 0zm2809 -106c129,0 141,30 273,89 53,24 25,21 89,38 -56,101 -132,14 -201,-33 -57,-39 -104,-45 -161,-94zm-3555 0c120,27 215,95 341,106 -82,52 62,-14 -96,34 -99,31 -32,32 -93,6 -6,-2 -32,-19 -39,-23l-113 -123zm3513 -22l6 7c0,-1 -8,-5 -6,-7zm-1512 -191l718 69c73,10 144,37 240,37l0 21c-232,0 -570,-66 -744,-64 -28,0 -108,5 -130,2 -123,-15 -46,5 -84,-65zm4450 -1661l0 0zm21 -42l-21 42 21 -42zm-8834 -213l0 0zm0 0c-74,-49 -105,-115 -128,-213 44,32 113,149 128,213zm9515 -1448c-9,108 -33,107 -77,178 -41,66 -61,113 -98,179 -105,187 -152,470 -331,734 -42,62 -67,84 -104,151l-150 255c-38,62 -67,191 -164,367 -286,519 -223,252 -639,554 -75,54 -117,50 -140,137 118,79 113,28 210,-46 51,-39 168,-109 237,-125 -112,169 -686,639 -821,733 -84,58 -149,92 -235,149 -140,92 -350,216 -507,280 -78,32 -205,83 -268,137l-166 -89c-128,-54 -213,-100 -350,-118l-654 -70c79,-150 -1,-95 30,-245 61,-304 10,-112 33,-309 27,-229 -6,-142 0,-296 4,-128 22,-110 22,-363 69,-37 161,-87 230,-132l481 -263c215,-143 318,-179 460,-286 161,-123 169,-139 340,-213l449 -275c110,-87 209,-123 385,-254l213 -106c48,-28 68,-51 114,-78 229,-136 132,-51 396,-242 21,-16 42,-28 65,-42l240 -143c32,-20 23,-14 51,-34l24 -18c4,-3 8,-7 12,-10 3,-3 8,-7 12,-9l232 -173c76,51 90,85 208,113 108,26 146,-18 260,-28zm-681 1661c11,-135 58,-102 109,-210 40,-84 53,-125 113,-207l115 -161c143,-231 107,-242 160,-373 2,-5 5,-10 7,-14 2,-5 5,-10 7,-15 2,-4 5,-9 7,-14 50,-115 9,-108 68,-208 78,-129 178,-294 188,-448 6,-81 -9,-52 56,-96 0,266 -223,759 -326,951 -86,159 -397,723 -504,795zm-1384 -1661l0 0zm2065 0l0 0zm-5641 -127c21,28 21,-45 21,63 -20,-26 -14,24 -21,-63zm3108 -384c105,0 210,38 274,88l83 88c101,130 21,291 16,323 -10,55 5,56 10,119 -309,206 -88,191 -383,191 -113,0 -224,-62 -283,-122 -74,-75 -107,-199 -112,-284 -17,-245 191,-403 395,-403zm-3108 384c-25,-40 -24,47 -18,-43 4,-45 3,-19 18,-43l0 86zm-4513 -171l247 -72c1,-1 35,-22 39,-24l255 -214c30,-28 5,-9 34,-30 81,42 67,44 136,97l417 286c119,84 650,537 800,626l801 626c216,139 255,219 396,306l859 567c41,33 88,73 127,107l502 435c178,145 188,208 262,228l12 584c46,156 13,9 9,182 -962,0 -751,110 -1050,229 -143,57 19,-13 -96,-4 -55,4 -64,52 -131,52 -134,0 -745,-253 -927,-351 -40,-21 -47,-25 -83,-45 -166,-91 -485,-282 -617,-404l-344 -295c-51,-39 -81,-68 -119,-115l-620 -806c-357,-604 -631,-1081 -848,-1770 -14,-46 -41,-154 -61,-195zm4023 -106c23,-23 81,34 24,11 -1,0 -59,24 -24,-11zm341 -213l47 38c-60,-10 -28,12 -47,-38zm-4343 191c-75,0 -64,-41 -64,-127 318,0 171,17 426,-43 -57,79 6,9 -75,52 -98,52 -162,118 -287,118zm4343 -191l-25 -42 25 42zm1639 511c0,145 30,-35 -7,165 0,1 -7,54 -7,57l-64 669c-28,224 -25,25 -13,262 2,25 -5,115 -9,150 -26,204 -10,354 -18,430 -24,215 -24,59 -31,333l-21 133c-40,116 -11,196 -23,333 -25,280 -3,162 50,272 56,117 -27,536 -27,687 -55,-26 -335,-38 -425,-43 -86,-5 -118,-25 -213,-20 -57,3 -56,8 -86,9 -26,0 -48,-9 -107,-10l-2 -998 -133 -929c-10,-80 12,-73 -13,-180 -73,-312 -149,-878 -220,-1143 -19,-69 -25,-120 -45,-190 -20,-71 -39,-111 -55,-179 258,-60 540,-237 703,-446 31,-40 56,-67 85,-108 170,-247 63,-17 527,91 63,15 127,6 194,20 78,16 63,25 39,113 -22,79 -31,95 -36,182 -6,110 -9,97 -26,187l-17 153zm-2427 -618l0 0zm-4087 -21c389,206 316,124 362,319 -60,-4 -89,-14 -131,-39 -119,-70 -221,-267 -231,-280zm4087 21l-21 -21 21 21zm-21 -21l0 0zm-43 -64l0 0zm2768 -21l6 6c0,0 -8,-4 -6,-6zm-171 0l7 6c-1,0 -9,-4 -7,-6zm-149 0c1,-7 23,-2 27,-2 3,1 25,-48 19,7 -1,3 -46,48 -46,-5zm406 24l-1 -45c12,0 35,-1 41,1 38,11 24,7 44,20l-84 24zm-491 -45c23,-23 81,34 24,11 0,0 -59,24 -24,-11zm596 -22c23,-22 81,34 24,11 0,0 -59,25 -24,-11zm-660 0c23,-22 81,34 24,11 0,0 -59,25 -24,-11zm-63 0l0 0zm-1491 0l7 7c-1,-1 -9,-4 -7,-7zm1491 0l0 0zm872 -42c-18,24 20,15 -32,30 -98,27 -23,9 -53,-9l85 -21zm-936 0l6 6c0,0 -8,-4 -6,-6zm723 -21l0 0zm-2831 -86c0,-214 48,-212 192,-212 188,0 238,115 299,211l168 300c2,5 5,10 7,14l79 283c-106,0 -167,-33 -251,-68 -31,-13 -26,-14 -59,-26 -229,-78 -60,-5 -279,-146 -105,-68 -156,-209 -156,-356zm3044 107c48,-66 -13,-34 85,-43 -47,66 14,35 -85,43zm-298 -43l0 0zm4002 -42c-7,-41 27,-76 14,-14 -1,2 0,88 -14,14zm-8195 42c-22,9 -89,0 -14,-29 57,-22 31,22 14,29zm2022 -85l6 6c0,0 -8,-4 -6,-6zm-5364 -42c32,-45 60,-55 106,-86l379 282c52,34 98,55 132,102 -202,-48 4,-43 -369,-75 -80,-7 -81,-28 -145,-93 -71,-71 -55,-39 -103,-130zm-2065 0l6 6c0,-1 -8,-4 -6,-6zm-85 -64l0 0zm0 0l-22 -22 22 22zm7408 -43c74,20 77,20 85,107 -30,-35 -60,-68 -85,-107zm-7430 21c-64,-17 -47,1 -64,-63 64,17 47,-1 64,63zm5514 -63l0 0zm-5599 -64l25 41 -25 -41zm7302 -43c93,8 129,24 170,85 -83,-7 -133,-33 -170,-85zm-320 532l-15 -27c-3,-6 -20,-43 -20,-44 -13,-33 -23,-68 -30,-98 -51,-243 110,-384 342,-384l-144 62c-88,29 -79,16 -119,100 -77,164 -14,244 -14,391zm-1383 -425l-85 23c2,152 47,75 127,126 -136,31 -170,5 -170,170 57,30 71,46 131,27 64,-20 87,-51 103,-112 123,0 165,-14 257,-21 109,-9 153,21 254,21l0 42c-316,0 -368,196 -629,246 -421,80 -527,-489 -233,-724 231,-184 340,-44 581,120 116,80 119,130 302,145l0 86c-223,0 -114,-48 -403,0 -94,16 -25,8 -129,0 0,-153 8,-104 27,-170 1,-5 32,-5 4,-56 -17,-32 -38,-45 -88,-29 -70,23 -47,21 -49,106zm4576 276c64,-94 157,-100 305,-334 15,-23 24,-37 42,-64 47,-72 -14,-18 58,-70 -44,187 -157,301 -162,306l-243 162zm-1617 -574l6 6c0,-1 -8,-4 -6,-6zm-22 -128c26,40 24,-48 18,42 -3,46 -3,19 -18,43l0 -85zm2044 234c2,-110 21,-80 37,-155 12,-59 6,-125 6,-186 54,63 50,102 31,179l-74 162zm-10580 128c-38,-26 -37,-21 -68,-62l-45 -84c-13,-34 -53,-160 -57,-216 34,39 24,27 45,82 58,149 103,184 125,280zm-192 -405c-7,-40 27,-75 14,-13 0,1 1,88 -14,13zm10069 767l-85 -22c2,-75 41,-174 71,-227 33,-57 23,-31 45,-61 42,-57 34,-66 66,-126 303,-567 504,-378 563,-373 -29,127 -7,181 -67,294 -25,46 -39,86 -65,127l-197 207c-3,3 -8,7 -11,10 -4,3 -9,7 -12,10 -133,99 -178,111 -245,129 -44,11 -20,-6 -63,32zm256 -809l6 6c0,0 -8,-4 -6,-6zm-1618 0l6 6c0,0 -8,-4 -6,-6zm2108 -22l-22 -21 22 21zm-10815 -21c0,-54 34,-3 13,0 0,0 -13,60 -13,0zm9112 -319c45,195 63,-40 63,426 0,42 -32,55 -65,211 -11,51 -42,172 -62,214 -66,-17 -57,-27 -90,-80l-30 -55c-44,-94 -139,-355 -107,-452 24,-77 23,-73 61,-132l26 -38c2,-4 5,-9 8,-13 22,-33 6,-22 37,-48 57,-48 69,-33 159,-33zm1277 276l6 7c0,-1 -8,-4 -6,-7zm404 43l-64 -64c64,17 47,0 64,64zm-10090 85c30,-111 91,-105 208,-132 213,-50 120,-17 303,-17 -109,163 -329,271 -511,149zm10026 -149l0 0zm-213 -21c-28,22 45,21 -63,21 26,-19 -24,-14 63,-21zm43 -21l0 0zm-43 21l0 0zm-10537 -21c2,-2 7,3 7,6l-7 -6zm1384 -128l0 -192c75,0 120,-5 173,-18 196,-48 268,-190 338,-237l335 303c46,45 70,70 120,115l346 313c24,22 114,98 114,120 0,84 -78,219 -128,256 -19,-75 -191,-169 -262,-206 -59,-32 -101,-45 -159,-76 -199,-104 -645,-272 -898,-272 11,-47 21,-49 21,-106zm-1384 64c0,-55 34,-4 13,0 0,0 -13,59 -13,0zm43 -511c0,-55 33,-4 12,0 0,0 -12,59 -12,0zm894 -43c17,-12 52,-42 64,-42 125,0 246,161 255,276 -63,-33 -134,-50 -191,-85 -30,-17 -44,-28 -71,-56 -61,-63 -30,-41 -57,-93zm-873 -42l6 6c0,0 -8,-4 -6,-6zm1533 -554c156,105 215,294 255,469 -44,-30 -134,-144 -164,-198 -43,-80 -88,-162 -91,-271zm213 575c0,166 -328,255 -469,255 -77,-333 -468,-506 -468,-191 0,119 288,252 426,255 0,159 48,133 -22,277 -162,0 -617,-30 -617,192 0,213 358,243 577,1 8,-9 33,-37 40,-44 10,-10 10,-43 43,-43 359,0 960,247 1261,463 62,45 36,7 59,70l-347 227c-180,105 -336,228 -550,235 -35,1 -14,0 -74,13 -213,46 -142,-45 -328,-50l0 86 -393 -54c-228,-39 -522,-319 -651,-520l-142 -305c-15,-68 -18,-135 -30,-204 -38,-218 -44,-351 11,-527l33 -149c1,-3 3,-9 4,-12 1,-3 4,-9 5,-12l25 -57c104,-227 18,-102 170,-321l128 -191c71,-108 233,-282 346,-356 305,-200 172,-101 444,-196 346,-120 810,3 1100,215 90,66 156,188 270,198 3,138 66,107 121,199 180,306 202,554 219,910l13 180c-31,106 -129,132 -140,265 -75,-20 -37,-12 -93,-56l-808 -725c-101,-101 -35,-127 -74,-266 -40,-139 -100,-223 -182,-329 -134,-173 -285,-48 -119,268 18,35 74,119 102,154 34,42 110,84 110,145zm11814 -958l7 6c-1,0 -9,-4 -7,-6zm-11112 0l0 0zm0 0l-24 -41 24 41zm-191 -149c22,-23 80,34 23,11 0,0 -59,25 -23,-11zm-235 -85l0 0zm0 0l0 0zm11432 -43l0 0zm-12347 0l6 7c0,-1 -8,-5 -6,-7zm-43 0l7 7c-1,-1 -9,-5 -7,-7zm809 -21c99,8 38,-23 86,43 -99,-9 -38,22 -86,-43zm11581 21c-25,-18 -15,20 -30,-32 -27,-97 -10,-23 8,-53l22 85zm-11581 -21c-81,17 -137,-11 -230,-16l-195 -5c88,-77 358,-38 425,21zm-489 -43l6 7c0,-1 -8,-4 -6,-7zm11985 -106l6 6c-1,0 -9,-4 -6,-6zm-43 -85l0 0zm0 0l-24 -42 24 42zm-43 -85l7 6c-1,0 -9,-4 -7,-6zm-21 -43l6 7c0,-1 -8,-5 -6,-7zm-64 -106l0 0zm0 0l0 0zm-42 -64l0 0zm-22 -43l22 43 -22 -43zm0 0l-21 -21 21 21zm-42 -64l21 43 -21 -43zm0 0l-21 -21 21 21zm-21 -21l0 0zm-43 -64l0 0zm0 0l0 0zm-511 -553l-101 115 101 -115zm-113 -60l70 17 -70 -17zm70 17c-43,21 -65,14 -97,30 -53,26 -67,72 -170,108 -66,22 -185,46 -47,-26 217,-114 127,-93 251,-176l34 30c30,31 10,7 29,34zm-1298 -255c140,74 268,153 403,235 178,107 200,169 491,169 -58,56 -43,41 -43,149 109,-25 188,-31 283,-79 128,-66 67,-38 140,-116l67 -60c273,183 344,485 453,633 35,48 51,67 76,115 27,53 35,73 74,118 85,102 73,108 128,233l270 646c118,244 78,194 163,391 22,52 25,73 44,126l124 429c27,106 35,234 48,336 14,110 31,213 38,324 9,135 -96,110 -145,200 -95,176 73,213 83,405 5,94 -1,83 49,131 -173,4 -449,209 -545,307 -143,145 -207,331 -115,523 -92,62 -169,137 -270,199 -318,196 -418,280 -759,454 -70,35 -100,59 -163,92 -46,-31 -85,-67 -124,-110 -116,-126 32,-414 -238,-486 58,-249 2,-434 -240,-547 -425,-200 -949,292 -582,752 53,67 155,133 243,161 43,14 124,23 196,19 112,-7 82,-24 170,-44 9,107 -20,29 41,87 1,1 87,54 93,56 100,48 131,28 228,6 100,189 95,54 107,191 -67,16 -704,412 -737,435 -183,124 -183,73 -376,219 -469,354 -863,490 -1101,667 -141,105 -136,53 -135,-3 4,-199 26,-684 56,-844l27 -205c5,-95 -9,-148 3,-224 49,-308 3,-689 88,-1006 22,-81 42,-148 51,-245 4,-50 -13,-160 54,-202 56,-35 342,-4 639,-256l77 -73c325,-364 245,-664 292,-750l125 -174c72,20 104,74 223,33 59,-20 127,-95 169,-139 -20,-64 -37,-90 -42,-150 -6,-72 13,6 -2,-57 -1,-4 -32,-63 -36,-70 -22,-19 -18,-6 7,-21l0 -40 -48 -45c-52,-77 -38,-47 -122,-84 -71,-11 -32,-20 -43,20 -311,237 -175,399 -149,511 -74,49 -101,140 -212,149 -7,-18 4,-76 -154,-103 -227,-38 -415,166 -499,323l-250 541c-1,2 -4,8 -4,10 -1,3 -3,9 -4,11l-69 176c-62,0 -180,-14 -253,-24 -45,-6 -171,-61 -215,-83 3,-140 125,-561 170,-745 19,-78 19,-83 43,-149l195 -912c72,-363 139,-825 464,-1026l791 -826c3,-4 7,-8 10,-11l182 -181c3,-3 7,-8 10,-11l136 -141c68,19 183,109 319,43 -36,-154 -102,-61 -199,-120 -102,-60 61,17 -140,-115 -59,-38 -110,-78 -129,-148zm0 0l-21 -21 21 21zm-21 -21l-22 -22 22 22zm-22 -22l0 0zm-12240 490c0,-228 108,-545 178,-759 80,-244 230,-283 391,-312 78,-14 83,-36 197,-36 29,78 171,166 171,234 0,273 -164,468 -314,601 -118,105 -449,312 -623,272zm16732 -1150c197,-45 239,-290 706,82 163,130 328,483 398,666 84,223 131,342 131,572 -152,32 -400,-151 -543,-224l-337 -173c-210,-106 -236,-106 -359,-301 -50,-79 -89,-129 -102,-239 -14,-134 -29,-173 0,-298 132,36 24,152 138,98 50,-24 20,-66 -32,-183zm-11516 852c0,409 -506,306 -680,211l-130 -83c-46,-35 -68,-58 -112,-101 -52,-53 -155,-173 -189,-236 -88,-159 -183,-433 2,-559 158,-107 210,-80 304,-70 491,48 352,-2 656,-163 52,46 94,108 170,128 -41,153 -122,138 -90,408l69 465zm8834 -937l82 -67c65,49 29,17 67,88 -55,15 -77,38 -128,64 -6,-66 0,-40 -21,-85zm-4492 -149c177,0 324,2 472,18 178,20 444,7 724,42 97,12 137,18 230,26 159,13 285,45 444,67 500,68 325,92 408,293 114,278 50,203 255,470 3,3 7,8 10,12l133 143c72,88 27,65 134,121 -24,36 -37,64 -74,97 -45,41 -42,25 -88,82 -106,135 -127,115 -247,264l-247 284c-34,42 -51,51 -87,84l-158 182c-142,142 -152,130 -301,232 -93,64 -83,114 -182,180 32,-150 -29,-120 -120,-327l-48 -79c-143,-180 -91,-183 -236,-403l-201 -309c-119,-149 -60,-142 -133,-251 -61,-90 -199,-310 -230,-408 -34,-107 -50,-88 -99,-157l-94 -161c-169,-208 -37,-88 -180,-331 -40,-66 -73,-79 -85,-171zm6344 -979l6 6c0,0 -8,-4 -6,-6zm3874 213c0,-220 -14,-112 -42,-234 460,-689 1304,-304 1308,356 6,816 -1027,1041 -1372,389 133,-182 144,65 102,-426 139,0 177,-17 302,-21 141,-5 203,-64 256,-64 81,0 7,-7 63,21 -17,64 -38,68 -78,135 -122,203 -57,99 -369,99l0 64c439,102 362,18 414,-76 23,-42 53,-80 76,-115 70,33 134,48 192,21 100,-209 -26,-149 -171,-149 16,-61 189,-161 94,-244 -18,-15 -39,-25 -51,-33 -57,15 -21,-4 -74,32 -121,83 6,114 -201,182 -40,14 -392,62 -449,63zm-21607 -2597c-1,79 -26,165 -42,234l13 -178c3,-6 12,-24 14,-29l15 -27zm19159 42l0 0zm-19137 -106c0,101 0,40 -22,64 0,-101 0,-41 22,-64zm2341 -319l7 6c-1,-1 -9,-4 -7,-6zm-64 -107l7 6c-1,0 -9,-4 -7,-6zm873 298c-6,-7 -15,-16 -20,-21l-30 -40c-73,-15 -8,-4 -36,19 -6,106 -46,108 -229,82 -135,-18 -213,-50 -311,-138 -338,-305 -231,-387 -203,-710 10,-128 67,-155 130,-232 240,-296 386,-343 748,-264 274,59 342,211 484,410 177,250 105,150 85,383 -11,131 -3,124 -92,228l-29 35c-3,3 -7,8 -10,12 -4,4 -16,17 -21,21 -9,8 -36,29 -50,35 -67,35 -96,18 -153,38 -69,25 -39,40 -113,78 -47,25 -85,31 -150,64zm-894 -809l-25 298c-46,-16 -30,14 -28,-124 1,-48 -3,-42 4,-78 13,-60 20,-62 49,-96zm1512 -106l6 6c0,0 -9,-4 -6,-6zm-22 -43l0 0zm-127 -191c86,58 101,77 127,191 -46,-34 -110,-128 -127,-191zm8749 -1001c437,0 784,251 983,635 71,137 89,276 71,431 -6,52 -21,134 -37,207l-156 397c-26,35 -34,46 -51,77 -159,295 -497,405 -826,431 -272,21 -556,-119 -746,-310 -84,-84 -185,-202 -234,-319 -182,-436 -103,-929 202,-1235 219,-220 459,-314 794,-314zm-8749 1001l-22 -22 22 22zm-22 -22l0 0zm-64 -64l7 7c-1,-1 -9,-4 -7,-7zm-63 -42l6 6c-1,0 -9,-4 -6,-6zm18818 -2597l6 6c0,0 -9,-4 -6,-6zm85 -170c-5,57 -10,57 -22,106 -11,-19 -36,39 -13,-59 10,-43 -7,-17 35,-47zm21 -22l-21 22 21 -22zm0 0c3,-125 62,-231 64,-234 0,167 19,139 -64,234zm64 -234c0,-109 0,-35 21,-64 0,113 0,32 -21,64zm0 -106c0,-55 34,-4 13,0 -1,0 -13,59 -13,0zm0 -64c0,-55 34,-4 13,0 -1,0 -13,59 -13,0zm0 -85c0,-55 34,-4 13,0 -1,0 -13,59 -13,0zm0 -64c0,-55 34,-4 13,0 -1,0 -13,59 -13,0zm-1235 -43l0 43 -64 0c34,-49 4,-25 64,-43zm-276 -42c-100,-53 -107,-58 -107,-192 0,-382 526,-314 238,46 -40,50 -85,114 -131,146zm-937 -660l6 6c0,0 -8,-4 -6,-6zm106 -149l7 6c-1,0 -9,-4 -7,-6zm171 -192c22,-22 80,34 23,11 0,0 -59,25 -23,-11zm-3534 21l41 -24 -41 24zm362 -21l404 -42c-55,47 -79,43 -169,43 -78,0 -157,-1 -235,-1zm3342 -64c-37,33 -26,29 -85,43 48,-66 -14,-35 85,-43zm0 0c62,-85 229,-127 383,-127 -59,40 -337,123 -383,127zm553 -255l0 0zm-22160 5823l-176 493c-37,122 -95,435 -186,496 7,-78 41,-126 62,-194 27,-84 23,-132 56,-220 28,-74 51,-141 71,-206l67 -221 91 -218c1,-4 6,-11 7,-13 2,-3 5,-10 8,-14l0 97zm-1128 180l6 6c0,0 -8,-4 -6,-6zm21 -107l7 7c-1,-1 -9,-4 -7,-7zm128 -276c-2,80 -8,105 -64,170 7,-80 2,-35 20,-86l44 -84zm21 -22l-21 22 21 -22zm0 0c0,-108 0,-35 22,-63 0,112 -1,31 -22,63zm-191 596c13,91 90,86 193,86 55,26 57,10 105,-22l-85 235c-46,90 -80,106 -213,106 -27,-40 -30,-44 -58,-94 -5,-10 -20,-38 -21,-40 -20,-48 -17,-5 1,-70 1,-4 3,-10 4,-15 32,-115 12,-99 74,-186zm340 -106c0,-54 34,-3 13,0 0,0 -13,59 -13,0zm830 -426c0,-54 34,-3 13,0 0,0 -13,60 -13,0zm-510 596c-46,-72 142,-605 184,-709l50 -100c0,170 -71,269 -114,397l-120 412z"/>
  <path class="fil1 yellow" d="M10524 10226l0 0zm0 0l-24 -42 24 42zm-127 -192c22,-22 80,34 23,11 0,0 -59,25 -23,-11zm-192 -234c4,-4 89,-4 45,30 -23,17 -57,-17 -45,-30zm-42 -106c7,-3 14,-59 42,64 -65,-44 -29,-39 -42,-64zm-43 -85l47 38c-60,-10 -28,12 -47,-38zm-170 -277c85,57 143,162 170,277 -75,-51 -146,-173 -170,-277zm0 0l0 0zm-1043 -1554l6 6c0,0 -9,-4 -6,-6zm-490 0c106,25 164,42 298,42 -43,59 -59,55 -158,33 -85,-18 -101,-22 -140,-75zm532 -21l7 6c-1,0 -9,-4 -7,-6zm-532 21l0 0zm596 -21c-55,6 -6,-72 -1,-27l1 27zm-681 -43l6 6c0,0 -8,-4 -6,-6zm383 -21l0 0zm0 0l0 0zm-426 -43l25 42 -25 -42zm128 -64c80,43 124,34 149,128 -105,-24 -135,-15 -149,-128zm-128 64l0 0zm-42 -85l6 6c0,0 -8,-4 -6,-6zm85 -43l-42 25 42 -25zm0 0l0 0zm1107 -553c66,49 51,47 0,106 -27,-124 2,-9 0,-106zm-64 255c0,126 -325,387 -473,452 -43,19 -13,-7 -81,38 -220,-330 -638,-394 -638,-106 0,185 281,345 451,327 17,-2 85,-17 135,0 80,26 240,285 298,363l379 473c67,101 157,163 207,282l63 108c63,83 100,111 140,201l385 615c28,32 9,6 40,46l243 353c36,55 25,56 107,63 2,92 -10,46 26,102 1,2 24,29 30,35l55 53c3,4 13,26 15,30l264 369c108,195 185,400 353,546 23,21 44,73 74,8 23,-50 -47,-102 -79,-157l-138 -245c-69,-146 -167,-270 -261,-399l-105 -151c-103,-147 -197,-335 -307,-480l-222 -289c-105,-162 -155,-344 -267,-499 -83,-113 -168,-181 -233,-300 -71,-131 -106,-202 -201,-310l-461 -581c-77,-117 -160,-185 -225,-308 152,-35 207,-173 296,-279l142 -156c104,-110 134,-156 297,-109 22,6 70,33 74,33 108,0 144,-40 256,-42 40,-173 9,-115 163,-241 59,-49 93,-77 113,-164 -143,3 -68,73 -304,207l-105 44c-12,2 -106,17 -111,18 -94,13 -143,-1 -203,-13 21,-100 42,-405 -107,-405 -107,0 -216,117 -178,237 1,2 3,8 4,11 2,2 4,8 5,11l23 78c21,71 0,13 24,62 18,34 37,17 37,69z"/>
  <path class="fil2 yellow" d="M23531 3329c118,7 346,-199 180,-627 -124,-321 -200,-30 -86,-536 68,-301 102,-325 76,-688 -9,-121 -49,-210 -82,-302 -49,-135 -120,-257 -203,-372 -129,-178 -342,-436 -559,-342 -230,100 -402,787 -311,1148 19,73 28,77 48,144 78,258 129,282 245,521 40,82 174,282 245,330l38 -47c-21,-98 -371,-433 -494,-966 -47,-207 -45,-363 -4,-553 47,-219 232,-732 509,-441 383,403 565,720 468,1311 -40,247 -113,270 -113,632 -49,33 -69,57 -149,64l-111 -338c-45,-131 -45,-72 -59,-66 -104,44 -21,11 50,312 12,51 22,55 35,113 -62,-14 -65,-21 -149,-21 17,197 3,12 -49,207 -53,203 130,583 326,517 38,113 61,344 80,495l135 1505c21,75 -26,21 40,65 0,-92 -5,-42 22,-57l17 152c1,6 6,96 6,97 0,0 -7,54 41,106 0,-961 -183,-490 162,-1009l519 -737c129,62 178,60 358,153 348,180 577,277 929,498 54,34 51,16 75,59 25,-43 21,-10 -8,-59l-37 -55 45 -9c-31,-59 -2,-25 -56,-63 -135,-93 -865,-446 -1043,-531 -67,-32 -119,-47 -178,-78 291,-435 904,-1187 1292,-1623 53,-60 22,-13 49,-80 -56,-2 -67,9 -106,42 -30,-20 -49,46 -14,-42 -102,55 -442,526 -537,642l-514 656c-42,55 -73,98 -121,156 -22,27 -45,57 -65,84l-249 347c-26,38 -37,45 -66,83l-499 672 -68 -742c-11,-104 -23,-259 -39,-366 -15,-105 -21,-196 -21,-361z"/>
  <path class="fil3 yellow" d="M26682 5458c55,40 45,47 63,127 -120,-13 -63,-34 -63,-127zm255 -107l0 0zm0 0l0 0zm85 -64l0 0zm-149 -85c2,-2 7,3 7,6l-7 -6zm149 85c31,-17 23,-10 64,-21l0 -106c-89,-24 -33,-33 -117,-55 -92,-24 -65,9 -143,-7 -199,-41 -187,-105 -272,-66 25,94 137,119 234,128 -23,84 -59,81 -128,127 -58,-43 -74,-124 -291,-241 -66,-36 -61,-43 -113,-78 153,-289 101,-296 283,-355 561,-181 1080,291 870,848 -220,586 -1183,546 -1281,-176 -28,-204 28,-98 64,-232 71,19 385,244 404,319 -16,201 -67,320 192,320 147,-220 0,-197 -30,-311 -41,-156 87,94 264,98 47,-97 47,-103 0,-192zm-1256 -754l-45 9 37 55c29,49 33,16 8,59 -78,163 -8,320 115,431 49,45 75,51 162,51 0,826 805,980 1248,631 57,-45 111,-126 149,-192 126,-223 127,-602 -86,-834 -134,-146 -325,-232 -558,-249 -176,-13 -339,35 -476,155 -229,-154 -202,-153 -421,-100 -141,34 0,-17 -133,-16z"/>
  <path class="fil4 yellow" d="M26831 796l6 6c0,0 -9,-4 -6,-6zm-250 -633c187,-101 359,-88 540,45 157,115 223,308 197,522 -12,102 -55,180 -109,252 -51,67 -112,133 -194,168 -55,23 -73,20 -137,33 -90,19 -239,99 -310,159 -40,33 -33,23 -68,60 -44,47 -13,34 -74,75 -56,-13 -62,-20 -106,-43 15,-56 106,-217 143,-304l133 -313 127 24c2,52 7,76 18,108 39,123 144,166 281,166 17,-151 62,18 107,-149 -107,9 -95,69 -199,49 -119,-22 -81,-72 -121,-155 169,-15 267,-137 43,-256 -118,103 -55,118 -170,128 0,-104 73,-343 -88,-263 -46,24 -76,71 -90,130 -27,110 25,89 17,168 -4,33 -88,248 -107,315 -26,93 -14,76 -64,148 -41,59 -66,76 -73,162 -56,-13 -62,-20 -106,-43 46,-70 84,-96 132,-187 118,-226 -37,-479 38,-707 41,-122 122,-227 240,-292zm823 272c-33,-104 -67,-137 -126,-215 -75,-100 -88,-96 -206,-156 -124,-63 -284,-87 -434,-37 -4,1 -56,22 -61,25 -105,62 -149,72 -240,186 -50,63 -85,143 -106,236 -35,153 44,462 -14,624 -16,44 -106,170 -138,202 -36,35 -244,136 -288,395 -26,155 35,177 60,271 -59,89 -107,84 -141,192 -35,88 -16,22 14,42 39,-33 50,-44 106,-42 52,-27 75,-80 107,-128 159,14 183,105 350,-11 212,-147 219,-400 235,-446 23,-66 172,-191 244,-224 386,-175 826,-319 638,-914zm-573 275c22,-22 80,34 23,12 0,-1 -59,24 -23,-12z"/>
  <path class="fil5 yellow" d="M16740 19784c11,-40 -28,-31 43,-20 63,-159 -121,-328 234,-534 149,-86 390,-90 541,34l35 30c165,145 195,462 84,639 -93,148 -333,234 -575,234 -54,-116 21,-16 -16,-96 -26,-59 -17,-4 -69,-74l170 -151c136,-112 28,-159 -57,-80 -83,77 -14,93 -134,103 35,-53 68,-79 114,-141 68,-91 66,-72 205,-72 -15,67 -29,68 0,128 106,-28 104,-106 85,-192 -59,-28 -41,-21 -127,-21 29,-60 56,-161 -45,-172 -115,-13 -68,81 -90,166l-233 283 48 45c27,26 35,3 0,40l-7 21c4,7 35,66 36,70 15,63 -4,-15 2,57 5,60 22,86 42,150 405,41 816,-134 787,-542 -15,-211 -4,-248 -105,-383 -244,-331 -947,-288 -1008,246 -30,268 18,217 40,232z"/>
  <path class="fil1 yellow" d="M14463 11503c241,-20 102,9 255,21 -68,102 -243,130 -255,-21zm298 -340c62,45 40,-3 42,106 -102,-75 -37,-65 -42,-106zm298 -192c26,30 23,24 40,66 12,30 16,52 24,83 -57,-42 -62,-53 -64,-149zm0 277c-69,46 -22,42 -149,42l-30 -137c-73,-183 -231,-94 -247,95 5,5 17,13 19,15l36 26c88,70 94,71 94,172 -154,-103 -487,-93 -414,115 31,87 -8,22 44,63 174,136 333,3 413,-51 41,28 108,60 143,91 86,78 10,57 133,122l39 -47c-27,-112 -181,-189 -273,-251 12,-50 20,-63 21,-128 158,14 66,28 235,-85l192 170c115,88 320,168 423,85 13,-11 55,-69 66,-84l-47 -39c-23,14 -88,81 -102,81 -211,0 -383,-169 -469,-298 36,-74 50,-113 9,-199 -2,-4 -5,-10 -7,-14l-50 -79c-28,-35 -46,-48 -79,-70 -205,194 -12,268 0,405z"/>
  <path class="fil6 yellow" d="M5330 11801c81,7 77,27 112,80 38,57 64,74 80,133 -144,0 -236,-29 -192,-213zm618 -170c6,75 14,47 12,104 0,26 -11,57 -12,109 -31,-49 -42,-100 -27,-154 21,-77 11,-35 27,-59zm-320 0c51,37 57,67 64,149 -55,-40 -53,-64 -64,-149zm127 788c28,-23 -37,-34 36,-19l30 40c5,5 14,14 20,21 -23,-148 -128,-327 -191,-447l68 -59 165 20c8,84 87,270 107,358l43 0c34,-163 -62,-257 -60,-362 2,-74 45,-85 58,-172 52,-341 -149,-272 -188,-144 -25,82 -1,142 20,231 -150,-3 -85,-21 -104,-150 -40,-279 -257,-209 -186,13 29,91 104,99 55,201l-91 -79c-35,-44 -37,-57 -72,-98 -104,-117 -139,-47 -220,7 0,174 16,324 273,312 155,-7 60,22 222,300l15 27z"/>
  <path class="fil0" d="M9056 16782c-37,5 -30,-62 -2,-28 0,0 1,2 1,2l1 26zm-149 -276c10,-10 120,11 38,11 0,0 -3,0 -3,0 -20,-5 -73,27 -35,-11zm170 -22c-97,0 -11,-63 -170,-63 -108,0 -70,104 -64,170 87,20 100,21 213,21 -36,100 7,-4 -62,66 -119,122 8,234 104,190l0 127c244,59 183,-100 170,-255 54,-36 153,-99 195,-146 39,-43 146,-156 146,-216 0,-81 7,-8 -21,-64 -57,15 -67,35 -107,85l-191 192c-52,42 -62,67 -128,85 -20,-42 -30,-76 -43,-128 108,-25 468,-253 432,-336 -50,-113 -316,272 -474,272z"/>
  <path class="fil6 yellow" d="M21530 16591c77,20 57,2 64,85 -62,-45 -26,-14 -64,-85zm-255 64c0,162 63,234 212,234 -13,-163 -127,-14 -127,-213 0,-95 29,-110 106,-128 0,291 213,183 213,128 0,-107 -61,-123 -106,-192 59,-39 102,-83 197,-28 101,59 24,124 143,156 85,-177 -214,-354 -370,-200 -68,66 2,43 -101,70 -27,7 -167,2 -167,173z"/>
  <path class="fil6 yellow" d="M23212 1881l6 7c0,-1 -8,-5 -6,-7zm127 -127c31,112 107,46 107,149 0,58 -99,143 -137,75 -34,-61 25,-182 -97,-182 -138,0 -57,160 -22,213 -111,-2 -149,-41 -149,-128 0,-105 73,-96 -63,-127 -39,164 -25,340 191,340 80,0 10,-16 72,-28 48,-9 290,67 290,-163 0,-116 -129,-220 -192,-149z"/>
  <path class="fil6 yellow" d="M4862 16633l85 0c10,-111 -20,-38 43,-63 53,115 -71,56 -85,234 150,32 119,-59 212,-128 66,142 -136,102 -149,256 110,-3 195,-66 234,-153 34,-75 9,-119 -32,-155 -101,-88 95,72 -27,-16 -75,-56 -135,-192 -248,-91 -36,32 -32,59 -33,116z"/>
  <path class="fil6 yellow" d="M16975 22126c-92,-44 -270,7 -182,139 57,87 16,-30 54,74 -79,-19 -60,-36 -149,-43 8,94 49,128 128,128 100,0 64,-80 177,-206 74,-84 69,-53 35,-199l-85 0c5,58 10,58 22,107z"/>
  <polygon class="fil7" points="20849,11972 20828,11972 20845,11996 "/>
  <path class="fil8 yellow" d="M20232 15058c2,2 6,-9 6,-6l0 0c-1,0 -9,4 -6,6z"/>
  <path class="fil9 yellow" d="M21722 12823l6 -6c0,0 -8,4 -6,6z"/>
  <path class="fil10" d="M13298 26754c198,-36 268,166 579,226 389,75 270,144 819,144 239,0 680,10 896,78 130,41 441,-80 45,122 -333,171 -849,-47 -1187,48 -310,87 -803,-191 -1017,-408 -47,-47 -257,-188 -135,-210z"/>
  <path class="fil10" d="M13298 27885c198,-36 268,166 579,226 389,75 270,144 819,144 239,0 680,10 896,77 130,41 441,-80 45,123 -333,171 -849,-47 -1187,48 -310,86 -803,-191 -1017,-408 -47,-47 -257,-188 -135,-210z"/>
 </g>
</svg>