<?xml version="1.0" encoding="utf-8"?>
<!-- Generator: Adobe Illustrator 19.0.0, SVG Export Plug-In . SVG Version: 6.00 Build 0)  -->
<svg version="1.1" id="Layer_1" xmlns:sketch="http://www.bohemiancoding.com/sketch/ns"
	 xmlns="http://www.w3.org/2000/svg" xmlns:xlink="http://www.w3.org/1999/xlink" x="0px" y="0px" viewBox="-282.1 341.2 44.1 90.1"
	 style="enable-background:new -282.1 341.2 44.1 90.1;" xml:space="preserve">
<style type="text/css">
	.st0{fill:none;stroke:#000000;stroke-width:1.8509;}
	.st1{fill:none;stroke:#000000;stroke-width:0.9254;stroke-linecap:round;}
</style>
<title>lamp</title>
<desc>Created with Sketch.</desc>
<g sketch:type="MSPage">
	<g transform="translate(-27.000000, -4.000000)" sketch:type="MSArtboardGroup">
		<g transform="translate(28.000000, 5.000000)" sketch:type="MSLayerGroup">
			<path sketch:type="MSShapeGroup" d="M-258.6,346.2c3.4,0.4,7.7,1.6,7.7,1.6c0.3,0.1,0.4,0.3,0.4,0.6c0,0.1-0.1,0.2-0.2,0.3
				c0,0-1.4,0.2-3.2,0.3l0.4,4.5h0.2c1,0,1.9,0.8,1.9,1.8l0.1,1.2l0,0h1.5c4.1,0,7.7,3.4,8,7.5l2.8,44.4c0.2,4-2.8,7.3-6.8,7.3
				h-30.5c-4,0-7-3.3-6.7-7.3l3.4-44.5c0.3-4.1,3.9-7.5,8.1-7.5h0.8l0.1-1.2c0-1,0.9-1.8,1.9-1.8h0.2l0,0l0.4-4.5
				c-1.8-0.2-3.2-0.3-3.2-0.3c-0.1,0-0.2-0.1-0.2-0.3c0-0.3,0.2-0.5,0.4-0.6c0,0,4.3-1.1,7.9-1.5c-0.4-0.2-0.8-0.7-0.8-1.1v-2.3
				c0-0.8,0.5-1.7,1.2-2.1c0,0,0.7-0.6,1.8-0.6c0.9,0,1.8,0.6,1.8,0.6c0.7,0.4,1.2,1.3,1.2,2.1v2.3
				C-258,345.5-258.3,345.9-258.6,346.2L-258.6,346.2z M-267.5,365.7h-3.9c-0.6,0-1.1-0.5-1.1-1.2c0-0.6,0.5-1.2,1.1-1.2h20.9
				c0.6,0,1.1,0.5,1.1,1.2c0,0.6-0.5,1.2-1.1,1.2h-3.6l1.8,5.8c0.1,0.2-0.1,0.4-0.3,0.4h-16.2c-0.2,0-0.4-0.2-0.3-0.4L-267.5,365.7
				L-267.5,365.7z M-270.9,358.8c-3.5,0.2-6.6,3.2-6.8,6.7l-3.1,41.5c-0.3,3.6,2.5,6.5,6.1,6.5h27.5c3.6,0,6.4-2.9,6.2-6.5
				l-2.5-41.5c-0.2-3.7-3.4-6.8-7.2-6.8h-0.4l0.2,4.6h-20.2L-270.9,358.8L-270.9,358.8z M-264.8,349.7c-0.7,0-1.3,0.6-1.3,1.3v0.2
				c0,0.7,0.6,1.3,1.3,1.3h1.6c0.7,0,1.3-0.6,1.3-1.3V351c0-0.7-0.6-1.3-1.3-1.3H-264.8z M-258.8,349.7c-0.7,0-1.3,0.6-1.3,1.3v0.2
				c0,0.7,0.6,1.3,1.3,1.3h1.6c0.7,0,1.3-0.6,1.3-1.3V351c0-0.7-0.6-1.3-1.3-1.3H-258.8z M-261,341.4c-0.6,0-1.1,0.4-1.1,0.4
				c-0.4,0.2-0.8,0.8-0.8,1.4v1.5c0,0.3,0.2,0.7,0.6,0.8c0,0,0.6,0.2,1.3,0.2c0.6,0,1.3-0.2,1.3-0.2c0.3-0.1,0.6-0.4,0.6-0.8v-1.5
				c0-0.5-0.4-1.1-0.8-1.4C-260,341.8-260.4,341.4-261,341.4z"/>
			<path sketch:type="MSShapeGroup" d="M-254.2,410.8c4.1,0.9,6.8,2.7,7,4.7c0,0,0,0,0,0c1-0.2,1.8,0.5,1.8,1.6v6.3c0,0,0,0,0,0
				c1.3-0.2,2.4,0.6,2.4,2v0.1c0,1.3-1,2.8-2.3,3.2c0,0-3.1,1.6-15.5,1.6c-12.4,0-15.7-1.6-15.7-1.6c-1.3-0.4-2.3-1.8-2.3-3.1v-0.1
				c0-1.3,1-2.2,2.3-2l0,0v-6.3c0-1,0.8-1.7,1.8-1.6c0,0,0.1,0,0.3,0l0,0c0.1-2.2,3.3-4,7.9-4.9c-0.9-0.8-1.5-1.8-1.5-2.9
				c0-2.7,15.6-2.7,15.6,0C-252.5,408.9-253.2,410-254.2,410.8z"/>
			<path sketch:type="MSShapeGroup" d="M-251.2,406.5c0,0-3.3-7.1-6.6-9.9c-3.7-3.1-11-4.6-14.6-7.7l0.2-0.8
				c3.2,3,11.1,4.7,14.9,7.9c3.3,2.8,6.6,9.9,6.6,9.9L-251.2,406.5z"/>
			<path sketch:type="MSShapeGroup" d="M-270,406.5c0,0,3.3-7.1,6.6-9.9c3.7-3.1,11.1-4.6,14.8-7.7l-0.2-0.8
				c-3.3,3-11.2,4.7-15.1,7.9c-3.4,2.8-6.6,9.9-6.6,9.9L-270,406.5z"/>
			<path sketch:type="MSShapeGroup" class="st0" d="M-268.8,371.9c0,8.3-4.6,15.2-4.6,24.4c0,9.2,4.2,10.8,4.2,10.8
				c0.2,0.1,0.6,0.2,0.9,0.2h15.3c0.3,0,0.7-0.1,0.9-0.2c0,0,4.6-1.6,4.6-10.8s-5-16.2-5-24.4H-268.8z"/>
			<path sketch:type="MSShapeGroup" class="st1" d="M-280.3,404.9h5c1,0,1.8,0.8,1.8,1.9v0.2c0,1,0.8,1.9,1.8,1.9h3.4"/>
			<path sketch:type="MSShapeGroup" class="st1" d="M-240.7,405.1h-5c-1,0-1.8,0.8-1.8,1.9l0,0c0,1-0.8,1.9-1.8,1.9h-3.4"/>
		</g>
	</g>
</g>
</svg>
