<?xml version="1.0" encoding="utf-8"?>
<!-- Generator: Adobe Illustrator 19.0.0, SVG Export Plug-In . SVG Version: 6.00 Build 0)  -->
<svg version="1.1" id="Layer_1" xmlns="http://www.w3.org/2000/svg" xmlns:xlink="http://www.w3.org/1999/xlink" x="0px" y="0px"
	 viewBox="-252.5 343.3 95 81.5" style="enable-background:new -252.5 343.3 95 81.5;" xml:space="preserve">
<g>
	<path d="M-157.5,421.8l-5.1-39.8c-0.1-0.9-0.8-1.8-1.7-2.1l-8.6-3.1c-0.8,1.5-1.6,3.1-2.4,4.6l7.7,2.8l4.4,34.3l-18.3-5.9
		l-1.3-20.2c-0.9,0.4-1.9,0.6-3,0.6c-0.7,0-1.5-0.1-2.1-0.3l1.3,20l-16,5.8V384l6.4-2.6l-2.4-4.6l-6.4,2.7l-17.6-7.3
		c-0.6-0.2-1.3-0.3-1.9-0.1l-21.2,7.8c-0.9,0.3-1.5,1.1-1.7,2.1l-5.1,39.8c-0.1,0.9,0.2,1.7,0.9,2.3s1.6,0.7,2.4,0.5l22.9-7.4
		l20.4,7.4c0.6,0.2,1.2,0.2,1.7,0l20.4-7.4l22.9,7.4c0.3,0.1,0.5,0.1,0.8,0.1c0.6,0,1.2-0.2,1.6-0.6
		C-157.8,423.5-157.4,422.7-157.5,421.8z M-228.6,412.6l-18.3,5.9l4.4-34.3l16.1-5.8L-228.6,412.6z M-207.6,418.5l-16-5.8l2.2-34.4
		l13.8,5.7V418.5z"/>
	<path d="M-187.6,386.7c0.8,1.6,3.1,1.6,3.9,0c0,0,9.1-17.8,11.2-22c2.1-4.2,2.2-8.9,0-13.3c-3.6-7.3-12.5-10.2-19.8-6.5
		c-7.3,3.7-10.1,12.8-6.5,19.8S-187.6,386.7-187.6,386.7z M-185.6,351.3c3.9,0,7,3.1,7,7c0,3.9-3.1,7-7,7c-3.9,0-7-3.1-7-7
		C-192.6,354.5-189.5,351.3-185.6,351.3z"/>
</g>
</svg>
