<?xml version="1.0" encoding="utf-8"?>
<!-- Generator: Adobe Illustrator 19.0.0, SVG Export Plug-In . SVG Version: 6.00 Build 0)  -->
<svg version="1.1" id="Layer_1" xmlns="http://www.w3.org/2000/svg" xmlns:xlink="http://www.w3.org/1999/xlink" x="0px" y="0px"
	 viewBox="-244.7 361.1 60.3 50.8" style="enable-background:new -244.7 361.1 60.3 50.8;" xml:space="preserve">
<g>
	<path d="M-191.1,371.6c-1.7,0-3,1.8-3,4c0,2.2,1.3,4,3,4s3-1.8,3-4C-188.1,373.4-189.4,371.6-191.1,371.6z M-191.1,377.6
		c-0.4,0-1-0.8-1-2c0-1.2,0.6-2,1-2c0.4,0,1,0.8,1,2C-190.1,376.8-190.7,377.6-191.1,377.6z"/>
	<path d="M-191.1,366.1c-1.9,0-3.7,1.1-5,3.1c-0.4,0.6-0.8,1.6-1.2,3c0,0.1-0.1,0.1-0.2,0.1h-3.4v-2.4c0-2.1-1.7-3.8-3.8-3.8
		c-0.7,0-1.3,0.2-1.8,0.5c-0.1-2-1.8-3.6-3.8-3.6c-0.8,0-1.5,0.2-2.1,0.6c-0.5-1.4-1.9-2.5-3.5-2.5c-1.6,0-3,1-3.5,2.5
		c-0.6-0.4-1.3-0.6-2.1-0.6c-2.1,0-3.8,1.7-3.8,3.8v2.2c-1-0.8-2.2-1.3-3.6-1.3h-0.5c-1,0-1.8,0.8-1.8,1.8v2.9h-10.3
		c-0.9,0-1.8,0.4-2.4,1.1c-0.6,0.7-0.9,1.6-0.8,2.5c0.2,1.6,1.6,2.9,3.3,2.9h1.4v3.9c0,0.9,0.7,1.7,1.7,1.7h2.5
		c0.9,0,1.7-0.7,1.7-1.7v-3.9h2.9v9.3c0,3,1.7,5.6,4.2,6.9v15.8c0,0.6,0.4,1,1,1c0.6,0,1-0.4,1-1v-15.2c0.5,0.1,1,0.2,1.5,0.2h1.9
		c0.6,0,1-0.4,1-1c0-0.6-0.4-1-1-1h-1.9c-3.2,0-5.8-2.6-5.8-5.8v-18.4h0.3c1.9,0,3.4,1.5,3.6,3.3v4.5c0,0.6,0.2,1.2,0.5,1.8
		c0,0.1,0.1,0.2,0.1,0.2c0.1,0.1,0.1,0.2,0.2,0.3c0.1,0.1,0.2,0.2,0.3,0.3c0.1,0.1,0.1,0.1,0.2,0.2c0.1,0.1,0.2,0.2,0.3,0.3
		c0.1,0.1,0.2,0.1,0.2,0.2c0.1,0,0.1,0.1,0.2,0.1c0.4,0.2,0.8,0.4,1.3,0.5c4.4,1,7.6,5,7.6,9.6c0,0.6,0.4,1,1,1c0.6,0,1-0.4,1-1
		c0-3.5-1.6-6.8-4.1-9c0.2,0,0.4,0.1,0.6,0.1c1.3,0,2.4-0.6,3.1-1.6c0.7,0.6,1.6,1,2.5,1c1.1,0,2.1-0.5,2.8-1.3
		c0.7,0.8,1.7,1.3,2.8,1.3c0.7,0,1.3-0.2,1.8-0.5v7c0,2.6-1.2,5-3.2,6.6c-0.9,0.7-1.4,1.8-1.4,3v13.3c0,0.6,0.4,1,1,1
		c0.6,0,1-0.4,1-1v-13.4c0-0.6,0.2-1.1,0.6-1.4c2.5-2,4-5,4-8.2v-9h3.3c0.1,0,0.2,0.1,0.2,0.1c1,3.7,3.5,6.1,6.3,6.1
		c3.7,0,6.8-4.3,6.8-9.5C-184.3,370.4-187.4,366.1-191.1,366.1z M-234.7,376.8c-0.8,0-1.5,0.7-1.5,1.5v4.1h-1.8v-4.1
		c0-0.8-0.7-1.5-1.5-1.5h-1.9c-0.7,0-1.3-0.5-1.3-1.1c0-0.4,0.1-0.7,0.3-1c0.2-0.3,0.6-0.4,0.9-0.4h10.3v2.5H-234.7z M-221.6,365
		c1,0,1.8,0.8,1.8,1.8v10.7c0,1-0.8,1.8-1.8,1.8c-0.1,0-0.1,0-0.2,0c-0.1,0-0.2-0.1-0.3-0.1c-0.4-0.1-0.7-0.3-0.9-0.5
		c0,0,0-0.1-0.1-0.1c-0.2-0.3-0.3-0.6-0.3-1v-4.4c0-0.2,0-0.4,0-0.6v-5.9C-223.4,365.8-222.6,365-221.6,365z M-214.2,378.2
		c0,1-0.8,1.8-1.8,1.8s-1.8-0.8-1.8-1.8v-0.6v-10.8v-1.9c0-1,0.8-1.8,1.8-1.8s1.8,0.8,1.8,1.8v1.9v10.7V378.2z M-210.3,379.4
		c-1,0-1.8-0.8-1.8-1.8v-10.8c0-1,0.8-1.8,1.8-1.8s1.8,0.8,1.8,1.8v3.1v7.7C-208.5,378.6-209.4,379.4-210.3,379.4z M-204.7,379.4
		c-1,0-1.8-0.8-1.8-1.8v-7.7c0-1,0.8-1.8,1.8-1.8s1.8,0.8,1.8,1.8v3.4v0.8v3.5C-202.9,378.6-203.7,379.4-204.7,379.4z M-191.1,383.1
		c-1.9,0-3.7-1.9-4.4-4.6c-0.3-1-1.1-1.6-2.1-1.6h-3.3v-2.6h3.4c1,0,1.8-0.6,2.1-1.5c0.4-1.2,0.8-2.1,1-2.5c0.9-1.4,2.1-2.2,3.3-2.2
		c2.6,0,4.8,3.4,4.8,7.5S-188.5,383.1-191.1,383.1z"/>
</g>
</svg>
