<?xml version="1.0" encoding="utf-8"?>
<!-- Generator: Adobe Illustrator 19.0.0, SVG Export Plug-In . SVG Version: 6.00 Build 0)  -->
<svg version="1.1"
	 id="Layer_1" xmlns:dc="http://purl.org/dc/elements/1.1/" xmlns:cc="http://creativecommons.org/ns#" xmlns:rdf="http://www.w3.org/1999/02/22-rdf-syntax-ns#" xmlns:svg="http://www.w3.org/2000/svg" xmlns:sodipodi="http://sodipodi.sourceforge.net/DTD/sodipodi-0.dtd" xmlns:inkscape="http://www.inkscape.org/namespaces/inkscape"
	 xmlns="http://www.w3.org/2000/svg" xmlns:xlink="http://www.w3.org/1999/xlink" x="0px" y="0px" viewBox="-240 339 70 90"
	 style="enable-background:new -240 339 70 90;" xml:space="preserve">
<g transform="translate(0,-952.36218)">
	<path d="M-210.3,1291.4c-0.4,0-0.8,0.2-1.2,0.4l-27,16c-0.9,0.5-1.5,1.6-1.5,2.6v4c0,1.6,1.4,3,3,3h18.3l-0.8,3.1l-19.4,15.5
		c-0.7,0.6-1.1,1.4-1.1,2.3v4c0,1.6,1.4,3,3,3h11.3l-8.2,32.2c-0.5,1.8,1.1,3.8,2.9,3.8h7c0.7,0,1.4-0.3,1.9-0.7l17.1-13.9
		l17.1,13.9c0.5,0.4,1.2,0.7,1.9,0.7h7c1.8,0,3.4-2,2.9-3.8l-8.2-32.2h11.3c1.6,0,3-1.4,3-3v-4c0-0.9-0.4-1.8-1.1-2.3l-19.4-15.5
		l-0.8-3.1h18.3c1.6,0,3-1.4,3-3v-4c0-1-0.6-2.1-1.5-2.6l-27-16c-0.5-0.3-1-0.4-1.5-0.4C-200,1291.4-210.2,1291.4-210.3,1291.4z
		 M-207.4,1297.4h4.8l3.6,14H-211L-207.4,1297.4z M-214.4,1300.5l-2.8,10.9h-15.6L-214.4,1300.5z M-195.6,1300.5l18.4,10.9h-15.6
		L-195.6,1300.5z M-212.5,1317.4h14.9l0.5,2h-16L-212.5,1317.4z M-214.5,1325.4h19l3.5,14H-218L-214.5,1325.4z M-221.9,1330.1
		l-2.3,9.2h-9.2L-221.9,1330.1z M-188.1,1330.1l11.5,9.2h-9.2L-188.1,1330.1z M-219.6,1345.4h29.1l0.4,1.6l-15,12.1l-15-12.1
		L-219.6,1345.4z M-221.6,1353.3l11.8,9.6l-15.3,12.4h-2.1L-221.6,1353.3z M-188.4,1353.3l5.6,22h-2.1l-15.3-12.4L-188.4,1353.3z"/>
</g>
</svg>
