<?xml version="1.0" encoding="utf-8"?>
<!-- Generator: Adobe Illustrator 19.0.0, SVG Export Plug-In . SVG Version: 6.00 Build 0)  -->
<svg version="1.1"
	 id="Layer_1" xmlns:dc="http://purl.org/dc/elements/1.1/" xmlns:cc="http://creativecommons.org/ns#" xmlns:rdf="http://www.w3.org/1999/02/22-rdf-syntax-ns#" xmlns:svg="http://www.w3.org/2000/svg" xmlns:sodipodi="http://sodipodi.sourceforge.net/DTD/sodipodi-0.dtd" xmlns:inkscape="http://www.inkscape.org/namespaces/inkscape"
	 xmlns="http://www.w3.org/2000/svg" xmlns:xlink="http://www.w3.org/1999/xlink" x="0px" y="0px" viewBox="-281 376 48 31"
	 style="enable-background:new -281 376 48 31;" xml:space="preserve">
<g transform="translate(0,-1004.3622)">
	<path d="M-265,1380.4c-0.6,0-1,0.4-1,1v13h-14c-0.6,0-1,0.4-1,1v15c0,0.6,0.4,1,1,1h46c0.6,0,1-0.4,1-1v-15c0-0.6-0.4-1-1-1h-14
		v-13c0-0.6-0.4-1-1-1H-265z M-264,1382.4h14v13c0,0.6,0.4,1,1,1h14v13h-44v-13h14c0.6,0,1-0.4,1-1V1382.4z"/>
	<path d="M-255.1,1406.4c-0.3,0-0.6-0.2-0.8-0.4l-1.1-1.5l-1.1,1.5c-0.3,0.5-0.9,0.5-1.4,0.2c-0.4-0.3-0.5-1-0.2-1.4l1.1-1.5
		l-1.7-0.6c-0.5-0.2-0.8-0.8-0.6-1.3c0.2-0.5,0.7-0.8,1.2-0.6l1.7,0.6v-1.9c0-0.6,0.4-1,1-1c0.5,0,1,0.5,1,1c0,0,0,0,0,0v1.9
		l1.7-0.6c0.5-0.2,1.1,0.1,1.2,0.7c0.2,0.5-0.1,1.1-0.6,1.3l-1.7,0.6l1.1,1.5c0.3,0.5,0.2,1.1-0.2,1.4
		C-254.7,1406.3-254.9,1406.4-255.1,1406.4L-255.1,1406.4z"/>
	<path d="M-257,1385.4c-0.6,0-1,0.5-1,1c0,0,0,0,0,0v7c0,0.6,0.4,1,1,1s1-0.4,1-1c0,0,0,0,0,0v-7
		C-256,1385.8-256.4,1385.4-257,1385.4C-257,1385.4-257,1385.4-257,1385.4L-257,1385.4z"/>
	<path d="M-245,1398.4c-0.6,0-1,0.5-1,1c0,0,0,0,0,0v7c0,0.6,0.4,1,1,1c0.6,0,1-0.4,1-1c0,0,0,0,0,0v-7
		C-244,1398.8-244.4,1398.4-245,1398.4C-245,1398.4-245,1398.4-245,1398.4z"/>
	<path d="M-242,1398.4c-0.6,0-1,0.5-1,1c0,0,0,0,0,0v7c0,0.6,0.4,1,1,1c0.6,0,1-0.4,1-1c0,0,0,0,0,0v-7
		C-241,1398.8-241.4,1398.4-242,1398.4C-242,1398.4-242,1398.4-242,1398.4z"/>
	<path d="M-239,1398.4c-0.6,0-1,0.5-1,1c0,0,0,0,0,0v7c0,0.6,0.4,1,1,1c0.6,0,1-0.4,1-1c0,0,0,0,0,0v-7
		C-238,1398.8-238.4,1398.4-239,1398.4C-239,1398.4-239,1398.4-239,1398.4z"/>
	<path d="M-271,1398.4c-0.6,0-1,0.5-1,1c0,0,0,0,0,0v7c0,0.6,0.4,1,1,1s1-0.4,1-1c0,0,0,0,0,0v-7
		C-270,1398.8-270.4,1398.4-271,1398.4C-271,1398.4-271,1398.4-271,1398.4z"/>
	<path d="M-275,1398.4c-0.6,0-1,0.5-1,1c0,0,0,0,0,0v7c0,0.6,0.4,1,1,1s1-0.4,1-1c0,0,0,0,0,0v-7
		C-274,1398.8-274.4,1398.4-275,1398.4C-275,1398.4-275,1398.4-275,1398.4z"/>
</g>
</svg>
