<?xml version="1.0" encoding="utf-8"?>
<!-- Generator: Adobe Illustrator 19.0.0, SVG Export Plug-In . SVG Version: 6.00 Build 0)  -->
<svg version="1.1"
	 id="Layer_1" xmlns:dc="http://purl.org/dc/elements/1.1/" xmlns:cc="http://creativecommons.org/ns#" xmlns:rdf="http://www.w3.org/1999/02/22-rdf-syntax-ns#" xmlns:svg="http://www.w3.org/2000/svg" xmlns:sodipodi="http://sodipodi.sourceforge.net/DTD/sodipodi-0.dtd" xmlns:inkscape="http://www.inkscape.org/namespaces/inkscape"
	 xmlns="http://www.w3.org/2000/svg" xmlns:xlink="http://www.w3.org/1999/xlink" x="0px" y="0px" viewBox="-295.9 387.9 14.8 14.8"
	 style="enable-background:new -295.9 387.9 14.8 14.8;" xml:space="preserve">
<g>
	<path d="M-290.5,387.9c-0.4,0-0.7,0.3-0.7,0.7v4.4c-0.1,0-0.1,0-0.2,0h-3.9c-0.4,0-0.7,0.3-0.7,0.7v8.5c0,0.4,0.3,0.7,0.7,0.7h3.9
		c0.2,0,0.3-0.1,0.4-0.2c0.1,0.1,0.3,0.2,0.4,0.2h3.9c0.2,0,0.3-0.1,0.4-0.2c0.1,0.1,0.3,0.2,0.4,0.2h3.9c0.4,0,0.7-0.3,0.7-0.7V396
		c0-0.4-0.3-0.7-0.7-0.7h-3.9c-0.1,0-0.1,0-0.2,0v-6.8c0-0.4-0.3-0.7-0.7-0.7H-290.5z M-290.5,388.4h3.9c0.1,0,0.2,0.1,0.2,0.1V402
		c0,0.1-0.1,0.1-0.2,0.1h-3.9c-0.1,0-0.2-0.1-0.2-0.1c0-4.5,0-9,0-13.5C-290.7,388.5-290.6,388.4-290.5,388.4z M-288.5,388.8
		c-1,0-1.9,0.8-1.9,1.9s0.8,1.9,1.9,1.9s1.9-0.8,1.9-1.9S-287.5,388.8-288.5,388.8z M-288.5,389.3c0.7,0,1.3,0.6,1.3,1.3
		s-0.6,1.3-1.3,1.3s-1.3-0.6-1.3-1.3S-289.3,389.3-288.5,389.3z M-288.8,389.7v1.9h0.5v-1.9H-288.8z M-295.2,393.4h3.9
		c0.1,0,0.2,0.1,0.2,0.1v8.5c0,0.1-0.1,0.1-0.2,0.1h-3.9c-0.1,0-0.2-0.1-0.2-0.1v-8.5C-295.4,393.5-295.4,393.4-295.2,393.4z
		 M-294.1,394v1.9h0.5V394H-294.1z M-293,394v1.9h0.5V394H-293z M-285.7,395.8h3.9c0.1,0,0.2,0.1,0.2,0.1v6.1c0,0.1-0.1,0.1-0.2,0.1
		h-3.9c-0.1,0-0.2-0.1-0.2-0.1V396C-285.9,395.9-285.8,395.8-285.7,395.8z M-294.6,396.1c-0.4,0-0.4,0.5,0,0.5h2.6
		c0.4,0,0.4-0.5,0-0.5H-294.6z M-284.8,396.4v1.9h0.5v-1.9H-284.8z M-284,396.4v1.9h0.5v-1.9H-284z M-283.2,396.4v1.9h0.5v-1.9
		H-283.2z M-282.4,398.5C-282.4,398.5-282.4,398.5-282.4,398.5l-2.7,0c0,0,0,0,0,0c-0.3,0-0.3,0.5,0,0.5h2.6
		C-282.1,399-282.1,398.5-282.4,398.5L-282.4,398.5z"/>
</g>
</svg>
