<?xml version="1.0" encoding="utf-8"?>
<!-- Generator: Adobe Illustrator 19.0.0, SVG Export Plug-In . SVG Version: 6.00 Build 0)  -->
<svg version="1.1" id="Layer_1" xmlns="http://www.w3.org/2000/svg" xmlns:xlink="http://www.w3.org/1999/xlink" x="0px" y="0px"
	 viewBox="-250.8 346 83.5 78.1" style="enable-background:new -250.8 346 83.5 78.1;" xml:space="preserve">
<path d="M-170.6,391.3h-10.1c1.2,0.9,2,2.2,2,3.7c0,2.8-3,5.2-6.8,5.2h-21.3c-3.7,0-6.8-2.3-6.8-5.2c0-1.4,0.8-2.7,2-3.7h-32.8v3.9
	c2.5-1.5,5.3-2.3,8.4-2.3c7.6,0,14,5.2,15.8,12.2h49.5L-170.6,391.3L-170.6,391.3z"/>
<rect x="-177.1" y="409.9" width="1.9" height="14.1"/>
<path d="M-221.3,406.6c-0.1-0.5-0.2-1-0.3-1.5c-1.8-6.2-7.5-10.7-14.2-10.7c-3.1,0-6,1-8.4,2.6c-0.5,0.4-1,0.8-1.5,1.2
	c-0.7,0.6-1.3,1.3-1.9,2c-0.6,0.7-1.1,1.5-1.5,2.4c-1,2-1.6,4.3-1.6,6.6c0,8.2,6.7,14.8,14.8,14.8c7.9,0,14.4-6.3,14.8-14.1
	c0-0.3,0-0.5,0-0.8s0-0.5,0-0.8C-221.1,407.8-221.2,407.2-221.3,406.6z M-228.4,409.9c-0.4,3.8-3.6,6.8-7.5,6.8
	c-4.1,0-7.5-3.4-7.5-7.5c0-4.1,3.4-7.5,7.5-7.5c2.6,0,4.9,1.3,6.3,3.4c0.3,0.5,0.6,1,0.8,1.5c0.2,0.6,0.4,1.2,0.4,1.9
	c0,0.2,0,0.5,0,0.8C-228.4,409.4-228.4,409.7-228.4,409.9z"/>
<rect x="-212" y="347.9" width="9.1" height="2"/>
<path d="M-170.6,357.5c0-3.4-3.6-6.1-8.1-6.1h-22.7h-12.1h-22.7c-4.5,0-8.1,2.7-8.1,6.1v6.1h73.6
	C-170.6,363.6-170.6,357.5-170.6,357.5z"/>
<path d="M-245.8,391.3v-27.7v-6.1V346h-1.9v51.9c0.6-0.6,1.2-1.2,1.9-1.7V391.3z"/>
<path d="M-206.8,391.3c-2.8,0-5.3,1.7-5.3,3.7c0,2,2.4,3.7,5.3,3.7h21.3c2.8,0,5.3-1.7,5.3-3.7c0-2-2.4-3.7-5.3-3.7H-206.8z"/>
<polygon points="-185.4,389.8 -170.6,389.8 -170.6,365.1 -244.3,365.1 -244.3,389.8 -206.8,389.8 "/>
<path d="M-235.9,403.2c-3.3,0-6,2.7-6,6c0,3.3,2.7,6,6,6c3.1,0,5.6-2.3,6-5.3c0-0.2,0.1-0.5,0.1-0.8c0-1.4-0.5-2.7-1.3-3.8
	C-232.3,404.1-234,403.2-235.9,403.2z"/>
<path d="M-169.1,357.5v6.1v27.7v15.3h-50.7c0.1,0.6,0.2,1.2,0.2,1.9h41h4.9h6.4V346h-1.9L-169.1,357.5L-169.1,357.5z"/>
</svg>
