<?xml version="1.0" encoding="utf-8"?>
<!-- Generator: Adobe Illustrator 19.0.0, SVG Export Plug-In . SVG Version: 6.00 Build 0)  -->
<svg version="1.1" id="Layer_1" xmlns="http://www.w3.org/2000/svg" xmlns:xlink="http://www.w3.org/1999/xlink" x="0px" y="0px"
	 viewBox="-177.4 272 144.8 200" style="enable-background:new -177.4 272 144.8 200;" xml:space="preserve">
<g>
	<path d="M-105,398.2c-29.7,0-53.8-24.1-53.8-53.8c0-29.7,24.1-53.8,53.8-53.8c29.7,0,53.8,24.1,53.8,53.8
		C-51.2,374.1-75.3,398.2-105,398.2z M-105,297.6c-25.8,0-46.9,21-46.9,46.9c0,25.8,21,46.9,46.9,46.9s46.9-21,46.9-46.9
		C-58.1,318.6-79.2,297.6-105,297.6z"/>
	<polygon points="-109.6,363.2 -130.6,342.2 -125.7,337.3 -109.6,353.4 -84.3,328.1 -79.4,333 	"/>
	<path d="M-67.1,430.6h-75.9v-24.5c-21.3-13.1-34.5-36.6-34.5-61.7c0-39.9,32.5-72.4,72.4-72.4s72.4,32.5,72.4,72.4
		c0,25.1-13.2,48.5-34.5,61.7V430.6z M-136,423.7h62v-21.6l1.7-1c20.2-11.7,32.7-33.4,32.7-56.7c0-36.1-29.4-65.5-65.5-65.5
		s-65.5,29.4-65.5,65.5c0,23.3,12.5,45,32.7,56.7l1.7,1L-136,423.7L-136,423.7z"/>
	<rect x="-142.9" y="437.5" width="75.9" height="6.9"/>
	<rect x="-142.9" y="451.3" width="75.9" height="6.9"/>
	<rect x="-120.2" y="465" width="30.4" height="6.9"/>
</g>
</svg>
