<?xml version="1.0" encoding="utf-8"?>
<!-- Generator: Adobe Illustrator 19.0.0, SVG Export Plug-In . SVG Version: 6.00 Build 0)  -->
<svg version="1.1" id="Layer_1" xmlns="http://www.w3.org/2000/svg" xmlns:xlink="http://www.w3.org/1999/xlink" x="0px" y="0px"
	 viewBox="-27.2 94.7 470.1 466.6" style="enable-background:new -27.2 94.7 470.1 466.6;" xml:space="preserve">
<g>
	<g>
		<g>
			<g>
				<g>
					<path d="M239.4,494.7h-63.7c-21,0-38.1-17.3-38.1-38.6v-44c-29.4-22.2-46.8-56.5-46.8-92.8c0-64.5,52.5-117,117-117
						c31.2,0,60.5,12.2,82.4,34.3c21.9,22.1,34,51.4,34,82.7c0,36.5-17.2,70.8-46.2,92.8v44C278.1,477.4,260.7,494.7,239.4,494.7z
						 M207.9,222.3c-53.5,0-97,43.5-97,97c0,31.5,15.9,61.2,42.4,79.4c2.7,1.9,4.3,4.9,4.3,8.2v49.1c0,10.1,8.3,18.6,18.1,18.6h63.7
						c10.3,0,18.6-8.4,18.6-18.6v-49.1c0-3.3,1.6-6.4,4.3-8.2c26.2-18,41.8-47.7,41.8-79.4C304.3,265.8,261,222.3,207.9,222.3z"/>
				</g>
				<g>
					<path d="M207.9,189.5c-5.5,0-10-4.5-10-10v-74.8c0-5.5,4.5-10,10-10c5.5,0,10,4.5,10,10v74.8
						C217.9,185.1,213.4,189.5,207.9,189.5z"/>
				</g>
				<g>
					<path d="M207.9,189.5c-1.8,0-3.7-0.5-5.3-1.5l-25.1-15.8c-4.7-2.9-6.1-9.1-3.2-13.8c2.9-4.7,9.1-6.1,13.8-3.2l25.1,15.8
						c4.7,2.9,6.1,9.1,3.2,13.8C214.4,187.9,211.2,189.5,207.9,189.5z"/>
				</g>
				<g>
					<path d="M207.9,189.5c-3.3,0-6.6-1.7-8.5-4.7c-2.9-4.7-1.5-10.8,3.2-13.8l25.1-15.8c4.7-2.9,10.9-1.5,13.8,3.2
						c2.9,4.7,1.5,10.8-3.2,13.8L213.2,188C211.5,189,209.7,189.5,207.9,189.5z"/>
				</g>
				<g>
					<path d="M313.7,233.4c-2.6,0-5.1-1-7.1-2.9c-3.9-3.9-3.9-10.2,0-14.1l53.2-53.2c3.9-3.9,10.2-3.9,14.1,0s3.9,10.2,0,14.1
						l-53.2,53.2C318.8,232.4,316.2,233.4,313.7,233.4z"/>
				</g>
				<g>
					<path d="M313.7,233.4c-4.6,0-8.7-3.2-9.7-7.8l-6.4-28.6c-1.2-5.4,2.2-10.7,7.6-11.9c5.4-1.2,10.7,2.2,11.9,7.6l6.4,28.6
						c1.2,5.4-2.2,10.7-7.6,11.9C315.1,233.3,314.4,233.4,313.7,233.4z"/>
				</g>
				<g>
					<path d="M342.9,239.8c-0.7,0-1.4-0.1-2.2-0.2l-29.2-6.4c-5.4-1.2-8.8-6.5-7.6-11.9c1.2-5.4,6.5-8.8,11.9-7.6l29.2,6.4
						c5.4,1.2,8.8,6.5,7.6,11.9C351.6,236.6,347.5,239.8,342.9,239.8z"/>
				</g>
				<g>
					<path d="M432.9,339.8h-74.8c-5.5,0-10-4.5-10-10s4.5-10,10-10h74.8c5.5,0,10,4.5,10,10S438.4,339.8,432.9,339.8z"/>
				</g>
				<g>
					<path d="M358.1,339.8c-1.8,0-3.7-0.5-5.3-1.5c-4.7-2.9-6.1-9.1-3.2-13.8l15.8-25.1c2.9-4.7,9.1-6.1,13.8-3.2
						c4.7,2.9,6.1,9.1,3.2,13.8l-15.8,25.1C364.7,338.1,361.4,339.8,358.1,339.8z"/>
				</g>
				<g>
					<path d="M373.9,364.9c-3.3,0-6.6-1.7-8.5-4.7l-15.8-25.1c-2.9-4.7-1.5-10.9,3.2-13.8c4.7-2.9,10.9-1.5,13.8,3.2l15.8,25.1
						c2.9,4.7,1.5,10.9-3.2,13.8C377.5,364.4,375.7,364.9,373.9,364.9z"/>
				</g>
				<g>
					<path d="M366.9,498.8c-2.6,0-5.1-1-7.1-2.9l-53.2-53.2c-3.9-3.9-3.9-10.2,0-14.1c3.9-3.9,10.2-3.9,14.1,0l53.2,53.2
						c3.9,3.9,3.9,10.2,0,14.1C372,497.8,369.4,498.8,366.9,498.8z"/>
				</g>
				<g>
					<path d="M313.7,445.6c-4.6,0-8.7-3.2-9.8-7.9c-1.2-5.4,2.2-10.7,7.6-11.9l29.2-6.4c5.4-1.2,10.7,2.2,11.9,7.6
						s-2.2,10.7-7.6,11.9l-29.2,6.4C315.1,445.5,314.4,445.6,313.7,445.6z"/>
				</g>
				<g>
					<path d="M307.3,474.8c-0.7,0-1.4-0.1-2.2-0.2c-5.4-1.2-8.8-6.5-7.6-11.9l6.4-29.2c1.2-5.4,6.5-8.8,11.9-7.6
						c5.4,1.2,8.8,6.5,7.6,11.9L317,467C316,471.6,311.8,474.8,307.3,474.8z"/>
				</g>
				<g>
					<path d="M48.3,498.8c-2.6,0-5.1-1-7.1-2.9c-3.9-3.9-3.9-10.2,0-14.1l53.2-53.2c3.9-3.9,10.2-3.9,14.1,0
						c3.9,3.9,3.9,10.2,0,14.1l-53.2,53.2C53.4,497.8,50.8,498.8,48.3,498.8z"/>
				</g>
				<g>
					<path d="M107.9,474.8c-4.6,0-8.7-3.2-9.8-7.9l-6.4-29.2c-1.2-5.4,2.2-10.7,7.6-11.9c5.4-1.2,10.7,2.2,11.9,7.6l6.4,29.2
						c1.2,5.4-2.2,10.7-7.6,11.9C109.3,474.7,108.6,474.8,107.9,474.8z"/>
				</g>
				<g>
					<path d="M101.5,445.6c-0.7,0-1.5-0.1-2.2-0.2l-28.6-6.4c-5.4-1.2-8.8-6.6-7.6-11.9s6.6-8.8,11.9-7.6l28.6,6.4
						c5.4,1.2,8.8,6.6,7.6,11.9C110.2,442.4,106.1,445.6,101.5,445.6z"/>
				</g>
				<g>
					<path d="M57.6,339.8h-74.8c-5.5,0-10-4.5-10-10s4.5-10,10-10h74.8c5.5,0,10,4.5,10,10S63.2,339.8,57.6,339.8z"/>
				</g>
				<g>
					<path d="M41.8,364.9c-1.8,0-3.7-0.5-5.3-1.5c-4.7-2.9-6.1-9.1-3.2-13.8l15.8-25.1c2.9-4.7,9.1-6.1,13.8-3.2
						c4.7,2.9,6.1,9.1,3.2,13.8l-15.8,25.1C48.4,363.2,45.2,364.9,41.8,364.9z"/>
				</g>
				<g>
					<path d="M57.6,339.8c-3.3,0-6.6-1.7-8.5-4.7L33.4,310c-2.9-4.7-1.5-10.9,3.2-13.8c4.7-2.9,10.8-1.5,13.8,3.2l15.8,25.1
						c2.9,4.7,1.5,10.8-3.2,13.8C61.3,339.3,59.5,339.8,57.6,339.8z"/>
				</g>
				<g>
					<path d="M101.5,233.4c-2.6,0-5.1-1-7.1-2.9l-53.2-53.2c-3.9-3.9-3.9-10.2,0-14.1c3.9-3.9,10.2-3.9,14.1,0l53.2,53.2
						c3.9,3.9,3.9,10.2,0,14.1C106.6,232.4,104,233.4,101.5,233.4z"/>
				</g>
				<g>
					<path d="M72.8,239.8c-4.6,0-8.7-3.2-9.7-7.8c-1.2-5.4,2.2-10.7,7.6-11.9l28.6-6.4c5.4-1.2,10.7,2.2,11.9,7.6
						c1.2,5.4-2.2,10.7-7.6,11.9L75,239.6C74.3,239.7,73.6,239.8,72.8,239.8z"/>
				</g>
				<g>
					<path d="M101.5,233.4c-0.7,0-1.5-0.1-2.2-0.2c-5.4-1.2-8.8-6.6-7.6-11.9l6.4-28.6c1.2-5.4,6.6-8.8,11.9-7.6
						c5.4,1.2,8.8,6.6,7.6,11.9l-6.4,28.6C110.2,230.2,106.1,233.4,101.5,233.4z"/>
				</g>
			</g>
			<g>
				<path d="M242.7,524.7h-70c-13.8,0-25-11.2-25-25c0-13.8,11.2-25,25-25h70c13.8,0,25,11.2,25,25
					C267.7,513.5,256.5,524.7,242.7,524.7z M172.7,494.7c-2.8,0-5,2.2-5,5s2.2,5,5,5h70c2.8,0,5-2.2,5-5s-2.2-5-5-5H172.7z"/>
			</g>
			<g>
				<path d="M232.7,554.7h-50c-13.8,0-25-11.2-25-25c0-13.8,11.2-25,25-25h50c13.8,0,25,11.2,25,25
					C257.7,543.5,246.5,554.7,232.7,554.7z M182.7,524.7c-2.8,0-5,2.2-5,5c0,2.8,2.2,5,5,5h50c2.8,0,5-2.2,5-5c0-2.8-2.2-5-5-5
					H182.7z"/>
			</g>
			<rect x="-18.1" y="537.1" transform="matrix(-0.7071 -0.7071 0.7071 -0.7071 -400.7805 928.2686)" width="20" height="20"/>
			<rect x="10.1" y="537.1" transform="matrix(-0.7071 -0.7071 0.7071 -0.7071 -352.4967 948.2676)" width="20" height="20"/>
			<rect x="-18.1" y="508.9" transform="matrix(-0.7071 -0.7071 0.7071 -0.7071 -380.7675 880.0085)" width="20" height="20"/>
			<rect x="10.2" y="508.9" transform="matrix(-0.7071 -0.7071 0.7071 -0.7071 -332.4814 900.0087)" width="20" height="20"/>
			<rect x="383.9" y="537.1" transform="matrix(-0.7071 -0.7071 0.7071 -0.7071 285.4737 1212.5189)" width="20" height="20"/>
			<rect x="412.1" y="537.1" transform="matrix(-0.7071 -0.7071 0.7071 -0.7071 333.7194 1232.5037)" width="20" height="20"/>
			<rect x="383.9" y="508.9" transform="matrix(-0.7071 -0.7071 0.7071 -0.7071 305.5102 1164.249)" width="20" height="20"/>
			<rect x="412.1" y="508.9" transform="matrix(-0.7071 -0.7071 0.7071 -0.7071 353.7584 1184.235)" width="20" height="20"/>
			<g>
				<path d="M207.7,444.7c-5.5,0-10-4.5-10-10v-60c0-5.5,4.5-10,10-10c27.6,0,50-22.4,50-50s-22.4-50-50-50s-50,22.4-50,50
					c0,5.5-4.5,10-10,10s-10-4.5-10-10c0-38.6,31.4-70,70-70c38.6,0,70,31.4,70,70c0,35.2-26.1,64.4-60,69.3v50.7
					C217.7,440.2,213.2,444.7,207.7,444.7z"/>
			</g>
		</g>
	</g>
</g>
</svg>
