<?xml version="1.0" encoding="utf-8"?>
<!-- Generator: Adobe Illustrator 19.0.0, SVG Export Plug-In . SVG Version: 6.00 Build 0)  -->
<svg version="1.1" id="Layer_1" xmlns="http://www.w3.org/2000/svg" xmlns:xlink="http://www.w3.org/1999/xlink" x="0px" y="0px"
	 viewBox="-263 359 44 60" style="enable-background:new -263 359 44 60;" xml:space="preserve">
<title>idea-check-mark-passed-bulb</title>
<g>
	<path d="M-242.5,382.1l-3.8-3.8l-1.4,1.4l4.5,4.5c0.4,0.4,1,0.4,1.4,0l11.5-11.5l-1.4-1.4L-242.5,382.1z"/>
	<path d="M-235,388h-14v-14h12v-2h-13c-0.6,0-1,0.4-1,1v16c0,0.6,0.4,1,1,1h16c0.6,0,1-0.4,1-1v-10h-2V388z"/>
	<path d="M-229.7,368.3c-3.6-3.3-8.4-4.8-13.3-4.2c-9.3,1.1-16,9.5-15,18.8c0.5,4.3,2.6,8.2,5.9,11c1.9,1.7,3,4.2,3,6.8V412
		c0,1.7,1.3,3,3,3l0,0h1.2l0.8,3.2c0.1,0.4,0.5,0.8,1,0.8h4c0.5,0,0.9-0.3,1-0.8l0.8-3.2h1.2c1.7,0,3-1.3,3-3l0,0v-11.4
		c0-2.6,1.1-5,3-6.7c7.2-6.1,8-16.8,2-23.9C-228.5,369.4-229.1,368.9-229.7,368.3L-229.7,368.3z M-235,404v1.8l-12-1.7V404H-235z
		 M-247,408.1v-2l12,1.7v2L-247,408.1z M-239.8,417h-2.4l-0.5-2h3.4L-239.8,417z M-236,413h-10c-0.6,0-1-0.4-1-1v-1.8l12,1.7v0.1
		C-235,412.6-235.4,413-236,413z M-231.3,392.4c-2.4,2.1-3.7,5.1-3.7,8.2v1.4h-5v-2h-2v2h-5v-1.3c0-3.2-1.3-6.2-3.7-8.3
		c-6.3-5.4-7.1-14.8-1.7-21.1c5.4-6.3,14.8-7.1,21.1-1.7c6.3,5.4,7.1,14.8,1.7,21.1C-230.1,391.3-230.7,391.9-231.3,392.4
		L-231.3,392.4z"/>
	<rect x="-263" y="380" width="3" height="2"/>
	<rect x="-222" y="380" width="3" height="2"/>
	<rect x="-257" y="394.5" transform="matrix(-0.7071 0.7071 -0.7071 -0.7071 -156.5007 855.8179)" width="3" height="2"/>
	<rect x="-228" y="365.5" transform="matrix(-0.7071 0.7071 -0.7071 -0.7071 -127.5083 785.8259)" width="3" height="2"/>
	<rect x="-242" y="359" width="2" height="3"/>
	<rect x="-227.5" y="394" transform="matrix(-0.7073 0.7069 -0.7069 -0.7073 -107.1108 835.3427)" width="2" height="3"/>
	<rect x="-256.5" y="365" transform="matrix(-0.7073 0.7069 -0.7069 -0.7073 -177.1006 806.3414)" width="2" height="3"/>
</g>
</svg>
