<?xml version="1.0" encoding="utf-8"?>
<!-- Generator: Adobe Illustrator 19.0.0, SVG Export Plug-In . SVG Version: 6.00 Build 0)  -->
<svg version="1.1" id="Layer_1" xmlns="http://www.w3.org/2000/svg" xmlns:xlink="http://www.w3.org/1999/xlink" x="0px" y="0px"
	 viewBox="-70 164.4 470.1 460" style="enable-background:new -70 164.4 470.1 460;" xml:space="preserve">
<g>
	<g>
		<g>
			<g>
				<g>
					<path d="M196.6,564.4h-63.7c-21,0-38.1-17.3-38.1-38.6v-44C65.4,459.6,48,425.3,48,389c0-64.5,52.5-117,117-117
						c31.2,0,60.5,12.2,82.4,34.3c21.9,22.1,34,51.4,34,82.7c0,36.5-17.2,70.8-46.2,92.8v44C235.3,547.1,217.9,564.4,196.6,564.4z
						 M165.1,292c-53.5,0-97,43.5-97,97c0,31.5,15.9,61.2,42.4,79.4c2.7,1.9,4.3,4.9,4.3,8.2v49.1c0,10.1,8.3,18.6,18.1,18.6h63.7
						c10.3,0,18.6-8.4,18.6-18.6v-49.1c0-3.3,1.6-6.4,4.3-8.2c26.2-18,41.8-47.7,41.8-79.4C261.5,335.5,218.2,292,165.1,292z"/>
				</g>
				<g>
					<path d="M165.1,259.2c-5.5,0-10-4.5-10-10v-74.8c0-5.5,4.5-10,10-10s10,4.5,10,10v74.8C175.1,254.8,170.6,259.2,165.1,259.2z"
						/>
				</g>
				<g>
					<path d="M165.1,259.2c-1.8,0-3.7-0.5-5.3-1.5l-25.1-15.8c-4.7-2.9-6.1-9.1-3.2-13.8c2.9-4.7,9.1-6.1,13.8-3.2l25.1,15.8
						c4.7,2.9,6.1,9.1,3.2,13.8C171.6,257.6,168.4,259.2,165.1,259.2z"/>
				</g>
				<g>
					<path d="M165.1,259.2c-3.3,0-6.6-1.7-8.5-4.7c-2.9-4.7-1.5-10.8,3.2-13.8l25.1-15.8c4.7-2.9,10.9-1.5,13.8,3.2
						c2.9,4.7,1.5,10.8-3.2,13.8l-25.1,15.8C168.7,258.7,166.9,259.2,165.1,259.2z"/>
				</g>
				<g>
					<path d="M270.9,303.1c-2.6,0-5.1-1-7.1-2.9c-3.9-3.9-3.9-10.2,0-14.1l53.2-53.2c3.9-3.9,10.2-3.9,14.1,0s3.9,10.2,0,14.1
						l-53.2,53.2C276,302.1,273.4,303.1,270.9,303.1z"/>
				</g>
				<g>
					<path d="M270.9,303.1c-4.6,0-8.7-3.2-9.7-7.8l-6.4-28.6c-1.2-5.4,2.2-10.7,7.6-11.9s10.7,2.2,11.9,7.6l6.4,28.6
						c1.2,5.4-2.2,10.7-7.6,11.9C272.3,303,271.6,303.1,270.9,303.1z"/>
				</g>
				<g>
					<path d="M300.1,309.5c-0.7,0-1.4-0.1-2.2-0.2l-29.2-6.4c-5.4-1.2-8.8-6.5-7.6-11.9c1.2-5.4,6.5-8.8,11.9-7.6l29.2,6.4
						c5.4,1.2,8.8,6.5,7.6,11.9C308.8,306.3,304.7,309.5,300.1,309.5z"/>
				</g>
				<g>
					<path d="M390.1,409.5h-74.8c-5.5,0-10-4.5-10-10s4.5-10,10-10h74.8c5.5,0,10,4.5,10,10S395.6,409.5,390.1,409.5z"/>
				</g>
				<g>
					<path d="M315.3,409.5c-1.8,0-3.7-0.5-5.3-1.5c-4.7-2.9-6.1-9.1-3.2-13.8l15.8-25.1c2.9-4.7,9.1-6.1,13.8-3.2
						c4.7,2.9,6.1,9.1,3.2,13.8l-15.8,25.1C321.9,407.8,318.6,409.5,315.3,409.5z"/>
				</g>
				<g>
					<path d="M331.1,434.6c-3.3,0-6.6-1.7-8.5-4.7l-15.8-25.1c-2.9-4.7-1.5-10.9,3.2-13.8c4.7-2.9,10.9-1.5,13.8,3.2l15.8,25.1
						c2.9,4.7,1.5,10.9-3.2,13.8C334.7,434.1,332.9,434.6,331.1,434.6z"/>
				</g>
				<g>
					<path d="M324.1,568.5c-2.6,0-5.1-1-7.1-2.9l-53.2-53.2c-3.9-3.9-3.9-10.2,0-14.1c3.9-3.9,10.2-3.9,14.1,0l53.2,53.2
						c3.9,3.9,3.9,10.2,0,14.1C329.2,567.5,326.6,568.5,324.1,568.5z"/>
				</g>
				<g>
					<path d="M270.9,515.3c-4.6,0-8.7-3.2-9.8-7.9c-1.2-5.4,2.2-10.7,7.6-11.9l29.2-6.4c5.4-1.2,10.7,2.2,11.9,7.6
						c1.2,5.4-2.2,10.7-7.6,11.9L273,515C272.3,515.2,271.6,515.3,270.9,515.3z"/>
				</g>
				<g>
					<path d="M264.5,544.5c-0.7,0-1.4-0.1-2.2-0.2c-5.4-1.2-8.8-6.5-7.6-11.9l6.4-29.2c1.2-5.4,6.5-8.8,11.9-7.6s8.8,6.5,7.6,11.9
						l-6.4,29.2C273.2,541.3,269,544.5,264.5,544.5z"/>
				</g>
				<g>
					<path d="M5.5,568.5c-2.6,0-5.1-1-7.1-2.9c-3.9-3.9-3.9-10.2,0-14.1l53.2-53.2c3.9-3.9,10.2-3.9,14.1,0c3.9,3.9,3.9,10.2,0,14.1
						l-53.2,53.2C10.6,567.5,8,568.5,5.5,568.5z"/>
				</g>
				<g>
					<path d="M65.1,544.5c-4.6,0-8.7-3.2-9.8-7.9l-6.4-29.2c-1.2-5.4,2.2-10.7,7.6-11.9c5.4-1.2,10.7,2.2,11.9,7.6l6.4,29.2
						c1.2,5.4-2.2,10.7-7.6,11.9C66.5,544.4,65.8,544.5,65.1,544.5z"/>
				</g>
				<g>
					<path d="M58.7,515.3c-0.7,0-1.5-0.1-2.2-0.2l-28.6-6.4c-5.4-1.2-8.8-6.6-7.6-11.9c1.2-5.3,6.6-8.8,11.9-7.6l28.6,6.4
						c5.4,1.2,8.8,6.6,7.6,11.9C67.4,512.1,63.3,515.3,58.7,515.3z"/>
				</g>
				<g>
					<path d="M14.8,409.5H-60c-5.5,0-10-4.5-10-10s4.5-10,10-10h74.8c5.5,0,10,4.5,10,10S20.4,409.5,14.8,409.5z"/>
				</g>
				<g>
					<path d="M-1,434.6c-1.8,0-3.7-0.5-5.3-1.5c-4.7-2.9-6.1-9.1-3.2-13.8l15.8-25.1c2.9-4.7,9.1-6.1,13.8-3.2
						c4.7,2.9,6.1,9.1,3.2,13.8L7.5,429.9C5.6,432.9,2.4,434.6-1,434.6z"/>
				</g>
				<g>
					<path d="M14.8,409.5c-3.3,0-6.6-1.7-8.5-4.7l-15.7-25.1c-2.9-4.7-1.5-10.9,3.2-13.8c4.7-2.9,10.8-1.5,13.8,3.2l15.8,25.1
						c2.9,4.7,1.5,10.8-3.2,13.8C18.5,409,16.7,409.5,14.8,409.5z"/>
				</g>
				<g>
					<path d="M58.7,303.1c-2.6,0-5.1-1-7.1-2.9L-1.6,247c-3.9-3.9-3.9-10.2,0-14.1c3.9-3.9,10.2-3.9,14.1,0l53.2,53.2
						c3.9,3.9,3.9,10.2,0,14.1C63.8,302.1,61.2,303.1,58.7,303.1z"/>
				</g>
				<g>
					<path d="M30,309.5c-4.6,0-8.7-3.2-9.7-7.8c-1.2-5.4,2.2-10.7,7.6-11.9l28.6-6.4c5.4-1.2,10.7,2.2,11.9,7.6
						c1.2,5.4-2.2,10.7-7.6,11.9l-28.6,6.4C31.5,309.4,30.8,309.5,30,309.5z"/>
				</g>
				<g>
					<path d="M58.7,303.1c-0.7,0-1.5-0.1-2.2-0.2c-5.4-1.2-8.8-6.6-7.6-11.9l6.4-28.6c1.2-5.4,6.6-8.8,11.9-7.6
						c5.4,1.2,8.8,6.6,7.6,11.9l-6.4,28.6C67.4,299.9,63.3,303.1,58.7,303.1z"/>
				</g>
			</g>
			<g>
				<path d="M199.9,594.4h-70c-13.8,0-25-11.2-25-25s11.2-25,25-25h70c13.8,0,25,11.2,25,25S213.7,594.4,199.9,594.4z M129.9,564.4
					c-2.8,0-5,2.2-5,5s2.2,5,5,5h70c2.8,0,5-2.2,5-5s-2.2-5-5-5H129.9z"/>
			</g>
			<g>
				<path d="M189.9,624.4h-50c-13.8,0-25-11.2-25-25s11.2-25,25-25h50c13.8,0,25,11.2,25,25S203.7,624.4,189.9,624.4z M139.9,594.4
					c-2.8,0-5,2.2-5,5s2.2,5,5,5h50c2.8,0,5-2.2,5-5s-2.2-5-5-5H139.9z"/>
			</g>
			<g>
				<path d="M164.9,514.4c-5.5,0-10-4.5-10-10v-60c0-5.5,4.5-10,10-10c27.6,0,50-22.4,50-50c0-27.6-22.4-50-50-50s-50,22.4-50,50
					c0,5.5-4.5,10-10,10s-10-4.5-10-10c0-38.6,31.4-70,70-70s70,31.4,70,70c0,35.2-26.1,64.4-60,69.3v50.7
					C174.9,509.9,170.4,514.4,164.9,514.4z"/>
			</g>
		</g>
	</g>
</g>
</svg>
