<?xml version="1.0" encoding="utf-8"?>
<!-- Generator: Adobe Illustrator 19.0.0, SVG Export Plug-In . SVG Version: 6.00 Build 0)  -->
<svg fill = "white" version="1.1" id="Layer_1" xmlns="http://www.w3.org/2000/svg" xmlns:xlink="http://www.w3.org/1999/xlink" x="0px" y="0px"
	 viewBox="-250.8 341 90.1 85" style="enable-background:new -250.8 341 90.1 85;" xml:space="preserve">
<path d="M-172.3,396h-28.4c-5.7,0-10.4,4-11.4,9h-15.7c-0.7-4-3.2-6.8-6.2-8.4v-26.2c3-1.5,5.5-4.4,6.2-8.4h15.7c1,5,5.7,9,11.4,9
	h28.4c6.4,0,11.6-5.1,11.6-11.5s-5.2-11.5-11.6-11.5h-28.4c-5.7,0-10.4,4-11.4,10h-15.7c-0.7-4-3.2-7.2-6.2-8.7V341h-10v8.3
	c-4,1.8-6.8,5.9-6.8,10.6c0,4.7,2.8,8.7,6.8,10.5v26.3c-4,1.8-6.8,5.9-6.8,10.6c0,4.7,2.8,8.6,6.8,10.4v8.3h10v-8.3
	c3-1.5,5.5-4.7,6.2-8.7h15.7c1,6,5.7,10,11.4,10h28.4c6.4,0,11.6-5.1,11.6-11.5S-165.9,396-172.3,396z M-200.7,352h28.4
	c4.1,0,7.4,3.4,7.4,7.5s-3.4,7.5-7.4,7.5h-28.4c-4.1,0-7.4-3.4-7.4-7.5S-204.8,352-200.7,352z M-246.5,359.8c0-4.1,3.3-7.4,7.4-7.4
	c4.1,0,7.4,3.3,7.4,7.4c0,4.1-3.3,7.4-7.4,7.4C-243.2,367.2-246.5,363.9-246.5,359.8z M-239.2,414.6c-4.1,0-7.4-3.3-7.4-7.4
	c0-4.1,3.3-7.4,7.4-7.4c4.1,0,7.4,3.3,7.4,7.4C-231.8,411.3-235.1,414.6-239.2,414.6z M-172.3,415h-28.4c-4.1,0-7.4-3.4-7.4-7.5
	s3.3-7.5,7.4-7.5h28.4c4.1,0,7.4,3.4,7.4,7.5S-168.3,415-172.3,415z"/>
</svg>
